<?xml version="1.0" encoding="UTF-8"?>
<svg id="_レイヤー_1" data-name="レイヤー 1" xmlns="http://www.w3.org/2000/svg" viewBox="0 0 60 60">
  <defs>
    <style>
      .cls-1 {
        fill: #6c3;
      }

      .cls-1, .cls-2, .cls-3, .cls-4, .cls-5 {
        stroke-width: 0px;
      }

      .cls-2 {
        fill: #fbb03b;
      }

      .cls-3 {
        fill: #3fa9f5;
      }

      .cls-4 {
        fill: #d9e021;
      }

      .cls-5 {
        fill: red;
      }
    </style>
  </defs>
  <path class="cls-5" d="M26.17,30.38c2.35,0,4.61-2.07,4.5-4.5s-1.98-4.5-4.5-4.5c-2.35,0-4.61,2.07-4.5,4.5s1.98,4.5,4.5,4.5h0Z"/>
  <path class="cls-3" d="M32.48,34.79l4.59,7.19,2.3,3.6,1.11,1.73c.43.68.76,1.34,1.6,1.52,1.44.31,2.5-1.09,3.42-1.97s2.32-1.81,2.75-3.02c.52-1.48-.53-2.68-1.33-3.82s-1.64-2.35-2.46-3.52-1.7-2.22-2.77-3.22c-.93-.86-1.19-2.21-2.1-3.12-1.35-1.38-3.48.74-2.12,2.12.45.46.66,1.09.96,1.65.34.63.79,1.18,1.32,1.65,1.2,1.05,2.02,2.31,2.93,3.61.49.69.97,1.39,1.46,2.08.24.35.49.69.73,1.04.11.16.26.52.43.63l.1.15.05-.33c-.05-.04-1.59,1.52-1.74,1.66-.34.32-.67.64-1.01.96-.16.15-.44.52-.62.56h.8l-.2-.03.9.69c-2.84-4.44-5.67-8.88-8.51-13.32-1.04-1.62-3.63-.12-2.59,1.51h0Z"/>
  <path class="cls-2" d="M23.16,30.46c-3.13-1.97-6.41-6.63-4.76-10.48.84-1.96,2.63-3.64,4.25-4.97s3.5-2.36,5.55-2.76c4.33-.85,7.71,1.64,9.4,5.48,1.47,3.34,2.49,8.46-.37,11.35-1.65,1.67-4.02,2.37-6.3,2.65-1.3.16-2.62.21-3.94.25-.98.03-2.31.17-3.14-.47-1.51-1.17-3.64.94-2.12,2.12,2.26,1.76,5.19,1.42,7.89,1.23s5.57-.7,7.94-2.22c4.93-3.17,5.11-9.17,3.46-14.28s-5.28-9.16-10.8-9.28-10.82,3.74-13.76,8.21c-3.62,5.52.18,12.61,5.18,15.76,1.64,1.03,3.14-1.56,1.51-2.59h0Z"/>
  <path class="cls-3" d="M31.35,16.92l-.13.06c.14-.03.15-.04.03-.01-.1.01-.11.02-.03.02.11,0,.08,0-.11-.01,0,0,.21.07.23.07-.2-.08-.08-.03.04.05.09.06.18.12.27.18-.12-.09-.08-.07,0,.02.15.13.29.27.43.41.3.31.59.62.87.94.13.15.27.31.4.47.07.08.19.24.06.07.07.09.13.18.2.27.23.33.44.67.61,1.02.06.11.11.26.03.06.03.08.06.16.09.24.07.21.12.42.16.63.03.16,0,.13,0,0,0,.11.02.23.02.34s0,.23-.01.35c0,.14-.03.16,0,.02-.05.23-.1.45-.18.67-.04.11-.08.16-.01.03-.07.12-.13.25-.2.37-.4.68-.18,1.68.54,2.05s1.63.18,2.05-.54c1.35-2.27.85-4.93-.67-6.97-.67-.9-1.41-1.81-2.26-2.54-.52-.45-1.09-.85-1.76-1.05-.76-.24-1.48-.11-2.19.21s-.95,1.42-.54,2.05c.48.74,1.29.89,2.05.54h0Z"/>
  <path class="cls-1" d="M25.6,44.81c1.93,0,1.93-3,0-3s-1.93,3,0,3h0Z"/>
  <path class="cls-2" d="M22.56,43.56c1.93,0,1.93-3,0-3s-1.93,3,0,3h0Z"/>
  <path class="cls-3" d="M19.2,43.52c1.93,0,1.93-3,0-3s-1.93,3,0,3h0Z"/>
  <path class="cls-4" d="M14.22,44.39c1.93,0,1.93-3,0-3s-1.93,3,0,3h0Z"/>
  <path class="cls-2" d="M25.96,39.62c1.93,0,1.93-3,0-3s-1.93,3,0,3h0Z"/>
  <path class="cls-3" d="M22.61,38.67c1.93,0,1.93-3,0-3s-1.93,3,0,3h0Z"/>
  <path class="cls-5" d="M18.64,39.32c1.93,0,1.93-3,0-3s-1.93,3,0,3h0Z"/>
  <path class="cls-1" d="M14.27,39.81c1.93,0,1.93-3,0-3s-1.93,3,0,3h0Z"/>
  <path class="cls-1" d="M17.78,34.12c1.93,0,1.93-3,0-3s-1.93,3,0,3h0Z"/>
  <path class="cls-3" d="M14.1,35.22c1.93,0,1.93-3,0-3s-1.93,3,0,3h0Z"/>
  <path class="cls-5" d="M13.85,29.42c1.93,0,1.93-3,0-3s-1.93,3,0,3h0Z"/>
</svg>