<?xml version="1.0" encoding="UTF-8"?>
<svg id="_レイヤー_1" data-name="レイヤー 1" xmlns="http://www.w3.org/2000/svg" viewBox="0 0 60 60">
  <defs>
    <style>
      .cls-1 {
        fill: #fbb03b;
        stroke-width: 0px;
      }
    </style>
  </defs>
  <path class="cls-1" d="M27.99,16.1l-.8-4.2c-.07-.35-.39-.72-.69-.9-.32-.19-.8-.27-1.16-.15s-.71.34-.9.69c-.2.37-.23.74-.15,1.16l.8,4.2c.07.35.39.72.69.9.32.19.8.27,1.16.15s.71-.34.9-.69c.2-.37.23-.74.15-1.16h0Z"/>
  <path class="cls-1" d="M34.1,12.06c-.49,1.3-.91,2.62-1.25,3.96-.1.38-.05.81.15,1.16.18.31.54.61.9.69.78.18,1.64-.23,1.85-1.05.34-1.35.75-2.67,1.25-3.96.13-.34.03-.85-.15-1.16s-.54-.61-.9-.69c-.38-.09-.81-.07-1.16.15s-.54.51-.69.9h0Z"/>
  <path class="cls-1" d="M26.94,12.86l5.02-.71.62-.09.35-.05c-.18.02-.22.03-.1.02.29-.02.57-.05.86-.04.09,0,.52.07.14,0,.12.02.28.1.39.1.11.04.07.02-.1-.05.07.03.13.07.19.11-.16-.13-.17-.14-.05-.03-.11-.16-.12-.17-.03-.03.43.66,1.35.99,2.05.54.66-.42,1-1.35.54-2.05-1.09-1.68-3.01-1.68-4.78-1.43-1.97.27-3.94.55-5.91.83-.78.11-1.27,1.14-1.05,1.85.28.86,1.01,1.16,1.85,1.05h0Z"/>
  <path class="cls-1" d="M35.57,18.68c.21,0,.42.02.63.04l-.4-.05c.49.07.97.2,1.42.39l-.36-.15c.43.19.84.43,1.21.71l-.3-.23c.37.29.7.62.99.99l-.23-.3c.18.24.35.5.49.77.36.7,1.39.96,2.05.54.71-.46.93-1.31.54-2.05-1.15-2.21-3.57-3.64-6.05-3.66-.78,0-1.54.7-1.5,1.5s.66,1.49,1.5,1.5h0Z"/>
  <path class="cls-1" d="M42.87,21.16l2.52-3.12c.15-.14.25-.3.31-.48.09-.18.14-.37.13-.58,0-.37-.16-.81-.44-1.06s-.66-.46-1.06-.44c-.37.02-.82.14-1.06.44l-2.52,3.12c-.15.14-.25.3-.31.48-.09.18-.14.37-.13.58,0,.37.16.81.44,1.06s.66.46,1.06.44c.37-.02.82-.14,1.06-.44h0Z"/>
  <path class="cls-1" d="M43.32,17.95c.46.38.89.78,1.3,1.21.21.22.41.44.61.68.09.11.19.22.28.33,0,.01.15.19.15.19,0,0-.23-.3-.03-.04.72.96,1.32,2,1.81,3.1.14.32.57.6.9.69.36.1.84.05,1.16-.15s.6-.51.69-.9c.1-.42.02-.77-.15-1.16-1.02-2.33-2.62-4.45-4.59-6.07-.31-.26-.64-.44-1.06-.44-.37,0-.81.16-1.06.44-.51.55-.64,1.59,0,2.12h0Z"/>
  <path class="cls-1" d="M49.35,21.31c-.82-.27-1.71-.07-2.45.33-.59.32-1.09.78-1.62,1.19l.3-.23c-.29.22-.59.44-.93.58l.36-.15c-.13.05-.27.09-.41.12l.4-.05c-.11.01-.22.02-.33,0l.4.05c-.12-.02-.23-.05-.34-.09-.33-.14-.86-.02-1.16.15-.31.18-.61.54-.69.9-.09.38-.07.81.15,1.16s.51.53.9.69c.79.33,1.71.11,2.44-.27.6-.31,1.1-.79,1.63-1.2l-.3.23c.29-.23.6-.44.94-.6l-.36.15c.15-.06.3-.11.46-.13l-.4.05c.11-.01.23-.01.34,0l-.4-.05c.09.01.18.03.26.06.75.25,1.67-.29,1.85-1.05.19-.83-.25-1.58-1.05-1.85h0Z"/>
  <path class="cls-1" d="M29.64,30.71c-.14.02-.29-.01-.42,0l.24.03c-.05-.01-.11-.02-.16-.04-.05-.01-.11-.05-.15-.05l.21.09s-.1-.05-.14-.08c-.05-.03-.09-.06-.14-.09-.24-.15.18.2.07.05-.06-.08-.15-.14-.21-.21-.03-.03-.08-.11-.11-.13l.13.16s-.07-.1-.1-.15c-.06-.09-.14-.34-.21-.39.02.01.13.35.05.11-.03-.08-.06-.17-.08-.25-.02-.06-.03-.11-.04-.17-.01-.06-.02-.12-.04-.17l.03.22c.02-.14-.02-.3-.02-.44,0-.09.01-.19.02-.28.01-.19.07.01-.02.12.07-.08.07-.34.1-.45.03-.09.06-.18.09-.27.09-.27-.15.29,0,.02.07-.14.14-.27.22-.4.03-.05.07-.1.1-.15.18-.27-.23.24,0,.01.11-.11.21-.22.32-.32.14-.14.02.07-.09.06.05,0,.22-.14.27-.17.07-.04.14-.07.2-.11.21-.11-.11.06-.14.06.11,0,.26-.08.38-.11.18-.04.27.04-.09,0,.05,0,.11,0,.16-.01.16,0,.31.02.47.02-.39,0-.27-.05-.13-.01.06.02.13.03.19.04.13.03.25.1.38.12-.29-.05-.26-.12-.14-.06.07.04.14.07.21.11.13.07.24.16.37.23.17.09-.29-.26-.08-.06.04.04.08.07.12.11.1.09.18.19.27.29.2.22-.2-.3-.04-.05.03.04.06.09.09.13.04.07.08.14.12.2l.03.07c.06.14.04.09-.06-.14.02.12.09.25.11.38.01.05.01.11.03.16-.12-.38-.03-.22-.02-.06,0,.06,0,.12,0,.17,0,.16-.1.32.02-.05-.05.15-.07.31-.12.46-.07.2-.12.07.04-.08-.05.05-.08.17-.12.23-.04.08-.09.15-.14.22l-.05.07c-.09.13-.07.1.07-.09-.11.05-.27.3-.37.38-.04.04-.09.07-.13.11.28-.29.1-.08-.02,0s-.33.13-.42.23l.2-.08c-.05.02-.11.04-.16.06-.08.03-.17.05-.25.07-.07.02-.14.03-.21.04-.12.02-.06.01.18-.03-.06,0-.12,0-.17.01-.06,0-.12,0-.17,0-.42-.02.23.05-.04,0-.77-.15-1.66.21-1.85,1.05-.17.74.22,1.69,1.05,1.85,2.01.38,4.06-.59,5.07-2.38s.69-3.9-.75-5.29c-1.23-1.2-3.2-1.82-4.86-1.19-1.98.75-3.22,2.72-3.24,4.81-.01,1.16.44,2.26,1.17,3.15.69.84,1.84,1.42,2.94,1.3.41-.05.76-.14,1.06-.44.26-.26.46-.69.44-1.06-.03-.74-.66-1.59-1.5-1.5h0Z"/>
  <path class="cls-1" d="M37.22,42.07c-1.71-.07-3.52.1-4.67,1.53-.49.61-.78,1.36-.77,2.15,0,.42.13.8.29,1.18.11.25.36.59.32.82l.2-.76-.08.06.66-.39c-.7.27-1.5.35-2.24.49-.67.13-1.49.37-2.17.18-1.06-.3-.27-1.44-.05-2.17.41-1.37.3-3.02-1.12-3.73-.59-.3-1.26-.37-1.86-.63s-1.14-.59-1.63-.99c-.81-.66-2.25-.54-2.51.66-.16.74-.43,1.35-.87,1.97h2.59c-.15-.25-.3-.5-.45-.75-.46-.77-1.71-1.06-2.36-.3-1.08,1.27-1.99,2.64-2.67,4.16-.33.74-.21,1.61.54,2.05.64.37,1.72.21,2.05-.54.57-1.28,1.29-2.48,2.2-3.56l-2.36-.3c.15.25.3.5.45.75.61,1.02,1.95.91,2.59,0,.57-.81.96-1.72,1.17-2.69l-2.51.66c.92.76,1.88,1.35,2.99,1.78.22.09.45.16.68.23.18.05.36.1.53.14l-.24-.24c-.2.4-.29.97-.43,1.41-.73,2.2.19,4.44,2.57,4.99,1.27.29,2.56,0,3.82-.24s2.65-.3,3.28-1.51c.28-.53.27-1.15.1-1.72-.07-.24-.57-.89-.52-1.16.13-.81,1.94-.58,2.44-.56,1.93.08,1.93-2.92,0-3h0Z"/>
  <path class="cls-1" d="M20.18,45.62c-.43-.1-.85-.24-1.26-.39.2.08.04.02-.07-.03-.1-.05-.2-.09-.3-.14-.2-.1-.39-.21-.58-.32s-.37-.23-.55-.36c-.03-.02-.31-.23-.17-.12s-.16-.14-.16-.13c-.34-.29-.65-.6-.94-.93-.06-.07-.11-.14-.17-.2.24.28-.1-.11-.06-.11l.11.4-.11.41c.08-.12.08-.14.02-.05-.07.08-.06.07.04-.04.34-.4.68-.8,1.02-1.2.73-.86,1.46-1.72,2.2-2.58.51-.6.63-1.54,0-2.12-.56-.51-1.58-.64-2.12,0-.86,1.01-1.71,2.01-2.57,3.02-.42.49-.94.98-1.21,1.57-.38.82-.28,1.7.27,2.42,1.43,1.9,3.52,3.26,5.84,3.81.76.18,1.66-.24,1.85-1.05s-.23-1.65-1.05-1.85h0Z"/>
  <path class="cls-1" d="M20.09,37.73c-.57-1.99-1.02-4.09-1.74-6.04-.66-1.79-2.06-2.12-3.7-1.42-.45.19-.88.35-1.36.44-.14.02-1.41.05-1.41.05.28.71.38.76.3.16,0-.27,0-.54.01-.81.02-.41.06-.81.13-1.22.08-.49.39-1.1.4-1.58.25-.46.17-.52-.23-.16l.41.1c.41.26,1.15.32,1.62.48.54.18,1.08.38,1.61.6.67.28,1.71.28,2.05-.54.65-1.54,1.47-3.02,2.51-4.33.54-.68.57-1.44,0-2.12-.76-.91-1.52-1.81-2.27-2.72-.28-.34-.57-.68-.85-1.02-.19-.23-.38-.45-.57-.68-.34.72-.33.87.05.45.51-.23,1.12-1.1,1.78-.81.39.16.63.98.8,1.32.59,1.16,1.39,2.3,2.82,2.4.76.05,1.44-.19,2.05-.63.37-.26.66-.58.97-.9.16-.17.73-.56.51-.67,1.72.86,3.25-1.73,1.51-2.59-1.08-.54-2.16-.43-3.16.25-.46.31-.81.72-1.19,1.12-.18.19-.54.4-.34.48-.42-.15-.81-1.48-1.04-1.86-.52-.85-1.23-1.57-2.21-1.84-1.09-.3-2.21.01-3.17.55s-2.18,1.4-2.44,2.5c-.32,1.34,1.03,2.46,1.79,3.37.95,1.13,1.89,2.26,2.84,3.39v-2.12c-1.21,1.53-2.22,3.14-2.98,4.94l2.05-.54c-1.22-.52-2.46-.99-3.75-1.33-1.04-.28-2.12-.5-3.02.25-.85.71-1.15,2-1.37,3.03-.27,1.23-.42,2.55-.3,3.81.27,2.82,3.86,2.54,5.85,1.83.22-.08.54-.16.73-.3.48-.12.49-.22.03-.31-.29-.22-.39-.24-.31-.05-.1.32.39,1.38.5,1.74l1.18,4.12c.53,1.85,3.43,1.07,2.89-.8h0Z"/>
  <path class="cls-1" d="M37.63,44.69c.38.2.6.71.88,1.05.48.59,1.1,1.04,1.9,1.04,1,0,1.65-.72,2.28-1.4.74-.8,1.48-1.6,2.22-2.41.54-.59.6-1.54,0-2.12-1.03-1-2.06-2-3.09-3l.39,1.46c.33-.8.77-2.02,1.7-2.28.41-.12.57.05.9.28.49.35,1.02.57,1.62.55,2.57-.09,2.74-3.77,3.13-5.59.21-.97-.43-1.87-1.45-1.9-1.36-.04-2.71-.08-4.07-.12l1.5,1.5c.25-1.85.49-3.71.74-5.56.11-.8-.77-1.5-1.5-1.5-.9,0-1.39.69-1.5,1.5-.25,1.85-.49,3.71-.74,5.56-.11.82.78,1.48,1.5,1.5,1.36.04,2.71.08,4.07.12l-1.45-1.9c-.14.68-.29,1.37-.43,2.05-.02.11-.41,1.35-.35,1.44-.06-.08,1.18.3.36-.3-.21-.15-.4-.27-.64-.38-.5-.22-1.03-.32-1.58-.3-2.59.12-3.83,2.42-4.7,4.53-.19.47.04,1.12.39,1.46,1.03,1,2.06,2,3.09,3v-2.12c-.49.53-.99,1.07-1.48,1.6-.25.27-.49.53-.74.8-.16.18-.33.36-.49.53.28-.04.53,0,.76.11.01-.07-.44-.63-.56-.78-.32-.41-.67-.77-1.14-1.02-1.71-.9-3.23,1.69-1.51,2.59h0Z"/>
</svg>