<?xml version="1.0" encoding="UTF-8"?>
<svg id="_レイヤー_1" data-name="レイヤー 1" xmlns="http://www.w3.org/2000/svg" viewBox="0 0 60 60">
  <defs>
    <style>
      .cls-1 {
        fill: #6c3;
      }

      .cls-1, .cls-2, .cls-3, .cls-4, .cls-5, .cls-6 {
        stroke-width: 0px;
      }

      .cls-2 {
        fill: #cc3;
      }

      .cls-3 {
        fill: #e71f19;
      }

      .cls-4 {
        fill: #39f;
      }

      .cls-5 {
        fill: #d9e021;
      }

      .cls-6 {
        fill: #f29438;
      }
    </style>
  </defs>
  <path class="cls-2" d="M24.15,41.14c1.93,0,1.93-3,0-3s-1.93,3,0,3h0Z"/>
  <path class="cls-6" d="M19.8,39.89c1.93,0,1.93-3,0-3s-1.93,3,0,3h0Z"/>
  <path class="cls-1" d="M15.45,39.85c1.93,0,1.93-3,0-3s-1.93,3,0,3h0Z"/>
  <path class="cls-3" d="M11.39,41.12c1.93,0,1.93-3,0-3s-1.93,3,0,3h0Z"/>
  <path class="cls-1" d="M23.2,36.57c1.93,0,1.93-3,0-3s-1.93,3,0,3h0Z"/>
  <path class="cls-6" d="M20.16,35.31c1.93,0,1.93-3,0-3s-1.93,3,0,3h0Z"/>
  <path class="cls-4" d="M16.8,35.28c1.93,0,1.93-3,0-3s-1.93,3,0,3h0Z"/>
  <path class="cls-2" d="M11.82,36.15c1.93,0,1.93-3,0-3s-1.93,3,0,3h0Z"/>
  <path class="cls-6" d="M23.56,31.38c1.93,0,1.93-3,0-3s-1.93,3,0,3h0Z"/>
  <path class="cls-4" d="M20.21,30.43c1.93,0,1.93-3,0-3s-1.93,3,0,3h0Z"/>
  <path class="cls-3" d="M16.24,31.08c1.93,0,1.93-3,0-3s-1.93,3,0,3h0Z"/>
  <path class="cls-1" d="M11.87,31.57c1.93,0,1.93-3,0-3s-1.93,3,0,3h0Z"/>
  <path class="cls-3" d="M23.31,26.19c1.93,0,1.93-3,0-3s-1.93,3,0,3h0Z"/>
  <path class="cls-6" d="M18.97,25.62c1.93,0,1.93-3,0-3s-1.93,3,0,3h0Z"/>
  <path class="cls-1" d="M15.38,25.88c1.93,0,1.93-3,0-3s-1.93,3,0,3h0Z"/>
  <path class="cls-4" d="M11.7,26.98c1.93,0,1.93-3,0-3s-1.93,3,0,3h0Z"/>
  <path class="cls-1" d="M23.67,20.7c1.93,0,1.93-3,0-3s-1.93,3,0,3h0Z"/>
  <path class="cls-6" d="M19.11,19.12c1.93,0,1.93-3,0-3s-1.93,3,0,3h0Z"/>
  <path class="cls-4" d="M15.75,19.39c1.93,0,1.93-3,0-3s-1.93,3,0,3h0Z"/>
  <path class="cls-3" d="M11.46,21.18c1.93,0,1.93-3,0-3s-1.93,3,0,3h0Z"/>
  <path class="cls-5" d="M4.7,13.86c-1.43,11.26-.16,22.56-.79,33.86-.11,1.93,2.89,1.92,3,0,.63-11.3-.65-22.6.79-33.86.24-1.91-2.76-1.89-3,0h0Z"/>
  <path class="cls-5" d="M52.35,13.52c.06,11.4.13,22.79.19,34.19.01,1.93,3.01,1.93,3,0-.06-11.4-.13-22.79-.19-34.19-.01-1.93-3.01-1.93-3,0h0Z"/>
  <path class="cls-5" d="M6.47,49.32c1.79-.82,3.6-1.64,5.53-2.04s4.12-.33,6.16-.68c3.75-.65,7.31-.11,10.2,2.54,1.42,1.3,3.55-.81,2.12-2.12-3.25-2.98-7.47-4.18-11.81-3.53-1.17.18-2.33.43-3.52.5s-2.37.1-3.55.31c-2.33.42-4.52,1.44-6.66,2.42-1.75.8-.23,3.39,1.51,2.59h0Z"/>
  <path class="cls-5" d="M29.88,49.39c7.31-2.85,15.35-2.86,22.66-.03,1.8.7,2.58-2.2.8-2.89-7.74-2.99-16.52-2.98-24.26.03-1.78.69-1.01,3.6.8,2.89h0Z"/>
  <path class="cls-5" d="M7.02,15.02c6.83-3.1,15.01-2.48,21.37,1.42,1.65,1.01,3.16-1.58,1.51-2.59-7.34-4.5-16.59-4.96-24.4-1.42-1.76.8-.23,3.38,1.51,2.59h0Z"/>
  <path class="cls-5" d="M30.32,16.49c2.86-2.28,6.95-3.01,10.5-3.21,3.89-.21,7.72.38,11.38,1.69,1.82.65,2.61-2.25.8-2.89-4.15-1.48-8.62-2.1-13.02-1.74s-8.44,1.37-11.78,4.03c-1.51,1.2.63,3.31,2.12,2.12h0Z"/>
  <path class="cls-5" d="M28.09,15.07c.69,10.46.75,20.95.18,31.42-.11,1.93,2.89,1.92,3,0,.57-10.47.51-20.96-.18-31.42-.13-1.92-3.13-1.93-3,0h0Z"/>
  <path class="cls-2" d="M48.04,33.17c1.93,0,1.93-3,0-3s-1.93,3,0,3h0Z"/>
  <path class="cls-6" d="M39.7,32.91c1.93,0,1.93-3,0-3s-1.93,3,0,3h0Z"/>
  <path class="cls-1" d="M44.09,19.59c1.93,0,1.93-3,0-3s-1.93,3,0,3h0Z"/>
  <path class="cls-6" d="M35.05,30.34c1.93,0,1.93-3,0-3s-1.93,3,0,3h0Z"/>
  <path class="cls-4" d="M39.7,28.3c1.93,0,1.93-3,0-3s-1.93,3,0,3h0Z"/>
  <path class="cls-2" d="M43.72,28.17c1.93,0,1.93-3,0-3s-1.93,3,0,3h0Z"/>
  <path class="cls-6" d="M48.45,28.4c1.93,0,1.93-3,0-3s-1.93,3,0,3h0Z"/>
  <path class="cls-3" d="M35.14,25.1c1.93,0,1.93-3,0-3s-1.93,3,0,3h0Z"/>
  <path class="cls-3" d="M48.2,20.21c1.93,0,1.93-3,0-3s-1.93,3,0,3h0Z"/>
  <path class="cls-1" d="M40.28,23.91c1.93,0,1.93-3,0-3s-1.93,3,0,3h0Z"/>
  <path class="cls-4" d="M44.59,24c1.93,0,1.93-3,0-3s-1.93,3,0,3h0Z"/>
  <path class="cls-1" d="M35.57,33.72c1.93,0,1.93-3,0-3s-1.93,3,0,3h0Z"/>
  <path class="cls-6" d="M35,20.15c1.93,0,1.93-3,0-3s-1.93,3,0,3h0Z"/>
  <path class="cls-4" d="M39.64,19.41c1.93,0,1.93-3,0-3s-1.93,3,0,3h0Z"/>
  <path class="cls-3" d="M43.35,32.2c1.93,0,1.93-3,0-3s-1.93,3,0,3h0Z"/>
</svg>