<?xml version="1.0" encoding="UTF-8"?>
<svg id="_レイヤー_1" data-name="レイヤー 1" xmlns="http://www.w3.org/2000/svg" viewBox="0 0 600 60">
  <defs>
    <style>
      .cls-1 {
        fill: #ed1c24;
      }

      .cls-1, .cls-2, .cls-3, .cls-4, .cls-5, .cls-6, .cls-7, .cls-8, .cls-9 {
        stroke-width: 0px;
      }

      .cls-2 {
        fill: #6bb93f;
      }

      .cls-3 {
        fill: #fbb03b;
      }

      .cls-4 {
        fill: #e71f19;
      }

      .cls-5 {
        fill: #3fa9f5;
      }

      .cls-6 {
        fill: #7ac943;
      }

      .cls-7 {
        fill: #d9e021;
      }

      .cls-8 {
        fill: red;
      }

      .cls-9 {
        fill: #f29438;
      }
    </style>
  </defs>
  <g>
    <path class="cls-5" d="M402.56,36.32l4.59,7.19,2.3,3.6,1.11,1.73c.43.68.76,1.34,1.6,1.52,1.44.31,2.5-1.09,3.42-1.97s2.32-1.81,2.75-3.02c.52-1.48-.53-2.68-1.33-3.82s-1.64-2.35-2.46-3.52-1.7-2.22-2.77-3.22c-.93-.86-1.19-2.21-2.1-3.12-1.35-1.38-3.48.74-2.12,2.12.45.46.66,1.09.96,1.65.34.63.79,1.18,1.32,1.65,1.2,1.05,2.02,2.31,2.93,3.61.49.69.97,1.39,1.46,2.08.24.35.49.69.73,1.04.11.16.26.52.43.63l.1.15.05-.33c-.05-.04-1.59,1.52-1.74,1.66-.34.32-.67.64-1.01.96-.16.15-.44.52-.62.56h.8l-.2-.03.9.69c-2.84-4.44-5.67-8.88-8.51-13.32-1.04-1.62-3.63-.12-2.59,1.51h0Z"/>
    <path class="cls-3" d="M393.24,31.99c-3.13-1.97-6.41-6.63-4.76-10.48.84-1.96,2.63-3.64,4.25-4.97s3.5-2.36,5.55-2.76c4.33-.85,7.71,1.64,9.4,5.48,1.47,3.34,2.49,8.46-.37,11.35-1.65,1.67-4.02,2.37-6.3,2.65-1.3.16-2.62.21-3.94.25-.98.03-2.31.17-3.14-.47-1.51-1.17-3.64.94-2.12,2.12,2.26,1.76,5.19,1.42,7.89,1.23s5.57-.7,7.94-2.22c4.93-3.17,5.11-9.17,3.46-14.28s-5.28-9.16-10.8-9.28c-5.52-.12-10.82,3.74-13.76,8.21-3.62,5.52.18,12.61,5.18,15.76,1.64,1.03,3.14-1.56,1.51-2.59h0Z"/>
    <path class="cls-5" d="M401.43,18.45l-.13.06c.14-.03.15-.04.03-.01-.1.01-.11.02-.03.02.11,0,.08,0-.11-.01,0,0,.21.07.23.07-.2-.08-.08-.03.04.05.09.06.18.12.27.18-.12-.09-.08-.07,0,.02.15.13.29.27.43.41.3.31.59.62.87.94.13.15.27.31.4.47.07.08.19.24.06.07.07.09.13.18.2.27.23.33.44.67.61,1.02.06.11.11.26.03.06.03.08.06.16.09.24.07.21.12.42.16.63.03.16,0,.13,0,0,0,.11.02.23.02.34s0,.23-.01.35c0,.14-.03.16,0,.02-.05.23-.1.45-.18.67-.04.11-.08.16-.01.03-.07.12-.13.25-.2.37-.4.68-.18,1.68.54,2.05s1.63.18,2.05-.54c1.35-2.27.85-4.93-.67-6.97-.67-.9-1.41-1.81-2.26-2.54-.52-.45-1.09-.85-1.76-1.05-.76-.24-1.48-.11-2.19.21s-.95,1.42-.54,2.05c.48.74,1.29.89,2.05.54h0Z"/>
  </g>
  <g>
    <path class="cls-8" d="M271.37,42.84l.02-10.71c0-1.73-.02-3.46.01-5.18.03-1.48.09-3.14.97-4.4s2.27-1.76,3.68-1.37c1.15.32,2.14,1.27,2.1,2.52-.13,3.58-4.78,2.09-6.94,1.81-1.43-.18-1.42,2.07,0,2.25,2.82.36,6.23,1.46,8.22-1.25,1.58-2.15,1.13-5.11-1.04-6.67s-5.48-1.3-7.35.78c-2.2,2.44-1.89,6.01-1.9,9.06l-.02,13.16c0,1.45,2.25,1.45,2.25,0h0Z"/>
    <path class="cls-6" d="M281.16,21.69c-.38,2.38-.6,4.77-.6,7.18,0,2.09.18,4.36,1.9,5.78,1.52,1.26,4,2.64,5.69.91.73-.74,1.11-1.78,1.45-2.75.36-1.03.62-2.11.79-3.19.4-2.53.43-5.09.42-7.65,0-1.45-2.25-1.45-2.25,0,0,2.35.04,4.73-.34,7.05-.19,1.16-.46,2.31-.87,3.41-.21.56-.55,1.81-1.3,1.7-.48-.07-.99-.45-1.4-.7s-.85-.52-1.15-.92c-.57-.76-.65-1.81-.68-2.73-.08-2.51.12-5.04.51-7.51.1-.6-.15-1.21-.79-1.38-.54-.15-1.29.18-1.38.79h0Z"/>
    <path class="cls-3" d="M294.48,21.7c-1.5,4.91-2.24,10.05-2.2,15.18.01,1.45,2.26,1.45,2.25,0-.04-4.95.67-9.85,2.12-14.58.42-1.39-1.75-1.98-2.17-.6h0Z"/>
    <path class="cls-5" d="M302.37,23.35l-.22,6.11c-.06,1.59-.17,3.47,1.07,4.68.64.63,1.46.82,2.31.96.39.06.74.13,1.09.31.46.24.96.42,1.49.28.84-.22,1.31-1.03,1.46-1.83.18-.99.26-2,.38-3,.29-2.34.59-4.68.88-7.02.08-.6-.57-1.12-1.12-1.12-.67,0-1.05.52-1.12,1.12-.28,2.23-.56,4.46-.84,6.68-.12.95-.16,1.94-.37,2.87-.02.09-.05.18-.08.27,0-.02,0-.03.03-.04.48,0,.63-.05.44-.17-.1-.06-.21-.12-.32-.16-.42-.2-.85-.3-1.31-.37-.66-.11-1.33-.13-1.59-.82s-.18-1.41-.16-2.1c.08-2.22.16-4.44.24-6.66.05-1.45-2.2-1.45-2.25,0h0Z"/>
    <path class="cls-1" d="M313.86,21.75v13.36c0,1.45,2.25,1.45,2.25,0v-.52c0-1.45-2.25-1.45-2.25,0v.52h2.25v-13.36c0-1.45-2.25-1.45-2.25,0h0Z"/>
    <path class="cls-1" d="M315.85,23.38c.21.04.42.08.62.15.09.03.19.07.28.1.12.05.11.04-.03-.01.05.02.1.05.15.07.18.09.35.19.52.3.06.04.16.09.21.15-.18-.21.05.05.1.09.15.13.29.27.42.42.04.04.07.09.11.13.08.1.07.09-.02-.03.06.05.1.15.14.21.06.09.12.19.17.29.02.04.13.31.05.07.03.08.13.27.11.36-.02-.15-.02-.16,0-.03,0,.11,0,.12,0,.03.02-.09.01-.08-.01.03.06-.12.06-.13,0-.03.1-.12.12-.14.04-.05-.09.08-.07.07.05-.03,0,.02-.19.12-.2.12.15-.06.17-.07.05-.02-.05.02-.1.03-.15.05-.18.05-.36.08-.55.11.22-.03-.09,0-.14.01-.15.02-.29.03-.44.04-.51.04-1.03.05-1.54.04-.26,0-.51-.02-.77-.04-.15-.01-.29-.03-.44-.04-.07,0-.15-.02-.22-.03.12.02.11.01-.03,0-.31-.05-.58-.05-.87.11-.23.14-.46.4-.52.67-.12.53.16,1.29.79,1.38,1.05.15,2.09.23,3.15.18.95-.05,2.02-.09,2.87-.56,1.04-.57,1.38-1.81.98-2.89-.32-.85-.89-1.62-1.58-2.2-.79-.65-1.7-1.13-2.71-1.31-.58-.1-1.24.16-1.38.79-.12.55.17,1.27.79,1.38h0Z"/>
    <path class="cls-7" d="M322.83,34.26c1.52-.7,1.63-2.58,1.31-4-.15-.66-.43-1.36-.17-2.03-.02.06.1-.19.13-.24.04-.06.17-.27.15-.24.18-.25.41-.47.63-.69.43-.43.88-.84,1.27-1.31.21-.26.43-.53.6-.82.12-.21.41-.66.43-.88,0,.08-.25-.08-.04.02.19.08.29.24.38.47.29.79.31,1.72.42,2.55.29,2.07.57,4.15.86,6.22.08.6.85.93,1.38.79.65-.18.87-.78.79-1.38-.28-2.01-.55-4.01-.83-6.02-.24-1.73-.29-4.14-2.32-4.75-.9-.27-1.84,0-2.41.75-.41.54-.6,1.22-1.02,1.69-.96,1.08-2.19,1.95-2.63,3.4-.32,1.04-.02,2.08.21,3.1.08.35.13.67.08.94-.03.18-.07.22-.11.34-.09.26-.08.1-.05.07.09-.09-.18.1-.19.1-.55.25-.69,1.05-.4,1.54.33.57.99.66,1.54.4h0Z"/>
    <path class="cls-7" d="M324.62,29.98h5.27c.59,0,1.15-.52,1.12-1.12s-.49-1.12-1.12-1.12h-5.27c-.59,0-1.15.52-1.12,1.12s.49,1.12,1.12,1.12h0Z"/>
    <path class="cls-3" d="M295.72,23.07c.2-.02.41-.04.62-.04.1,0,.19,0,.29.01.03,0,.13,0,.16.02-.15-.02-.18-.03-.09-.01.03,0,.05,0,.08.01.2.04.4.09.6.15.05.02.1.04.16.05.13.04.03.07-.04-.02.05.06.22.1.29.14.1.05.19.11.28.16.04.02.27.2.15.1s.1.09.13.12c.09.08.17.17.25.26.03.03.12.17.04.04s0,0,0,.02c.05.09.11.17.16.26.02.04.04.09.07.13.05.1-.02.05,0,0l-.03-.07s.03.07.04.1c.02.06.04.12.05.18.03.1.04.19.06.29.04.2,0-.25,0,.03,0,.09,0,.17,0,.26,0,.05,0,.1,0,.15,0,.05-.06.24,0,.07.06-.18-.02.09-.03.14-.02.1-.05.19-.08.28,0,.02-.05.14-.05.14,0,0,.1-.21.04-.1-.05.09-.1.19-.15.29-.03.04-.05.08-.08.12-.07.11,0,0,0,0-.01,0,.08-.09-.03.02-.03.03-.07.07-.1.1-.03.03-.05.05-.08.07-.15.15.05-.05.06-.04,0,.03-.29.18-.32.2-.03.01-.09.06-.12.06.13,0,.13-.05.02-.02-.11.03-.22.06-.34.09-.2.05.2,0-.09.01-.13,0-.27.01-.4,0-.06,0-.12,0-.18-.01-.14,0-.05.02.03,0-.11.02-.3-.06-.41-.08-.26-.06-.52-.14-.77-.23-.06-.02-.12-.04-.18-.07-.03-.01-.27-.11-.13-.05.13.05-.06-.03-.09-.04-.07-.03-.15-.07-.22-.1-.26-.12-.51-.25-.76-.38-.52-.27-1.25-.15-1.54.4-.27.52-.15,1.25.4,1.54,1.14.6,2.33,1.12,3.62,1.25,1.21.12,2.52-.31,3.3-1.27s1.04-2.14.85-3.34-.9-2.13-1.85-2.81c-1.01-.72-2.39-1.02-3.61-.88-.58.07-1.15.47-1.12,1.12.02.55.5,1.2,1.12,1.12h0Z"/>
    <path class="cls-5" d="M305.94,35.04c1.45,0,1.45-2.25,0-2.25s-1.45,2.25,0,2.25h0Z"/>
  </g>
  <g>
    <path class="cls-6" d="M195.53,18.78c-.21-2.83,1.94-5.39,4.89-5.19,1.31.09,3.07.82,3.58,2.15s-1.25,3.33-1.98,4.37c-.49.69.16,1.72.97,1.69,2.05-.08,3.71,1.07,5.15,2.42s3.06,2.85,3.53,4.82c.23.97.25,1.98.25,2.97,0,.42.02.84-.09,1.24-.11.43-.11.44-.45.22-.8-.52-1.45-1.73-1.95-2.53-.61-.98-1.11-2.02-1.52-3.1-.31-.84-1.19-1.05-1.88-.5-1.06.84-1.6,2.08-1.6,3.42,0,1.45,2.24,1.45,2.25,0,0-.8.32-1.34.94-1.83l-1.88-.5c.56,1.5,1.25,2.94,2.15,4.27.73,1.08,1.63,2.51,2.88,3.03,1.11.46,2.3.01,2.89-1.02.64-1.12.54-2.57.48-3.8-.07-1.47-.29-2.94-.98-4.25-.65-1.24-1.72-2.3-2.69-3.29-2.01-2.06-4.47-3.94-7.49-3.82l.97,1.69c1.26-1.78,3.05-4.05,2.11-6.33-.83-2-2.97-3.23-5.04-3.51-4.31-.58-8.08,3.05-7.75,7.37.11,1.44,2.36,1.45,2.25,0h0Z"/>
    <path class="cls-6" d="M193.77,18.6c-3.74,2.76-6.41,6.88-7.2,11.49-.2,1.15-.49,2.58,0,3.68s1.85,1.77,2.96,1.06c.94-.61,1.76-1.68,2.46-2.54.84-1.02,1.51-2.08,2.01-3.3.23-.56-.25-1.24-.79-1.38-.64-.18-1.15.22-1.38.79-.67,1.65-1.97,2.98-3.2,4.23-.1.11-.2.21-.31.31l.29-.05s-.05-.37-.05-.37c-.02-.45.04-.91.1-1.36.11-.82.29-1.63.53-2.42.96-3.24,2.98-6.18,5.71-8.19.49-.36.73-.98.4-1.54-.28-.48-1.05-.77-1.54-.4h0Z"/>
    <path class="cls-6" d="M192.06,40.14c-1.41,2.15-1.5,4.82-1.46,7.31.01.85.26,1.66,1.16,1.95.57.18,1.27.21,1.86.23,1.29.05,2.64-.25,3.55-1.23.52-.56.85-1.22,1.14-1.91.31-.74.6-1.49.91-2.23.23-.56-.25-1.24-.79-1.38-.64-.18-1.16.22-1.38.79-.15.36-.29.72-.44,1.08-.07.18-.15.36-.22.54-.02.04-.17.43-.13.31-.11.26-.23.52-.37.76-.08.14-.16.28-.26.4.08-.1-.18.18-.22.21-.1.09-.12.1-.05.05-.05.03-.1.06-.15.09-.04.02-.36.16-.2.11-.15.05-.3.08-.45.12-.14.02-.15.03-.05.01-.08,0-.16.02-.24.02-.59.04-1.22,0-1.81-.1.11.02.11.01-.02-.01.18.08.31.21.39.39.02.13.02.12.01,0,0-.08,0-.17,0-.25,0-.3,0-.59,0-.89,0-.64.02-1.27.08-1.91.11-1.1.43-2.32,1.08-3.31.33-.51.1-1.24-.4-1.54-.55-.32-1.21-.11-1.54.4h0Z"/>
    <path class="cls-6" d="M202.58,43.45c-.16,1.63.35,3.36,1.47,4.57s3.11,1.86,4.57.88c.91-.61,1.24-1.65,1.06-2.7-.16-.95-.71-1.79-1.05-2.69-.7-1.84-1.06-3.76-1.08-5.73-.01-1.45-2.26-1.45-2.25,0,.01,1.65.24,3.31.69,4.91.23.81.53,1.6.86,2.38.22.51.7,1.2.63,1.78,0,.04-.1.19-.05.12-.09.11-.04.06-.17.11-.08.03-.33.06-.56.02-.31-.05-.77-.35-1.07-.67-.72-.79-.92-1.92-.81-2.98.06-.61-.56-1.12-1.12-1.12-.66,0-1.07.52-1.12,1.12h0Z"/>
    <path class="cls-5" d="M198.04,17.57c1.93,0,1.93-3,0-3s-1.93,3,0,3h0Z"/>
    <path class="cls-5" d="M201.67,18.47c1.93,0,1.93-3,0-3s-1.93,3,0,3h0Z"/>
    <path class="cls-5" d="M195.97,19.78c.16.75.75,1.43,1.44,1.74.4.18.8.3,1.25.3s.88-.12,1.27-.33c.24-.14.44-.4.52-.67s.04-.63-.11-.87c-.33-.52-.99-.71-1.54-.4-.05.03-.1.05-.15.08l.27-.11c-.11.05-.23.08-.35.09l.3-.04c-.14.02-.28.02-.42,0l.3.04c-.15-.02-.3-.06-.44-.12l.27.11c-.14-.06-.27-.14-.39-.23l.23.18c-.11-.09-.21-.19-.3-.3l.18.23c-.07-.1-.13-.2-.18-.31l.11.27c-.03-.08-.06-.16-.08-.24-.06-.27-.29-.54-.52-.67s-.6-.2-.87-.11-.53.26-.67.52c-.15.28-.18.56-.11.87h0Z"/>
    <path class="cls-3" d="M196.35,28.03c.11.14-.1-.19-.12-.23.09.18-.05-.2-.06-.24-.02-.13-.03-.14-.01-.02,0-.07-.01-.15-.01-.22,0-.04.03-.47,0-.25.08-.52.26-.93.55-1.22.46-.45.86-.73,1.5-1.03.14-.07.43-.17.67-.26.33-.11.66-.21.99-.28.27-.06.52-.11.87-.06-.19-.03.27.09.19.05s.32.19.16.07c.29.2.36.34.52.61.16.25.31.55.42.81.13.3.23.63.28.95,0-.07,0-.03.01.12,0,.09,0,.19,0,.28,0,.08,0,.17-.01.25.02-.12.01-.1-.01.03-.01.04-.14.43-.06.26-.06.13-.13.27-.22.38.11-.15-.15.15-.19.18.15-.12-.19.09-.23.11-.55.26-.69,1.05-.4,1.54.33.56.99.66,1.54.4,1.35-.63,1.98-2.23,1.82-3.65-.17-1.5-.93-3.22-2.2-4.11s-3-.51-4.37,0-2.7,1.27-3.46,2.55c-.86,1.46-.82,3.25.24,4.58.38.47,1.19.4,1.59,0,.47-.47.38-1.12,0-1.59h0Z"/>
    <path class="cls-3" d="M195.12,29.03c-2.27,1.27-5.42,3.32-5.07,6.36.17,1.46,1.41,2.72,2.95,2.17.56-.2.99-.61,1.39-1.03.18-.19.35-.4.54-.57.05-.04.05-.04.16-.12,0,0,.14-.03.05-.02l-1.12-1.12c-.08,2.12-.28,4.27-.24,6.39.02.97.48,1.8,1.47,2.05s2.09.06,3.05.05c.66,0,1.05-.51,1.12-1.12.2-1.68.43-3.36.7-5.03.09-.6-.15-1.21-.79-1.38-.53-.15-1.29.18-1.38.79-.3,1.87-.56,3.75-.78,5.63l1.12-1.12c-.38,0-.76,0-1.13.01-.3,0-.95-.12-1.22.01-.19.09-.02-.06-.02.1,0,.46.1.06.1-.05,0-.43.03-.85.05-1.28.06-1.68.13-3.35.19-5.03.02-.59-.53-1.15-1.12-1.12-1.05.05-1.71.69-2.39,1.41-.13.14-.26.28-.41.4-.05.04-.11.06-.12.06.02-.02.15,0,.16.03,0-.13-.1-.24-.11-.39-.06-.83.64-1.7,1.24-2.26.81-.76,1.79-1.32,2.75-1.85,1.26-.71.13-2.65-1.14-1.94h0Z"/>
    <path class="cls-3" d="M197.72,41.45c.46.99,1.12,1.99,2.22,2.32,1.34.4,2.6-.46,3.32-1.53.62-.92.83-2.07.92-3.16.09-1.22-.02-2.4.33-3.54.17-.56-.21-1.25-.79-1.38-.61-.14-1.2.18-1.38.79-.32,1.04-.34,2.13-.37,3.21,0,.25-.01.51-.03.76,0,.1-.01.19-.02.29,0,0-.04.36-.01.16-.05.42-.16.83-.3,1.22-.06.18,0,0-.04.09-.04.08-.08.17-.13.25-.06.1-.12.19-.18.28.11-.15-.11.11-.11.11-.15.15-.16.17-.35.26.11-.05-.17.05-.19.05.18-.02-.25-.08.04,0-.03,0-.27-.1-.14-.04s-.09-.07-.12-.09c.19.13-.05-.06-.07-.08-.02-.02-.19-.22-.11-.12s-.08-.12-.09-.14c-.06-.09-.11-.18-.16-.27-.1-.18-.19-.37-.28-.56-.25-.55-1.05-.69-1.54-.4-.57.33-.66.99-.4,1.54h0Z"/>
    <path class="cls-3" d="M202.98,31.27c.13-.03.27-.05.4-.08.07-.01.14-.02.2-.03-.13.02-.12.02,0,0,.24-.02.48-.04.72-.03.06,0,.46.06.2,0,.13.03.25.06.37.1-.18-.05,0,0,.08.04.06.03.11.07.16.1-.1-.08-.1-.07,0,.02.09.1.1.11.04.04.04.06.09.13.12.2.06.1.11.21.16.31.15.31.28.63.41.94.23.54.54,1.21.7,1.63.05.13.1.27.12.41,0-.1,0-.08,0,.06,0,.15,0,.16,0,.03-.04.12-.04.13.01.02-.02.05-.04.09-.07.14-.03.04-.23.3-.09.15-.19.22-.41.4-.62.58l-.08.07c.09-.07.08-.06-.03.01.15-.06.31-.07.46-.03.18.09.22.1.12.04.47.3-.26-.17.15.14-.04-.03-.09-.12-.11-.16-.14-.2-.27-.41-.43-.6-.38-.42-1.02-.68-1.57-.45s-.99.76-.79,1.38c.17.52.8,1.03,1.38.79.11-.04.09,0-.15,0-.1,0-.21-.02-.3-.06s-.16-.09-.24-.15c.03.02.05.06.08.08-.1-.11-.12-.17-.03-.03.05.07.1.15.15.22.29.42.64.83,1.16.96.77.19,1.36-.23,1.92-.7.4-.34.8-.74,1.03-1.21.32-.66.39-1.35.19-2.06-.18-.63-.5-1.24-.76-1.84-.48-1.1-.86-2.39-1.99-3s-2.45-.45-3.67-.21c-.58.12-.96.83-.79,1.38.2.61.76.91,1.38.79h0Z"/>
    <path class="cls-6" d="M197.67,28.72c1.45,0,1.45-2.25,0-2.25s-1.45,2.25,0,2.25h0Z"/>
    <path class="cls-6" d="M200.84,28.49c1.45,0,1.45-2.25,0-2.25s-1.45,2.25,0,2.25h0Z"/>
    <path class="cls-6" d="M199.26,30.73c1.45,0,1.45-2.25,0-2.25s-1.45,2.25,0,2.25h0Z"/>
    <path class="cls-5" d="M181.32,20.25c-.01,10.45-.03,20.91-.04,31.36,0,1.93,3,1.93,3,0,.01-10.45.03-20.91.04-31.36,0-1.93-3-1.93-3,0h0Z"/>
    <path class="cls-5" d="M215.9,20.48c-.08,9.92.02,19.84.27,29.75.05,1.93,3.05,1.93,3,0-.26-9.92-.35-19.84-.27-29.75.01-1.93-2.99-1.93-3,0h0Z"/>
    <path class="cls-5" d="M182.4,53.22c2.19,1.22,4.97.77,7.37.73,3.02-.05,6.05-.1,9.07-.16,6.03-.1,12.07-.21,18.1-.31,1.93-.03,1.93-3.03,0-3-5.7.1-11.4.2-17.11.29-2.8.05-5.59.1-8.39.14-1.36.02-2.72.05-4.07.07-1.14.02-2.43.21-3.46-.36-1.69-.94-3.2,1.65-1.51,2.59h0Z"/>
    <path class="cls-8" d="M183.81,20.52c5.06-4.42,10.5-8.36,16.26-11.82,1.65-.99.15-3.59-1.51-2.59-5.97,3.59-11.62,7.71-16.86,12.29-1.46,1.27.67,3.39,2.12,2.12h0Z"/>
    <path class="cls-8" d="M199.13,8.98c3.3.84,6.18,2.72,8.8,4.85,2.93,2.36,5.73,4.88,8.58,7.33,1.46,1.25,3.59-.86,2.12-2.12-3-2.59-5.95-5.26-9.06-7.72-2.9-2.29-6.03-4.31-9.65-5.23-1.87-.48-2.67,2.42-.8,2.89h0Z"/>
  </g>
  <g>
    <path class="cls-2" d="M484.31,23.31c0,8.88-.36,17.76-1.06,26.61-.15,1.93,2.85,1.92,3,0,.7-8.85,1.05-17.73,1.06-26.61,0-1.93-3-1.93-3,0h0Z"/>
    <path class="cls-2" d="M516.23,24.06c.12,8.8-.12,17.6-.74,26.37-.14,1.93,2.86,1.92,3,0,.62-8.78.87-17.57.74-26.37-.03-1.93-3.03-1.93-3,0h0Z"/>
    <path class="cls-2" d="M484.56,51.01c10.78-.11,21.57.12,32.34.69,1.93.1,1.92-2.9,0-3-10.77-.57-21.55-.8-32.34-.69-1.93.02-1.93,3.02,0,3h0Z"/>
    <path class="cls-4" d="M494.46,41.96c.33-3.45-.28-6.95.17-10.39.32-2.43,1.31-5.14,3.53-6.43s6.03-1.28,7.85.58c.69.71,1.17,2.04.43,2.88-.78.89-2.33.86-3.4.91-1.91.07-3.89.29-5.8.19-.68-.04-1.2-.54-1.9-.61-.98-.09-1.65.41-1.99,1.31-.68,1.81,2.22,2.59,2.89.8l.06-.15-.69.9.12-.07-.76.2s.47.24.61.3c.41.18.8.25,1.24.29,1,.1,2.03-.01,3.03-.05,1.9-.06,3.87,0,5.75-.37,1.66-.33,3.18-1.29,3.84-2.89s.35-3.52-.63-4.93c-2.08-3.01-6.59-3.6-9.91-2.78s-5.68,3.68-6.69,6.94c-1.34,4.35-.33,8.92-.76,13.37-.08.81.75,1.5,1.5,1.5.88,0,1.42-.69,1.5-1.5h0Z"/>
    <path class="cls-9" d="M486.53,22.83c5.2-3.74,10.16-7.81,14.84-12.2l-1.82.23c3.12,2,6.28,3.96,9.37,6.02,2.68,1.79,5.31,3.77,7.2,6.42,1.11,1.56,3.72.06,2.59-1.51-2.04-2.86-4.7-5.06-7.59-7.03-3.29-2.25-6.7-4.33-10.05-6.48-.57-.37-1.34-.21-1.82.23-4.49,4.21-9.23,8.13-14.23,11.73-1.55,1.12-.06,3.72,1.51,2.59h0Z"/>
  </g>
  <g>
    <path class="cls-3" d="M91.55,26.55c.73-4.22.74-8.46.05-12.69-.13-.8-1.12-1.25-1.85-1.05-.85.23-1.18,1.04-1.05,1.85.6,3.66.58,7.45-.05,11.1-.14.8.21,1.62,1.05,1.85.72.2,1.71-.25,1.85-1.05h0Z"/>
    <path class="cls-3" d="M90.27,15.33c6.85-.78,13.74-1.12,20.64-1.04,1.93.02,1.93-2.98,0-3-6.89-.08-13.78.26-20.64,1.04-.81.09-1.49.62-1.5,1.5,0,.74.7,1.59,1.5,1.5h0Z"/>
    <path class="cls-3" d="M89.5,41.36v2.65c.02,1.03.96,1.63,1.91,1.45.31-.06.61-.11.92-.16.17-.03.33-.05.5-.07-.27.04.1-.01.17-.02.6-.07,1.19-.12,1.79-.14,1.22-.05,2.45-.02,3.66.1.78.08,1.53-.74,1.5-1.5-.04-.88-.66-1.42-1.5-1.5-2.62-.26-5.26-.1-7.84.4l1.9,1.45v-2.65c-.01-.78-.7-1.54-1.51-1.5s-1.5.66-1.5,1.5h0Z"/>
    <path class="cls-6" d="M80.62,39.75c3.98-2.71,8.26-4.95,12.77-6.64.76-.28,1.28-1.01,1.05-1.85-.2-.73-1.08-1.33-1.85-1.05-4.76,1.78-9.29,4.09-13.49,6.94-.67.45-.97,1.32-.54,2.05.39.66,1.38,1,2.05.54h0Z"/>
    <path class="cls-6" d="M87.02,32.64l7.02.04-1.3-2.26c-1.31,1.78-2.63,3.55-3.94,5.33-.47.63-.13,1.7.54,2.05.78.41,1.55.14,2.05-.54,1.31-1.78,2.63-3.55,3.94-5.33.31-.42.25-1.09,0-1.51-.27-.46-.77-.74-1.3-.74l-7.02-.04c-.78,0-1.54.69-1.5,1.5s.66,1.49,1.5,1.5h0Z"/>
    <path class="cls-8" d="M111.92,11.87c-4.69,1.86-9.19,4.13-13.45,6.84-1.62,1.03-.12,3.63,1.51,2.59,4.03-2.57,8.29-4.77,12.73-6.54.75-.3,1.28-1,1.05-1.85-.2-.72-1.09-1.35-1.85-1.05h0Z"/>
    <path class="cls-8" d="M97.55,20.24c.88,8.96,1.73,17.95,1.1,26.96-.08,1.16,1.33,1.83,2.26,1.3,4.22-2.43,8.61-4.56,13.15-6.35,1.78-.7,1-3.6-.8-2.89-4.78,1.88-9.41,4.09-13.86,6.65l2.26,1.3c.63-9-.23-18-1.1-26.96-.19-1.9-3.19-1.92-3,0h0Z"/>
    <path class="cls-8" d="M111.7,13.76c0,4.39,0,8.8.49,13.17.43,3.83,1.76,8.23.13,11.94-.77,1.75,1.81,3.28,2.59,1.51,1.79-4.07.96-8.24.4-12.49-.62-4.68-.61-9.42-.61-14.14,0-1.93-3-1.93-3,0h0Z"/>
  </g>
</svg>