<?xml version="1.0" encoding="UTF-8"?>
<svg id="_レイヤー_1" data-name="レイヤー 1" xmlns="http://www.w3.org/2000/svg" viewBox="0 0 600 60">
  <defs>
    <style>
      .cls-1 {
        fill: #ed1c24;
      }

      .cls-1, .cls-2, .cls-3, .cls-4, .cls-5, .cls-6, .cls-7 {
        stroke-width: 0px;
      }

      .cls-2 {
        fill: #fbb03b;
      }

      .cls-3 {
        fill: #3fa9f5;
      }

      .cls-4 {
        fill: #7ac943;
      }

      .cls-5 {
        fill: #d9e021;
      }

      .cls-6 {
        fill: red;
      }

      .cls-7 {
        fill: #f29438;
      }
    </style>
  </defs>
  <g>
    <path class="cls-3" d="M403.56,36.32l4.59,7.19,2.3,3.6,1.11,1.73c.43.68.76,1.34,1.6,1.52,1.44.31,2.5-1.09,3.42-1.97s2.32-1.81,2.75-3.02c.52-1.48-.53-2.68-1.33-3.82s-1.64-2.35-2.46-3.52-1.7-2.22-2.77-3.22c-.93-.86-1.19-2.21-2.1-3.12-1.35-1.38-3.48.74-2.12,2.12.45.46.66,1.09.96,1.65.34.63.79,1.18,1.32,1.65,1.2,1.05,2.02,2.31,2.93,3.61.49.69.97,1.39,1.46,2.08.24.35.49.69.73,1.04.11.16.26.52.43.63l.1.15.05-.33c-.05-.04-1.59,1.52-1.74,1.66-.34.32-.67.64-1.01.96-.16.15-.44.52-.62.56h.8l-.2-.03.9.69c-2.84-4.44-5.67-8.88-8.51-13.32-1.04-1.62-3.63-.12-2.59,1.51h0Z"/>
    <path class="cls-2" d="M394.24,31.99c-3.13-1.97-6.41-6.63-4.76-10.48.84-1.96,2.63-3.64,4.25-4.97s3.5-2.36,5.55-2.76c4.33-.85,7.71,1.64,9.4,5.48,1.47,3.34,2.49,8.46-.37,11.35-1.65,1.67-4.02,2.37-6.3,2.65-1.3.16-2.62.21-3.94.25-.98.03-2.31.17-3.14-.47-1.51-1.17-3.64.94-2.12,2.12,2.26,1.76,5.19,1.42,7.89,1.23s5.57-.7,7.94-2.22c4.93-3.17,5.11-9.17,3.46-14.28s-5.28-9.16-10.8-9.28-10.82,3.74-13.76,8.21c-3.62,5.52.18,12.61,5.18,15.76,1.64,1.03,3.14-1.56,1.51-2.59h0Z"/>
    <path class="cls-3" d="M402.43,18.45l-.13.06c.14-.03.15-.04.03-.01-.1.01-.11.02-.03.02.11,0,.08,0-.11-.01,0,0,.21.07.23.07-.2-.08-.08-.03.04.05.09.06.18.12.27.18-.12-.09-.08-.07,0,.02.15.13.29.27.43.41.3.31.59.62.87.94.13.15.27.31.4.47.07.08.19.24.06.07.07.09.13.18.2.27.23.33.44.67.61,1.02.06.11.11.26.03.06.03.08.06.16.09.24.07.21.12.42.16.63.03.16,0,.13,0,0,0,.11.02.23.02.34s0,.23-.01.35c0,.14-.03.16,0,.02-.05.23-.1.45-.18.67-.04.11-.08.16-.01.03-.07.12-.13.25-.2.37-.4.68-.18,1.68.54,2.05s1.63.18,2.05-.54c1.35-2.27.85-4.93-.67-6.97-.67-.9-1.41-1.81-2.26-2.54-.52-.45-1.09-.85-1.76-1.05-.76-.24-1.48-.11-2.19.21s-.95,1.42-.54,2.05c.48.74,1.29.89,2.05.54h0Z"/>
  </g>
  <g>
    <path class="cls-3" d="M186.84,22.25c-2.65,2.1-5.25,4.25-7.82,6.46-1.26,1.08-2.5,2.17-3.74,3.27-.59.53-1.21,1.02-1.33,1.86-.1.72.23,1.36.76,1.83,1.04.91,2.48,1.47,3.63,2.25s2.18,1.77,3.12,2.85,1.93,2.03,3.3,2.58c.8.32,2.02.45,2.41,1.31.8,1.75,3.39.23,2.59-1.51-.56-1.23-1.76-1.8-2.97-2.24-1.27-.46-2.09-.96-2.99-2-.99-1.15-2.01-2.16-3.23-3.07-.65-.48-1.33-.92-2.02-1.34-.3-.18-.6-.36-.9-.53-.2-.12-.4-.23-.6-.34-.33-.25-.39-.24-.17.03l-.15,1.16c.21-.47.89-.88,1.27-1.22.5-.44.99-.88,1.49-1.31,1.05-.91,2.1-1.82,3.17-2.72,2.08-1.75,4.18-3.47,6.31-5.17.64-.51.52-1.59,0-2.12-.62-.63-1.49-.5-2.12,0h0Z"/>
    <path class="cls-3" d="M178.25,36.04c4.95.74,9.94,1.05,14.94.83,2.44-.11,4.88-.34,7.3-.67,2.25-.31,4.59-.61,6.74-1.39,1.91-.69,3.59-1.75,4.8-3.41s1.79-3.65,2.21-5.6c.82-3.78,1.02-8.32-2.43-10.89-1.76-1.31-3.99-1.72-6.14-1.85-2.71-.16-5.42.09-8.09.58-1.9.35-1.09,3.24.8,2.89s3.99-.53,6-.51c1.62.02,3.35.1,4.84.81,3.27,1.55,2.71,5.64,2.04,8.56-.36,1.57-.81,3.22-1.83,4.5-1.07,1.35-2.69,2.01-4.32,2.43-3.85,1.01-7.96,1.38-11.93,1.55-4.72.21-9.47-.03-14.14-.72-1.89-.28-2.7,2.61-.8,2.89h0Z"/>
  </g>
  <g>
    <path class="cls-6" d="M274.37,43.84l.02-10.71c0-1.73-.02-3.46.01-5.18.03-1.48.09-3.14.97-4.4s2.27-1.76,3.68-1.37c1.15.32,2.14,1.27,2.1,2.52-.13,3.58-4.78,2.09-6.94,1.81-1.43-.18-1.42,2.07,0,2.25,2.82.36,6.23,1.46,8.22-1.25,1.58-2.15,1.13-5.11-1.04-6.67s-5.48-1.3-7.35.78c-2.2,2.44-1.89,6.01-1.9,9.06l-.02,13.16c0,1.45,2.25,1.45,2.25,0h0Z"/>
    <path class="cls-4" d="M284.16,22.69c-.38,2.38-.6,4.77-.6,7.18,0,2.09.18,4.36,1.9,5.78,1.52,1.26,4,2.64,5.69.91.73-.74,1.11-1.78,1.45-2.75.36-1.03.62-2.11.79-3.19.4-2.53.43-5.09.42-7.65,0-1.45-2.25-1.45-2.25,0,0,2.35.04,4.73-.34,7.05-.19,1.16-.46,2.31-.87,3.41-.21.56-.55,1.81-1.3,1.7-.48-.07-.99-.45-1.4-.7s-.85-.52-1.15-.92c-.57-.76-.65-1.81-.68-2.73-.08-2.51.12-5.04.51-7.51.1-.6-.15-1.21-.79-1.38-.54-.15-1.29.18-1.38.79h0Z"/>
    <path class="cls-2" d="M297.48,22.7c-1.5,4.91-2.24,10.05-2.2,15.18.01,1.45,2.26,1.45,2.25,0-.04-4.95.67-9.85,2.12-14.58.42-1.39-1.75-1.98-2.17-.6h0Z"/>
    <path class="cls-3" d="M305.37,24.35l-.22,6.11c-.06,1.59-.17,3.47,1.07,4.68.64.63,1.46.82,2.31.96.39.06.74.13,1.09.31.46.24.96.42,1.49.28.84-.22,1.31-1.03,1.46-1.83.18-.99.26-2,.38-3,.29-2.34.59-4.68.88-7.02.08-.6-.57-1.12-1.12-1.12-.67,0-1.05.52-1.12,1.12-.28,2.23-.56,4.46-.84,6.68-.12.95-.16,1.94-.37,2.87-.02.09-.05.18-.08.27,0-.02,0-.03.03-.04.48,0,.63-.05.44-.17-.1-.06-.21-.12-.32-.16-.42-.2-.85-.3-1.31-.37-.66-.11-1.33-.13-1.59-.82s-.18-1.41-.16-2.1c.08-2.22.16-4.44.24-6.66.05-1.45-2.2-1.45-2.25,0h0Z"/>
    <path class="cls-1" d="M316.86,22.75v13.36c0,1.45,2.25,1.45,2.25,0v-.52c0-1.45-2.25-1.45-2.25,0v.52h2.25v-13.36c0-1.45-2.25-1.45-2.25,0h0Z"/>
    <path class="cls-1" d="M318.85,24.38c.21.04.42.08.62.15.09.03.19.07.28.1.12.05.11.04-.03-.01.05.02.1.05.15.07.18.09.35.19.52.3.06.04.16.09.21.15-.18-.21.05.05.1.09.15.13.29.27.42.42.04.04.07.09.11.13.08.1.07.09-.02-.03.06.05.1.15.14.21.06.09.12.19.17.29.02.04.13.31.05.07.03.08.13.27.11.36-.02-.15-.02-.16,0-.03,0,.11,0,.12,0,.03.02-.09.01-.08-.01.03.06-.12.06-.13,0-.03.1-.12.12-.14.04-.05-.09.08-.07.07.05-.03,0,.02-.19.12-.2.12.15-.06.17-.07.05-.02-.05.02-.1.03-.15.05-.18.05-.36.08-.55.11.22-.03-.09,0-.14.01-.15.02-.29.03-.44.04-.51.04-1.03.05-1.54.04-.26,0-.51-.02-.77-.04-.15-.01-.29-.03-.44-.04-.07,0-.15-.02-.22-.03.12.02.11.01-.03,0-.31-.05-.58-.05-.87.11-.23.14-.46.4-.52.67-.12.53.16,1.29.79,1.38,1.05.15,2.09.23,3.15.18.95-.05,2.02-.09,2.87-.56,1.04-.57,1.38-1.81.98-2.89-.32-.85-.89-1.62-1.58-2.2-.79-.65-1.7-1.13-2.71-1.31-.58-.1-1.24.16-1.38.79-.12.55.17,1.27.79,1.38h0Z"/>
    <path class="cls-5" d="M325.83,35.26c1.52-.7,1.63-2.58,1.31-4-.15-.66-.43-1.36-.17-2.03-.02.06.1-.19.13-.24.04-.06.17-.27.15-.24.18-.25.41-.47.63-.69.43-.43.88-.84,1.27-1.31.21-.26.43-.53.6-.82.12-.21.41-.66.43-.88,0,.08-.25-.08-.04.02.19.08.29.24.38.47.29.79.31,1.72.42,2.55.29,2.07.57,4.15.86,6.22.08.6.85.93,1.38.79.65-.18.87-.78.79-1.38-.28-2.01-.55-4.01-.83-6.02-.24-1.73-.29-4.14-2.32-4.75-.9-.27-1.84,0-2.41.75-.41.54-.6,1.22-1.02,1.69-.96,1.08-2.19,1.95-2.63,3.4-.32,1.04-.02,2.08.21,3.1.08.35.13.67.08.94-.03.18-.07.22-.11.34-.09.26-.08.1-.05.07.09-.09-.18.1-.19.1-.55.25-.69,1.05-.4,1.54.33.57.99.66,1.54.4h0Z"/>
    <path class="cls-5" d="M327.62,30.98h5.27c.59,0,1.15-.52,1.12-1.12s-.49-1.12-1.12-1.12h-5.27c-.59,0-1.15.52-1.12,1.12s.49,1.12,1.12,1.12h0Z"/>
    <path class="cls-2" d="M298.72,24.07c.2-.02.41-.04.62-.04.1,0,.19,0,.29.01.03,0,.13,0,.16.02-.15-.02-.18-.03-.09-.01.03,0,.05,0,.08.01.2.04.4.09.6.15.05.02.1.04.16.05.13.04.03.07-.04-.02.05.06.22.1.29.14.1.05.19.11.28.16.04.02.27.2.15.1s.1.09.13.12c.09.08.17.17.25.26.03.03.12.17.04.04s0,0,0,.02c.05.09.11.17.16.26.02.04.04.09.07.13.05.1-.02.05,0,0l-.03-.07s.03.07.04.1c.02.06.04.12.05.18.03.1.04.19.06.29.04.2,0-.25,0,.03,0,.09,0,.17,0,.26,0,.05,0,.1,0,.15,0,.05-.06.24,0,.07.06-.18-.02.09-.03.14-.02.1-.05.19-.08.28,0,.02-.05.14-.05.14,0,0,.1-.21.04-.1-.05.09-.1.19-.15.29-.03.04-.05.08-.08.12-.07.11,0,0,0,0-.01,0,.08-.09-.03.02-.03.03-.07.07-.1.1-.03.03-.05.05-.08.07-.15.15.05-.05.06-.04,0,.03-.29.18-.32.2-.03.01-.09.06-.12.06.13,0,.13-.05.02-.02-.11.03-.22.06-.34.09-.2.05.2,0-.09.01-.13,0-.27.01-.4,0-.06,0-.12,0-.18-.01-.14,0-.05.02.03,0-.11.02-.3-.06-.41-.08-.26-.06-.52-.14-.77-.23-.06-.02-.12-.04-.18-.07-.03-.01-.27-.11-.13-.05.13.05-.06-.03-.09-.04-.07-.03-.15-.07-.22-.1-.26-.12-.51-.25-.76-.38-.52-.27-1.25-.15-1.54.4-.27.52-.15,1.25.4,1.54,1.14.6,2.33,1.12,3.62,1.25,1.21.12,2.52-.31,3.3-1.27s1.04-2.14.85-3.34-.9-2.13-1.85-2.81c-1.01-.72-2.39-1.02-3.61-.88-.58.07-1.15.47-1.12,1.12.02.55.5,1.2,1.12,1.12h0Z"/>
    <path class="cls-3" d="M308.94,36.04c1.45,0,1.45-2.25,0-2.25s-1.45,2.25,0,2.25h0Z"/>
  </g>
  <g>
    <path class="cls-4" d="M495.11,17.67c-.21-2.83,1.94-5.39,4.89-5.19,1.31.09,3.07.82,3.58,2.15s-1.25,3.33-1.98,4.37c-.49.69.16,1.72.97,1.69,2.05-.08,3.71,1.07,5.15,2.42s3.06,2.85,3.53,4.82c.23.97.25,1.98.25,2.97,0,.42.02.84-.09,1.24-.11.43-.11.44-.45.22-.8-.52-1.45-1.73-1.95-2.53-.61-.98-1.11-2.02-1.52-3.1-.31-.84-1.19-1.05-1.88-.5-1.06.84-1.6,2.08-1.6,3.42,0,1.45,2.24,1.45,2.25,0,0-.8.32-1.34.94-1.83l-1.88-.5c.56,1.5,1.25,2.94,2.15,4.27.73,1.08,1.63,2.51,2.88,3.03,1.11.46,2.3.01,2.89-1.02.64-1.12.54-2.57.48-3.8-.07-1.47-.29-2.94-.98-4.25-.65-1.24-1.72-2.3-2.69-3.29-2.01-2.06-4.47-3.94-7.49-3.82l.97,1.69c1.26-1.78,3.05-4.05,2.11-6.33-.83-2-2.97-3.23-5.04-3.51-4.31-.58-8.08,3.05-7.75,7.37.11,1.44,2.36,1.45,2.25,0h0Z"/>
    <path class="cls-4" d="M493.34,17.49c-3.74,2.76-6.41,6.88-7.2,11.49-.2,1.15-.49,2.58,0,3.68s1.85,1.77,2.96,1.06c.94-.61,1.76-1.68,2.46-2.54.84-1.02,1.51-2.08,2.01-3.3.23-.56-.25-1.24-.79-1.38-.64-.18-1.15.22-1.38.79-.67,1.65-1.97,2.98-3.2,4.23-.1.11-.2.21-.31.31l.29-.05s-.05-.37-.05-.37c-.02-.45.04-.91.1-1.36.11-.82.29-1.63.53-2.42.96-3.24,2.98-6.18,5.71-8.19.49-.36.73-.98.4-1.54-.28-.48-1.05-.77-1.54-.4h0Z"/>
    <path class="cls-4" d="M491.63,39.03c-1.41,2.15-1.5,4.82-1.46,7.31.01.85.26,1.66,1.16,1.95.57.18,1.27.21,1.86.23,1.29.05,2.64-.25,3.55-1.23.52-.56.85-1.22,1.14-1.91.31-.74.6-1.49.91-2.23.23-.56-.25-1.24-.79-1.38-.64-.18-1.16.22-1.38.79-.15.36-.29.72-.44,1.08-.07.18-.15.36-.22.54-.02.04-.17.43-.13.31-.11.26-.23.52-.37.76-.08.14-.16.28-.26.4.08-.1-.18.18-.22.21-.1.09-.12.1-.05.05-.05.03-.1.06-.15.09-.04.02-.36.16-.2.11-.15.05-.3.08-.45.12-.14.02-.15.03-.05.01-.08,0-.16.02-.24.02-.59.04-1.22,0-1.81-.1.11.02.11.01-.02-.01.18.08.31.21.39.39.02.13.02.12.01,0,0-.08,0-.17,0-.25,0-.3,0-.59,0-.89,0-.64.02-1.27.08-1.91.11-1.1.43-2.32,1.08-3.31.33-.51.1-1.24-.4-1.54-.55-.32-1.21-.11-1.54.4h0Z"/>
    <path class="cls-4" d="M502.15,42.34c-.16,1.63.35,3.36,1.47,4.57s3.11,1.86,4.57.88c.91-.61,1.24-1.65,1.06-2.7-.16-.95-.71-1.79-1.05-2.69-.7-1.84-1.06-3.76-1.08-5.73-.01-1.45-2.26-1.45-2.25,0,.01,1.65.24,3.31.69,4.91.23.81.53,1.6.86,2.38.22.51.7,1.2.63,1.78,0,.04-.1.19-.05.12-.09.11-.04.06-.17.11-.08.03-.33.06-.56.02-.31-.05-.77-.35-1.07-.67-.72-.79-.92-1.92-.81-2.98.06-.61-.56-1.12-1.12-1.12-.66,0-1.07.52-1.12,1.12h0Z"/>
    <path class="cls-3" d="M497.62,16.46c1.93,0,1.93-3,0-3s-1.93,3,0,3h0Z"/>
    <path class="cls-3" d="M501.24,17.37c1.93,0,1.93-3,0-3s-1.93,3,0,3h0Z"/>
    <path class="cls-3" d="M495.54,18.67c.16.75.75,1.43,1.44,1.74.4.18.8.3,1.25.3s.88-.12,1.27-.33c.24-.14.44-.4.52-.67s.04-.63-.11-.87c-.33-.52-.99-.71-1.54-.4-.05.03-.1.05-.15.08l.27-.11c-.11.05-.23.08-.35.09l.3-.04c-.14.02-.28.02-.42,0l.3.04c-.15-.02-.3-.06-.44-.12l.27.11c-.14-.06-.27-.14-.39-.23l.23.18c-.11-.09-.21-.19-.3-.3l.18.23c-.07-.1-.13-.2-.18-.31l.11.27c-.03-.08-.06-.16-.08-.24-.06-.27-.29-.54-.52-.67s-.6-.2-.87-.11-.53.26-.67.52c-.15.28-.18.56-.11.87h0Z"/>
    <path class="cls-2" d="M495.92,26.93c.11.14-.1-.19-.12-.23.09.18-.05-.2-.06-.24-.02-.13-.03-.14-.01-.02,0-.07-.01-.15-.01-.22,0-.04.03-.47,0-.25.08-.52.26-.93.55-1.22.46-.45.86-.73,1.5-1.03.14-.07.43-.17.67-.26.33-.11.66-.21.99-.28.27-.06.52-.11.87-.06-.19-.03.27.09.19.05s.32.19.16.07c.29.2.36.34.52.61.16.25.31.55.42.81.13.3.23.63.28.95,0-.07,0-.03.01.12,0,.09,0,.19,0,.28,0,.08,0,.17-.01.25.02-.12.01-.1-.01.03-.01.04-.14.43-.06.26-.06.13-.13.27-.22.38.11-.15-.15.15-.19.18.15-.12-.19.09-.23.11-.55.26-.69,1.05-.4,1.54.33.56.99.66,1.54.4,1.35-.63,1.98-2.23,1.82-3.65-.17-1.5-.93-3.22-2.2-4.11s-3-.51-4.37,0-2.7,1.27-3.46,2.55c-.86,1.46-.82,3.25.24,4.58.38.47,1.19.4,1.59,0,.47-.47.38-1.12,0-1.59h0Z"/>
    <path class="cls-2" d="M494.7,27.92c-2.27,1.27-5.42,3.32-5.07,6.36.17,1.46,1.41,2.72,2.95,2.17.56-.2.99-.61,1.39-1.03.18-.19.35-.4.54-.57.05-.04.05-.04.16-.12,0,0,.14-.03.05-.02l-1.12-1.12c-.08,2.12-.28,4.27-.24,6.39.02.97.48,1.8,1.47,2.05s2.09.06,3.05.05c.66,0,1.05-.51,1.12-1.12.2-1.68.43-3.36.7-5.03.09-.6-.15-1.21-.79-1.38-.53-.15-1.29.18-1.38.79-.3,1.87-.56,3.75-.78,5.63l1.12-1.12c-.38,0-.76,0-1.13.01-.3,0-.95-.12-1.22.01-.19.09-.02-.06-.02.1,0,.46.1.06.1-.05,0-.43.03-.85.05-1.28.06-1.68.13-3.35.19-5.03.02-.59-.53-1.15-1.12-1.12-1.05.05-1.71.69-2.39,1.41-.13.14-.26.28-.41.4-.05.04-.11.06-.12.06.02-.02.15,0,.16.03,0-.13-.1-.24-.11-.39-.06-.83.64-1.7,1.24-2.26.81-.76,1.79-1.32,2.75-1.85,1.26-.71.13-2.65-1.14-1.94h0Z"/>
    <path class="cls-2" d="M497.29,40.34c.46.99,1.12,1.99,2.22,2.32,1.34.4,2.6-.46,3.32-1.53.62-.92.83-2.07.92-3.16.09-1.22-.02-2.4.33-3.54.17-.56-.21-1.25-.79-1.38-.61-.14-1.2.18-1.38.79-.32,1.04-.34,2.13-.37,3.21,0,.25-.01.51-.03.76,0,.1-.01.19-.02.29,0,0-.04.36-.01.16-.05.42-.16.83-.3,1.22-.06.18,0,0-.04.09-.04.08-.08.17-.13.25-.06.1-.12.19-.18.28.11-.15-.11.11-.11.11-.15.15-.16.17-.35.26.11-.05-.17.05-.19.05.18-.02-.25-.08.04,0-.03,0-.27-.1-.14-.04s-.09-.07-.12-.09c.19.13-.05-.06-.07-.08-.02-.02-.19-.22-.11-.12s-.08-.12-.09-.14c-.06-.09-.11-.18-.16-.27-.1-.18-.19-.37-.28-.56-.25-.55-1.05-.69-1.54-.4-.57.33-.66.99-.4,1.54h0Z"/>
    <path class="cls-2" d="M502.56,30.16c.13-.03.27-.05.4-.08.07-.01.14-.02.2-.03-.13.02-.12.02,0,0,.24-.02.48-.04.72-.03.06,0,.46.06.2,0,.13.03.25.06.37.1-.18-.05,0,0,.08.04.06.03.11.07.16.1-.1-.08-.1-.07,0,.02.09.1.1.11.04.04.04.06.09.13.12.2.06.1.11.21.16.31.15.31.28.63.41.94.23.54.54,1.21.7,1.63.05.13.1.27.12.41,0-.1,0-.08,0,.06,0,.15,0,.16,0,.03-.04.12-.04.13.01.02-.02.05-.04.09-.07.14-.03.04-.23.3-.09.15-.19.22-.41.4-.62.58l-.08.07c.09-.07.08-.06-.03.01.15-.06.31-.07.46-.03.18.09.22.1.12.04.47.3-.26-.17.15.14-.04-.03-.09-.12-.11-.16-.14-.2-.27-.41-.43-.6-.38-.42-1.02-.68-1.57-.45s-.99.76-.79,1.38c.17.52.8,1.03,1.38.79.11-.04.09,0-.15,0-.1,0-.21-.02-.3-.06s-.16-.09-.24-.15c.03.02.05.06.08.08-.1-.11-.12-.17-.03-.03.05.07.1.15.15.22.29.42.64.83,1.16.96.77.19,1.36-.23,1.92-.7.4-.34.8-.74,1.03-1.21.32-.66.39-1.35.19-2.06-.18-.63-.5-1.24-.76-1.84-.48-1.1-.86-2.39-1.99-3s-2.45-.45-3.67-.21c-.58.12-.96.83-.79,1.38.2.61.76.91,1.38.79h0Z"/>
    <path class="cls-4" d="M497.24,27.61c1.45,0,1.45-2.25,0-2.25s-1.45,2.25,0,2.25h0Z"/>
    <path class="cls-4" d="M500.42,27.38c1.45,0,1.45-2.25,0-2.25s-1.45,2.25,0,2.25h0Z"/>
    <path class="cls-4" d="M498.84,29.62c1.45,0,1.45-2.25,0-2.25s-1.45,2.25,0,2.25h0Z"/>
    <path class="cls-3" d="M480.89,19.14c-.01,10.45-.03,20.91-.04,31.36,0,1.93,3,1.93,3,0,.01-10.45.03-20.91.04-31.36,0-1.93-3-1.93-3,0h0Z"/>
    <path class="cls-3" d="M515.48,19.37c-.08,9.92.02,19.84.27,29.75.05,1.93,3.05,1.93,3,0-.26-9.92-.35-19.84-.27-29.75.01-1.93-2.99-1.93-3,0h0Z"/>
    <path class="cls-3" d="M481.98,52.11c2.19,1.22,4.97.77,7.37.73,3.02-.05,6.05-.1,9.07-.16,6.03-.1,12.07-.21,18.1-.31,1.93-.03,1.93-3.03,0-3-5.7.1-11.4.2-17.11.29-2.8.05-5.59.1-8.39.14-1.36.02-2.72.05-4.07.07-1.14.02-2.43.21-3.46-.36-1.69-.94-3.2,1.65-1.51,2.59h0Z"/>
    <path class="cls-6" d="M483.38,19.41c5.06-4.42,10.5-8.36,16.26-11.82,1.65-.99.15-3.59-1.51-2.59-5.97,3.59-11.62,7.71-16.86,12.29-1.46,1.27.67,3.39,2.12,2.12h0Z"/>
    <path class="cls-6" d="M498.7,7.87c3.3.84,6.18,2.72,8.8,4.85,2.93,2.36,5.73,4.88,8.58,7.33,1.46,1.25,3.59-.86,2.12-2.12-3-2.59-5.95-5.26-9.06-7.72-2.9-2.29-6.03-4.31-9.65-5.23-1.87-.48-2.67,2.42-.8,2.89h0Z"/>
  </g>
  <g>
    <path class="cls-7" d="M97.64,18.67l-.8-4.2c-.07-.35-.39-.72-.69-.9-.32-.19-.8-.27-1.16-.15s-.71.34-.9.69c-.2.37-.23.74-.15,1.16l.8,4.2c.07.35.39.72.69.9.32.19.8.27,1.16.15s.71-.34.9-.69c.2-.37.23-.74.15-1.16h0Z"/>
    <path class="cls-7" d="M103.75,14.63c-.49,1.3-.91,2.62-1.25,3.96-.1.38-.05.81.15,1.16.18.31.54.61.9.69.78.18,1.64-.23,1.85-1.05.34-1.35.75-2.67,1.25-3.96.13-.34.03-.85-.15-1.16s-.54-.61-.9-.69c-.38-.09-.81-.07-1.16.15s-.54.51-.69.9h0Z"/>
    <path class="cls-7" d="M96.6,15.43l5.02-.71.62-.09.35-.05c-.18.02-.22.03-.1.02.29-.02.57-.05.86-.04.09,0,.52.07.14,0,.12.02.28.1.39.1.11.04.07.02-.1-.05.07.03.13.07.19.11-.16-.13-.17-.14-.05-.03-.11-.16-.12-.17-.03-.03.43.66,1.35.99,2.05.54.66-.42,1-1.35.54-2.05-1.09-1.68-3.01-1.68-4.78-1.43-1.97.27-3.94.55-5.91.83-.78.11-1.27,1.14-1.05,1.85.28.86,1.01,1.16,1.85,1.05h0Z"/>
    <path class="cls-7" d="M105.22,21.25c.21,0,.42.02.63.04l-.4-.05c.49.07.97.2,1.42.39l-.36-.15c.43.19.84.43,1.21.71l-.3-.23c.37.29.7.62.99.99l-.23-.3c.18.24.35.5.49.77.36.7,1.39.96,2.05.54.71-.46.93-1.31.54-2.05-1.15-2.21-3.57-3.64-6.05-3.66-.78,0-1.54.7-1.5,1.5s.66,1.49,1.5,1.5h0Z"/>
    <path class="cls-7" d="M112.52,23.72l2.52-3.12c.15-.14.25-.3.31-.48.09-.18.14-.37.13-.58,0-.37-.16-.81-.44-1.06s-.66-.46-1.06-.44c-.37.02-.82.14-1.06.44l-2.52,3.12c-.15.14-.25.3-.31.48-.09.18-.14.37-.13.58,0,.37.16.81.44,1.06s.66.46,1.06.44c.37-.02.82-.14,1.06-.44h0Z"/>
    <path class="cls-7" d="M112.98,20.52c.46.38.89.78,1.3,1.21.21.22.41.44.61.68.09.11.19.22.28.33,0,.01.15.19.15.19,0,0-.23-.3-.03-.04.72.96,1.32,2,1.81,3.1.14.32.57.6.9.69.36.1.84.05,1.16-.15s.6-.51.69-.9c.1-.42.02-.77-.15-1.16-1.02-2.33-2.62-4.45-4.59-6.07-.31-.26-.64-.44-1.06-.44-.37,0-.81.16-1.06.44-.51.55-.64,1.59,0,2.12h0Z"/>
    <path class="cls-7" d="M119,23.88c-.82-.27-1.71-.07-2.45.33-.59.32-1.09.78-1.62,1.19l.3-.23c-.29.22-.59.44-.93.58l.36-.15c-.13.05-.27.09-.41.12l.4-.05c-.11.01-.22.02-.33,0l.4.05c-.12-.02-.23-.05-.34-.09-.33-.14-.86-.02-1.16.15-.31.18-.61.54-.69.9-.09.38-.07.81.15,1.16s.51.53.9.69c.79.33,1.71.11,2.44-.27.6-.31,1.1-.79,1.63-1.2l-.3.23c.29-.23.6-.44.94-.6l-.36.15c.15-.06.3-.11.46-.13l-.4.05c.11-.01.23-.01.34,0l-.4-.05c.09.01.18.03.26.06.75.25,1.67-.29,1.85-1.05.19-.83-.25-1.58-1.05-1.85h0Z"/>
    <path class="cls-7" d="M99.29,33.28c-.14.02-.29-.01-.42,0l.24.03c-.05-.01-.11-.02-.16-.04-.05-.01-.11-.05-.15-.05l.21.09s-.1-.05-.14-.08c-.05-.03-.09-.06-.14-.09-.24-.15.18.2.07.05-.06-.08-.15-.14-.21-.21-.03-.03-.08-.11-.11-.13l.13.16s-.07-.1-.1-.15c-.06-.09-.14-.34-.21-.39.02.01.13.35.05.11-.03-.08-.06-.17-.08-.25-.02-.06-.03-.11-.04-.17-.01-.06-.02-.12-.04-.17l.03.22c.02-.14-.02-.3-.02-.44,0-.09.01-.19.02-.28.01-.19.07.01-.02.12.07-.08.07-.34.1-.45.03-.09.06-.18.09-.27.09-.27-.15.29,0,.02.07-.14.14-.27.22-.4.03-.05.07-.1.1-.15.18-.27-.23.24,0,.01.11-.11.21-.22.32-.32.14-.14.02.07-.09.06.05,0,.22-.14.27-.17.07-.04.14-.07.2-.11.21-.11-.11.06-.14.06.11,0,.26-.08.38-.11.18-.04.27.04-.09,0,.05,0,.11,0,.16-.01.16,0,.31.02.47.02-.39,0-.27-.05-.13-.01.06.02.13.03.19.04.13.03.25.1.38.12-.29-.05-.26-.12-.14-.06.07.04.14.07.21.11.13.07.24.16.37.23.17.09-.29-.26-.08-.06.04.04.08.07.12.11.1.09.18.19.27.29.2.22-.2-.3-.04-.05.03.04.06.09.09.13.04.07.08.14.12.2l.03.07c.06.14.04.09-.06-.14.02.12.09.25.11.38.01.05.01.11.03.16-.12-.38-.03-.22-.02-.06,0,.06,0,.12,0,.17,0,.16-.1.32.02-.05-.05.15-.07.31-.12.46-.07.2-.12.07.04-.08-.05.05-.08.17-.12.23-.04.08-.09.15-.14.22l-.05.07c-.09.13-.07.1.07-.09-.11.05-.27.3-.37.38-.04.04-.09.07-.13.11.28-.29.1-.08-.02,0s-.33.13-.42.23l.2-.08c-.05.02-.11.04-.16.06-.08.03-.17.05-.25.07-.07.02-.14.03-.21.04-.12.02-.06.01.18-.03-.06,0-.12,0-.17.01-.06,0-.12,0-.17,0-.42-.02.23.05-.04,0-.77-.15-1.66.21-1.85,1.05-.17.74.22,1.69,1.05,1.85,2.01.38,4.06-.59,5.07-2.38s.69-3.9-.75-5.29c-1.23-1.2-3.2-1.82-4.86-1.19-1.98.75-3.22,2.72-3.24,4.81-.01,1.16.44,2.26,1.17,3.15.69.84,1.84,1.42,2.94,1.3.41-.05.76-.14,1.06-.44.26-.26.46-.69.44-1.06-.03-.74-.66-1.59-1.5-1.5h0Z"/>
    <path class="cls-7" d="M106.87,44.64c-1.71-.07-3.52.1-4.67,1.53-.49.61-.78,1.36-.77,2.15,0,.42.13.8.29,1.18.11.25.36.59.32.82l.2-.76-.08.06.66-.39c-.7.27-1.5.35-2.24.49-.67.13-1.49.37-2.17.18-1.06-.3-.27-1.44-.05-2.17.41-1.37.3-3.02-1.12-3.73-.59-.3-1.26-.37-1.86-.63s-1.14-.59-1.63-.99c-.81-.66-2.25-.54-2.51.66-.16.74-.43,1.35-.87,1.97h2.59c-.15-.25-.3-.5-.45-.75-.46-.77-1.71-1.06-2.36-.3-1.08,1.27-1.99,2.64-2.67,4.16-.33.74-.21,1.61.54,2.05.64.37,1.72.21,2.05-.54.57-1.28,1.29-2.48,2.2-3.56l-2.36-.3c.15.25.3.5.45.75.61,1.02,1.95.91,2.59,0,.57-.81.96-1.72,1.17-2.69l-2.51.66c.92.76,1.88,1.35,2.99,1.78.22.09.45.16.68.23.18.05.36.1.53.14l-.24-.24c-.2.4-.29.97-.43,1.41-.73,2.2.19,4.44,2.57,4.99,1.27.29,2.56,0,3.82-.24s2.65-.3,3.28-1.51c.28-.53.27-1.15.1-1.72-.07-.24-.57-.89-.52-1.16.13-.81,1.94-.58,2.44-.56,1.93.08,1.93-2.92,0-3h0Z"/>
    <path class="cls-7" d="M89.83,48.19c-.43-.1-.85-.24-1.26-.39.2.08.04.02-.07-.03-.1-.05-.2-.09-.3-.14-.2-.1-.39-.21-.58-.32s-.37-.23-.55-.36c-.03-.02-.31-.23-.17-.12s-.16-.14-.16-.13c-.34-.29-.65-.6-.94-.93-.06-.07-.11-.14-.17-.2.24.28-.1-.11-.06-.11l.11.4-.11.41c.08-.12.08-.14.02-.05-.07.08-.06.07.04-.04.34-.4.68-.8,1.02-1.2.73-.86,1.46-1.72,2.2-2.58.51-.6.63-1.54,0-2.12-.56-.51-1.58-.64-2.12,0-.86,1.01-1.71,2.01-2.57,3.02-.42.49-.94.98-1.21,1.57-.38.82-.28,1.7.27,2.42,1.43,1.9,3.52,3.26,5.84,3.81.76.18,1.66-.24,1.85-1.05s-.23-1.65-1.05-1.85h0Z"/>
    <path class="cls-7" d="M89.74,40.3c-.57-1.99-1.02-4.09-1.74-6.04-.66-1.79-2.06-2.12-3.7-1.42-.45.19-.88.35-1.36.44-.14.02-1.41.05-1.41.05.28.71.38.76.3.16,0-.27,0-.54.01-.81.02-.41.06-.81.13-1.22.08-.49.39-1.1.4-1.58.25-.46.17-.52-.23-.16l.41.1c.41.26,1.15.32,1.62.48.54.18,1.08.38,1.61.6.67.28,1.71.28,2.05-.54.65-1.54,1.47-3.02,2.51-4.33.54-.68.57-1.44,0-2.12-.76-.91-1.52-1.81-2.27-2.72-.28-.34-.57-.68-.85-1.02-.19-.23-.38-.45-.57-.68-.34.72-.33.87.05.45.51-.23,1.12-1.1,1.78-.81.39.16.63.98.8,1.32.59,1.16,1.39,2.3,2.82,2.4.76.05,1.44-.19,2.05-.63.37-.26.66-.58.97-.9.16-.17.73-.56.51-.67,1.72.86,3.25-1.73,1.51-2.59-1.08-.54-2.16-.43-3.16.25-.46.31-.81.72-1.19,1.12-.18.19-.54.4-.34.48-.42-.15-.81-1.48-1.04-1.86-.52-.85-1.23-1.57-2.21-1.84-1.09-.3-2.21.01-3.17.55s-2.18,1.4-2.44,2.5c-.32,1.34,1.03,2.46,1.79,3.37.95,1.13,1.89,2.26,2.84,3.39v-2.12c-1.21,1.53-2.22,3.14-2.98,4.94l2.05-.54c-1.22-.52-2.46-.99-3.75-1.33-1.04-.28-2.12-.5-3.02.25-.85.71-1.15,2-1.37,3.03-.27,1.23-.42,2.55-.3,3.81.27,2.82,3.86,2.54,5.85,1.83.22-.08.54-.16.73-.3.48-.12.49-.22.03-.31-.29-.22-.39-.24-.31-.05-.1.32.39,1.38.5,1.74l1.18,4.12c.53,1.85,3.43,1.07,2.89-.8h0Z"/>
    <path class="cls-7" d="M107.28,47.26c.38.2.6.71.88,1.05.48.59,1.1,1.04,1.9,1.04,1,0,1.65-.72,2.28-1.4.74-.8,1.48-1.6,2.22-2.41.54-.59.6-1.54,0-2.12-1.03-1-2.06-2-3.09-3l.39,1.46c.33-.8.77-2.02,1.7-2.28.41-.12.57.05.9.28.49.35,1.02.57,1.62.55,2.57-.09,2.74-3.77,3.13-5.59.21-.97-.43-1.87-1.45-1.9-1.36-.04-2.71-.08-4.07-.12l1.5,1.5c.25-1.85.49-3.71.74-5.56.11-.8-.77-1.5-1.5-1.5-.9,0-1.39.69-1.5,1.5-.25,1.85-.49,3.71-.74,5.56-.11.82.78,1.48,1.5,1.5,1.36.04,2.71.08,4.07.12l-1.45-1.9c-.14.68-.29,1.37-.43,2.05-.02.11-.41,1.35-.35,1.44-.06-.08,1.18.3.36-.3-.21-.15-.4-.27-.64-.38-.5-.22-1.03-.32-1.58-.3-2.59.12-3.83,2.42-4.7,4.53-.19.47.04,1.12.39,1.46,1.03,1,2.06,2,3.09,3v-2.12c-.49.53-.99,1.07-1.48,1.6-.25.27-.49.53-.74.8-.16.18-.33.36-.49.53.28-.04.53,0,.76.11.01-.07-.44-.63-.56-.78-.32-.41-.67-.77-1.14-1.02-1.71-.9-3.23,1.69-1.51,2.59h0Z"/>
  </g>
</svg>