<?xml version="1.0" encoding="UTF-8"?>
<svg id="_レイヤー_1" data-name="レイヤー 1" xmlns="http://www.w3.org/2000/svg" viewBox="0 0 600 60">
  <defs>
    <style>
      .cls-1 {
        fill: #ed1c24;
      }

      .cls-1, .cls-2, .cls-3, .cls-4, .cls-5, .cls-6, .cls-7, .cls-8, .cls-9 {
        stroke-width: 0px;
      }

      .cls-2 {
        fill: #6bb93f;
      }

      .cls-3 {
        fill: #fbb03b;
      }

      .cls-4 {
        fill: #e71f19;
      }

      .cls-5 {
        fill: #3fa9f5;
      }

      .cls-6 {
        fill: #7ac943;
      }

      .cls-7 {
        fill: #d9e021;
      }

      .cls-8 {
        fill: red;
      }

      .cls-9 {
        fill: #f29438;
      }
    </style>
  </defs>
  <g>
    <path class="cls-3" d="M392.49,27.23c.73-4.22.74-8.46.05-12.69-.13-.8-1.12-1.25-1.85-1.05-.85.23-1.18,1.04-1.05,1.85.6,3.66.58,7.45-.05,11.1-.14.8.21,1.62,1.05,1.85.72.2,1.71-.25,1.85-1.05h0Z"/>
    <path class="cls-3" d="M391.22,16.01c6.85-.78,13.74-1.12,20.64-1.04,1.93.02,1.93-2.98,0-3-6.89-.08-13.78.26-20.64,1.04-.81.09-1.49.62-1.5,1.5,0,.74.7,1.59,1.5,1.5h0Z"/>
    <path class="cls-3" d="M390.44,42.05v2.65c.02,1.03.96,1.63,1.91,1.45.31-.06.61-.11.92-.16.17-.03.33-.05.5-.07-.27.04.1-.01.17-.02.6-.07,1.19-.12,1.79-.14,1.22-.05,2.45-.02,3.66.1.78.08,1.53-.74,1.5-1.5-.04-.88-.66-1.42-1.5-1.5-2.62-.26-5.26-.1-7.84.4l1.9,1.45v-2.65c-.01-.78-.7-1.54-1.51-1.5s-1.5.66-1.5,1.5h0Z"/>
    <path class="cls-6" d="M381.56,40.44c3.98-2.71,8.26-4.95,12.77-6.64.76-.28,1.28-1.01,1.05-1.85-.2-.73-1.08-1.33-1.85-1.05-4.76,1.78-9.29,4.09-13.49,6.94-.67.45-.97,1.32-.54,2.05.39.66,1.38,1,2.05.54h0Z"/>
    <path class="cls-6" d="M387.96,33.33l7.02.04-1.3-2.26c-1.31,1.78-2.63,3.55-3.94,5.33-.47.63-.13,1.7.54,2.05.78.41,1.55.14,2.05-.54,1.31-1.78,2.63-3.55,3.94-5.33.31-.42.25-1.09,0-1.51-.27-.46-.77-.74-1.3-.74l-7.02-.04c-.78,0-1.54.69-1.5,1.5s.66,1.49,1.5,1.5h0Z"/>
    <path class="cls-8" d="M412.86,12.56c-4.69,1.86-9.19,4.13-13.45,6.84-1.62,1.03-.12,3.63,1.51,2.59,4.03-2.57,8.29-4.77,12.73-6.54.75-.3,1.28-1,1.05-1.85-.2-.72-1.09-1.35-1.85-1.05h0Z"/>
    <path class="cls-8" d="M398.5,20.92c.88,8.96,1.73,17.95,1.1,26.96-.08,1.16,1.33,1.83,2.26,1.3,4.22-2.43,8.61-4.56,13.15-6.35,1.78-.7,1-3.6-.8-2.89-4.78,1.88-9.41,4.09-13.86,6.65l2.26,1.3c.63-9-.23-18-1.1-26.96-.19-1.9-3.19-1.92-3,0h0Z"/>
    <path class="cls-8" d="M412.65,14.44c0,4.39,0,8.8.49,13.17.43,3.83,1.76,8.23.13,11.94-.77,1.75,1.81,3.28,2.59,1.51,1.79-4.07.96-8.24.4-12.49-.62-4.68-.61-9.42-.61-14.14,0-1.93-3-1.93-3,0h0Z"/>
  </g>
  <g>
    <path class="cls-5" d="M198.56,37.32l4.59,7.19,2.3,3.6,1.11,1.73c.43.68.76,1.34,1.6,1.52,1.44.31,2.5-1.09,3.42-1.97s2.32-1.81,2.75-3.02c.52-1.48-.53-2.68-1.33-3.82s-1.64-2.35-2.46-3.52-1.7-2.22-2.77-3.22c-.93-.86-1.19-2.21-2.1-3.12-1.35-1.38-3.48.74-2.12,2.12.45.46.66,1.09.96,1.65.34.63.79,1.18,1.32,1.65,1.2,1.05,2.02,2.31,2.93,3.61.49.69.97,1.39,1.46,2.08.24.35.49.69.73,1.04.11.16.26.52.43.63l.1.15.05-.33c-.05-.04-1.59,1.52-1.74,1.66-.34.32-.67.64-1.01.96-.16.15-.44.52-.62.56h.8l-.2-.03.9.69c-2.84-4.44-5.67-8.88-8.51-13.32-1.04-1.62-3.63-.12-2.59,1.51h0Z"/>
    <path class="cls-3" d="M189.24,32.99c-3.13-1.97-6.41-6.63-4.76-10.48.84-1.96,2.63-3.64,4.25-4.97s3.5-2.36,5.55-2.76c4.33-.85,7.71,1.64,9.4,5.48,1.47,3.34,2.49,8.46-.37,11.35-1.65,1.67-4.02,2.37-6.3,2.65-1.3.16-2.62.21-3.94.25-.98.03-2.31.17-3.14-.47-1.51-1.17-3.64.94-2.12,2.12,2.26,1.76,5.19,1.42,7.89,1.23s5.57-.7,7.94-2.22c4.93-3.17,5.11-9.17,3.46-14.28s-5.28-9.16-10.8-9.28-10.82,3.74-13.76,8.21c-3.62,5.52.18,12.61,5.18,15.76,1.64,1.03,3.14-1.56,1.51-2.59h0Z"/>
    <path class="cls-5" d="M197.43,19.45l-.13.06c.14-.03.15-.04.03-.01-.1.01-.11.02-.03.02.11,0,.08,0-.11-.01,0,0,.21.07.23.07-.2-.08-.08-.03.04.05.09.06.18.12.27.18-.12-.09-.08-.07,0,.02.15.13.29.27.43.41.3.31.59.62.87.94.13.15.27.31.4.47.07.08.19.24.06.07.07.09.13.18.2.27.23.33.44.67.61,1.02.06.11.11.26.03.06.03.08.06.16.09.24.07.21.12.42.16.63.03.16,0,.13,0,0,0,.11.02.23.02.34s0,.23-.01.35c0,.14-.03.16,0,.02-.05.23-.1.45-.18.67-.04.11-.08.16-.01.03-.07.12-.13.25-.2.37-.4.68-.18,1.68.54,2.05s1.63.18,2.05-.54c1.35-2.27.85-4.93-.67-6.97-.67-.9-1.41-1.81-2.26-2.54-.52-.45-1.09-.85-1.76-1.05-.76-.24-1.48-.11-2.19.21s-.95,1.42-.54,2.05c.48.74,1.29.89,2.05.54h0Z"/>
  </g>
  <g>
    <path class="cls-6" d="M494.95,17.97c-.24-3.26,2.22-6.18,5.6-5.92,1.48.11,3.22.88,3.93,2.26.46.9-.03,1.63-.48,2.42-.54.94-1.13,1.84-1.75,2.72-.66.93.22,2.3,1.3,2.26,2.33-.1,4.22,1.2,5.86,2.73s3.63,3.35,4.18,5.66c.28,1.19.29,2.44.29,3.66,0,.39.07,1-.14,1.35-.16.28-.03.26-.35-.11-1.66-1.92-2.99-4.02-3.88-6.41-.42-1.13-1.59-1.39-2.51-.66-1.28,1.02-1.93,2.53-1.94,4.15,0,1.93,2.99,1.93,3,0,0-.9.36-1.48,1.06-2.03l-2.51-.66c.63,1.69,1.4,3.32,2.39,4.83.88,1.35,1.97,3.05,3.45,3.79s3.03.15,3.79-1.2.66-3.08.59-4.56c-.08-1.82-.36-3.67-1.27-5.28-.84-1.48-2.14-2.76-3.33-3.96-2.35-2.36-5.22-4.45-8.7-4.31l1.3,2.26c1.53-2.15,3.64-4.87,2.49-7.62-1-2.39-3.55-3.87-6.03-4.21-5.17-.71-9.73,3.64-9.34,8.84.14,1.91,3.14,1.93,3,0h0Z"/>
    <path class="cls-6" d="M492.61,17.6c-4.43,3.27-7.62,8.16-8.55,13.62-.24,1.4-.59,3.12.03,4.47s2.34,2.2,3.72,1.31c1.12-.72,2.09-1.99,2.93-3.02,1-1.22,1.81-2.49,2.4-3.96.3-.75-.33-1.65-1.05-1.85-.86-.24-1.54.29-1.85,1.05-.78,1.91-2.29,3.46-3.72,4.9-.12.12-.24.25-.36.36l.55-.09c.05-.06.02-.1.03-.28.04-.53.05-1.06.12-1.6.12-.95.34-1.89.62-2.8,1.12-3.76,3.47-7.2,6.63-9.53.65-.48.98-1.3.54-2.05-.38-.64-1.4-1.02-2.05-.54h0Z"/>
    <path class="cls-6" d="M490.54,43.01c-1.68,2.56-1.78,5.72-1.75,8.68.01,1.1.37,2.08,1.49,2.46.67.23,1.53.25,2.24.28,1.56.06,3.21-.32,4.3-1.5,1.25-1.35,1.77-3.28,2.45-4.95.29-.73-.32-1.68-1.05-1.85-.87-.2-1.53.27-1.85,1.05-.17.42-.34.85-.51,1.27-.09.21-.17.42-.26.64-.02.04-.25.6-.13.33-.13.31-.27.61-.44.9-.09.16-.19.32-.31.47.18-.23-.19.18-.23.21-.13.11-.14.12-.03.03-.06.04-.11.08-.17.11-.07.04-.48.2-.19.11-.17.06-.35.1-.52.14-.18.03-.18.03,0,.01-.09.01-.19.02-.28.02-.7.05-1.43,0-2.13-.12.18.03.19.02.02,0,.27.11.47.31.58.58.02.2.03.21.02.04,0-.1,0-.2,0-.3,0-.35,0-.7,0-1.05,0-.75.03-1.5.1-2.25,0-.05.08-.63.03-.34.03-.19.06-.39.1-.58.06-.34.14-.67.24-1,.23-.78.38-1.13.87-1.89.43-.66.15-1.69-.54-2.05-.75-.4-1.59-.16-2.05.54h0Z"/>
    <path class="cls-6" d="M502.89,46.99c-.19,1.97.44,4.05,1.79,5.5s3.8,2.25,5.59,1.07c1.14-.75,1.55-2.06,1.32-3.38-.19-1.12-.83-2.11-1.23-3.16-.82-2.15-1.24-4.39-1.26-6.69-.01-1.93-3.01-1.93-3,0s.28,3.93.81,5.82c.27.97.63,1.91,1.03,2.84.27.63.68,1.34.73,1.96,0,.04-.14.24,0,.06-.13.12-.14.13-.04.03l-.13.07c.31.01-.34.04-.16.02.09-.01-.34,0-.42-.02.26.04-.21-.07-.21-.07-.27-.09.02.03-.22-.11-.37-.21-.41-.25-.7-.56-.13-.13-.27-.33-.43-.61-.22-.39-.23-.44-.35-.86-.18-.65-.21-1.14-.13-1.91s-.75-1.5-1.5-1.5c-.88,0-1.42.69-1.5,1.5h0Z"/>
    <path class="cls-5" d="M497.73,16.28c1.93,0,1.93-3,0-3s-1.93,3,0,3h0Z"/>
    <path class="cls-5" d="M501.99,17.34c1.93,0,1.93-3,0-3s-1.93,3,0,3h0Z"/>
    <path class="cls-5" d="M495.11,19.19c.2.92.92,1.77,1.77,2.15.51.23,1,.38,1.57.38s1.1-.15,1.58-.42c.33-.18.59-.54.69-.9s.05-.84-.15-1.16-.51-.6-.9-.69-.8-.05-1.16.15c-.06.03-.12.06-.18.09l.36-.15c-.13.05-.27.09-.41.11l.4-.05c-.17.02-.33.02-.49,0l.4.05c-.18-.03-.35-.07-.51-.14l.36.15c-.16-.07-.32-.16-.46-.27l.3.23c-.13-.1-.25-.22-.35-.35l.23.3c-.09-.11-.16-.24-.21-.37l.15.36c-.04-.09-.07-.19-.09-.29-.08-.36-.38-.72-.69-.9s-.8-.27-1.16-.15-.71.34-.9.69c-.19.37-.24.75-.15,1.16h0Z"/>
    <path class="cls-3" d="M495.86,28.73c.2.25-.08-.17-.11-.23.16.3-.03-.17-.06-.24-.03-.17-.03-.17,0,.02,0-.09-.01-.17-.01-.26,0-.08.06-.61,0-.25.03-.17.07-.35.12-.51.03-.08.06-.17.09-.25-.07.15-.06.15.01,0,.07-.11.12-.23.2-.34.05-.07.1-.15.15-.22-.09.12-.08.12.04-.02.14-.13.28-.27.42-.41.14-.11.15-.12.04-.04.08-.06.16-.11.24-.17.33-.22.68-.4,1.03-.57.3-.15-.1.03.19-.08.19-.07.37-.14.56-.2.38-.13.77-.25,1.17-.33.1-.02.2-.04.31-.06-.14.01-.12.01.06,0,.2-.01.41-.03.61,0-.36-.04.32.11.15.05s.41.26.13.05c.15.11.28.26.4.4-.17-.2.15.23.18.28.1.16.19.33.28.5.05.1.1.2.15.3.07.17.09.2.05.1.15.36.26.74.33,1.12-.03-.17.02.35.02.42,0,.1,0,.2-.02.3.03-.18.02-.19,0-.01-.02.06-.2.57-.06.26-.07.16-.16.31-.26.45.18-.26-.14.12-.2.17.25-.21-.17.07-.24.1-.71.33-.95,1.41-.54,2.05.47.73,1.29.89,2.05.54,1.63-.76,2.42-2.72,2.23-4.44-.21-1.84-1.13-3.88-2.67-4.99s-3.64-.63-5.28-.02-3.26,1.53-4.17,3.08c-1.06,1.79-.99,3.98.32,5.6.49.61,1.61.55,2.12,0,.6-.65.53-1.47,0-2.12h0Z"/>
    <path class="cls-3" d="M494.2,29.87c-2.73,1.53-6.47,3.99-6.05,7.63.21,1.83,1.76,3.4,3.69,2.72.69-.24,1.22-.74,1.71-1.26.21-.23.41-.46.64-.67.08-.07.07-.07-.02,0,.06-.04.12-.08.18-.11.09-.05.08-.05-.05,0,.17-.04.18-.05.01,0l-1.5-1.5c-.09,2.49-.33,5.02-.28,7.52.02,1.22.62,2.27,1.86,2.58,1.12.29,2.49.07,3.64.06.88,0,1.4-.69,1.5-1.5.23-1.96.51-3.92.82-5.88.13-.8-.21-1.61-1.05-1.85-.71-.2-1.72.24-1.85,1.05-.35,2.22-.66,4.44-.92,6.67l1.5-1.5c-.44,0-.89,0-1.33.01-.27,0-.53,0-.8,0-.15,0-.53-.07-.63,0-.15.11,0-.03.1.17.29.58.17.34.17.06,0-.5.04-1,.06-1.51.07-1.97.15-3.94.22-5.91.03-.78-.71-1.54-1.5-1.5-1.28.06-2.1.82-2.93,1.72-.15.16-.31.33-.48.48-.13.11.13-.09-.09.05.19-.12-.06-.03.05-.02.07,0,.34.13.36.13-.07.01-.1-.3-.1-.37-.02-.38.1-.77.35-1.22.28-.51.64-.93,1.06-1.32.94-.89,2.08-1.53,3.2-2.15,1.68-.94.17-3.54-1.51-2.59h0Z"/>
    <path class="cls-3" d="M497.19,44.72c.56,1.21,1.37,2.41,2.72,2.81,1.65.5,3.21-.56,4.1-1.88.75-1.11,1-2.5,1.11-3.81.12-1.5-.02-2.81.38-4.11.23-.75-.27-1.67-1.05-1.85-.81-.18-1.6.24-1.85,1.05-.38,1.23-.41,2.54-.44,3.82,0,.3-.02.59-.03.89,0,.11-.01.22-.02.34,0,.03-.05.48,0,.14-.07.49-.19.97-.35,1.44-.09.26.06-.07-.03.07-.06.09-.1.2-.15.29-.07.11-.14.22-.21.33.18-.25-.08.07-.11.1-.02.02-.29.25-.17.16s-.18.11-.21.12c.22-.11-.12.03-.18.04.27-.05-.25-.12.14,0-.06-.02-.3-.15-.14-.04.18.13-.07-.07-.12-.09.28.17.02,0-.05-.07-.03-.03-.24-.29-.12-.13s-.07-.12-.1-.15c-.07-.11-.13-.21-.19-.32-.12-.22-.23-.44-.33-.66-.33-.71-1.42-.95-2.05-.54-.74.48-.89,1.29-.54,2.05h0Z"/>
    <path class="cls-3" d="M503.58,32.83c.16-.03.31-.06.47-.09.08-.01.16-.03.24-.04-.2.02-.21.03-.04,0,.28-.03.56-.05.84-.04.08,0,.16,0,.24.01.17.02.16.01-.05,0,.05-.01.41.07.44.11l-.15-.07c.07.03.13.06.2.1.07.04.13.08.19.12-.15-.12-.17-.12-.04,0,.12.13.12.13.03.01.05.08.1.15.15.23.07.12.13.24.19.37.17.37.32.74.48,1.11.15.34.3.68.44,1.03.08.2.17.39.25.59.08.18.08.2.03.06.03.07.05.14.08.2.06.16.11.32.14.48-.02-.16-.02-.16,0,.03-.01.2,0,.19,0-.02-.05.16-.04.15.03-.02-.02.05-.05.11-.08.16-.04.08-.31.38-.08.14-.23.25-.48.47-.73.69l-.1.08c.14-.1.14-.11,0-.01.22-.1.45-.12.68-.05.25.12.31.14.18.07.21.17.26.2.14.1-.1-.11-.07-.07.09.13,0,0-.13-.18-.13-.19-.17-.25-.33-.51-.54-.74-.48-.53-1.32-.87-2.02-.58s-1.32,1.01-1.05,1.85c.22.69,1.07,1.37,1.85,1.05.14-.06.1,0-.22,0-.15,0-.29-.03-.42-.09s-.23-.12-.34-.21c.03.03.06.07.09.1-.11-.12-.19-.27-.06-.07.06.09.11.18.17.26.37.53.81,1.05,1.47,1.21.98.24,1.72-.27,2.43-.87.48-.4.96-.89,1.25-1.46.4-.82.49-1.68.24-2.56-.22-.76-.6-1.48-.91-2.2-.57-1.33-1.04-2.86-2.4-3.6s-2.97-.56-4.45-.26c-.77.15-1.28,1.11-1.05,1.85.26.82,1.02,1.21,1.85,1.05h0Z"/>
    <path class="cls-6" d="M497.29,29.83c1.93,0,1.93-3,0-3s-1.93,3,0,3h0Z"/>
    <path class="cls-6" d="M501.02,29.57c1.93,0,1.93-3,0-3s-1.93,3,0,3h0Z"/>
    <path class="cls-6" d="M499.16,32.2c1.93,0,1.93-3,0-3s-1.93,3,0,3h0Z"/>
  </g>
  <g>
    <path class="cls-8" d="M271.37,43.84c0-3.57.01-7.14.02-10.71,0-1.73-.02-3.46.01-5.18.03-1.48.09-3.14.97-4.4s2.27-1.76,3.68-1.37c1.15.32,2.14,1.27,2.1,2.52-.13,3.58-4.78,2.09-6.94,1.81-1.43-.18-1.42,2.07,0,2.25,2.82.36,6.23,1.46,8.22-1.25,1.58-2.15,1.13-5.11-1.04-6.67s-5.48-1.3-7.35.78c-2.2,2.44-1.89,6.01-1.9,9.06l-.02,13.16c0,1.45,2.25,1.45,2.25,0h0Z"/>
    <path class="cls-6" d="M281.16,22.69c-.38,2.38-.6,4.77-.6,7.18,0,2.09.18,4.36,1.9,5.78,1.52,1.26,4,2.64,5.69.91.73-.74,1.11-1.78,1.45-2.75.36-1.03.62-2.11.79-3.19.4-2.53.43-5.09.42-7.65,0-1.45-2.25-1.45-2.25,0,0,2.35.04,4.73-.34,7.05-.19,1.16-.46,2.31-.87,3.41-.21.56-.55,1.81-1.3,1.7-.48-.07-.99-.45-1.4-.7s-.85-.52-1.15-.92c-.57-.76-.65-1.81-.68-2.73-.08-2.51.12-5.04.51-7.51.1-.6-.15-1.21-.79-1.38-.54-.15-1.29.18-1.38.79h0Z"/>
    <path class="cls-3" d="M294.48,22.7c-1.5,4.91-2.24,10.05-2.2,15.18.01,1.45,2.26,1.45,2.25,0-.04-4.95.67-9.85,2.12-14.58.42-1.39-1.75-1.98-2.17-.6h0Z"/>
    <path class="cls-5" d="M302.37,24.35l-.22,6.11c-.06,1.59-.17,3.47,1.07,4.68.64.63,1.46.82,2.31.96.39.06.74.13,1.09.31.46.24.96.42,1.49.28.84-.22,1.31-1.03,1.46-1.83.18-.99.26-2,.38-3,.29-2.34.59-4.68.88-7.02.08-.6-.57-1.12-1.12-1.12-.67,0-1.05.52-1.12,1.12-.28,2.23-.56,4.46-.84,6.68-.12.95-.16,1.94-.37,2.87-.02.09-.05.18-.08.27,0-.02,0-.03.03-.04.48,0,.63-.05.44-.17-.1-.06-.21-.12-.32-.16-.42-.2-.85-.3-1.31-.37-.66-.11-1.33-.13-1.59-.82s-.18-1.41-.16-2.1c.08-2.22.16-4.44.24-6.66.05-1.45-2.2-1.45-2.25,0h0Z"/>
    <path class="cls-1" d="M313.86,22.75v13.36c0,1.45,2.25,1.45,2.25,0v-.52c0-1.45-2.25-1.45-2.25,0v.52h2.25v-13.36c0-1.45-2.25-1.45-2.25,0h0Z"/>
    <path class="cls-1" d="M315.85,24.38c.21.04.42.08.62.15.09.03.19.07.28.1.12.05.11.04-.03-.01.05.02.1.05.15.07.18.09.35.19.52.3.06.04.16.09.21.15-.18-.21.05.05.1.09.15.13.29.27.42.42.04.04.07.09.11.13.08.1.07.09-.02-.03.06.05.1.15.14.21.06.09.12.19.17.29.02.04.13.31.05.07.03.08.13.27.11.36-.02-.15-.02-.16,0-.03,0,.11,0,.12,0,.03.02-.09.01-.08-.01.03.06-.12.06-.13,0-.03.1-.12.12-.14.04-.05-.09.08-.07.07.05-.03,0,.02-.19.12-.2.12.15-.06.17-.07.05-.02-.05.02-.1.03-.15.05-.18.05-.36.08-.55.11.22-.03-.09,0-.14.01-.15.02-.29.03-.44.04-.51.04-1.03.05-1.54.04-.26,0-.51-.02-.77-.04-.15-.01-.29-.03-.44-.04-.07,0-.15-.02-.22-.03.12.02.11.01-.03,0-.31-.05-.58-.05-.87.11-.23.14-.46.4-.52.67-.12.53.16,1.29.79,1.38,1.05.15,2.09.23,3.15.18.95-.05,2.02-.09,2.87-.56,1.04-.57,1.38-1.81.98-2.89-.32-.85-.89-1.62-1.58-2.2-.79-.65-1.7-1.13-2.71-1.31-.58-.1-1.24.16-1.38.79-.12.55.17,1.27.79,1.38h0Z"/>
    <path class="cls-7" d="M322.83,35.26c1.52-.7,1.63-2.58,1.31-4-.15-.66-.43-1.36-.17-2.03-.02.06.1-.19.13-.24.04-.06.17-.27.15-.24.18-.25.41-.47.63-.69.43-.43.88-.84,1.27-1.31.21-.26.43-.53.6-.82.12-.21.41-.66.43-.88,0,.08-.25-.08-.04.02.19.08.29.24.38.47.29.79.31,1.72.42,2.55.29,2.07.57,4.15.86,6.22.08.6.85.93,1.38.79.65-.18.87-.78.79-1.38-.28-2.01-.55-4.01-.83-6.02-.24-1.73-.29-4.14-2.32-4.75-.9-.27-1.84,0-2.41.75-.41.54-.6,1.22-1.02,1.69-.96,1.08-2.19,1.95-2.63,3.4-.32,1.04-.02,2.08.21,3.1.08.35.13.67.08.94-.03.18-.07.22-.11.34-.09.26-.08.1-.05.07.09-.09-.18.1-.19.1-.55.25-.69,1.05-.4,1.54.33.57.99.66,1.54.4h0Z"/>
    <path class="cls-7" d="M324.62,30.98h5.27c.59,0,1.15-.52,1.12-1.12s-.49-1.12-1.12-1.12h-5.27c-.59,0-1.15.52-1.12,1.12s.49,1.12,1.12,1.12h0Z"/>
    <path class="cls-3" d="M295.72,24.07c.2-.02.41-.04.62-.04.1,0,.19,0,.29.01.03,0,.13,0,.16.02-.15-.02-.18-.03-.09-.01.03,0,.05,0,.08.01.2.04.4.09.6.15.05.02.1.04.16.05.13.04.03.07-.04-.02.05.06.22.1.29.14.1.05.19.11.28.16.04.02.27.2.15.1s.1.09.13.12c.09.08.17.17.25.26.03.03.12.17.04.04s0,0,0,.02c.05.09.11.17.16.26.02.04.04.09.07.13.05.1-.02.05,0,0l-.03-.07s.03.07.04.1c.02.06.04.12.05.18.03.1.04.19.06.29.04.2,0-.25,0,.03,0,.09,0,.17,0,.26,0,.05,0,.1,0,.15,0,.05-.06.24,0,.07.06-.18-.02.09-.03.14-.02.1-.05.19-.08.28,0,.02-.05.14-.05.14,0,0,.1-.21.04-.1-.05.09-.1.19-.15.29-.03.04-.05.08-.08.12-.07.11,0,0,0,0-.01,0,.08-.09-.03.02-.03.03-.07.07-.1.1-.03.03-.05.05-.08.07-.15.15.05-.05.06-.04,0,.03-.29.18-.32.2-.03.01-.09.06-.12.06.13,0,.13-.05.02-.02-.11.03-.22.06-.34.09-.2.05.2,0-.09.01-.13,0-.27.01-.4,0-.06,0-.12,0-.18-.01-.14,0-.05.02.03,0-.11.02-.3-.06-.41-.08-.26-.06-.52-.14-.77-.23-.06-.02-.12-.04-.18-.07-.03-.01-.27-.11-.13-.05.13.05-.06-.03-.09-.04-.07-.03-.15-.07-.22-.1-.26-.12-.51-.25-.76-.38-.52-.27-1.25-.15-1.54.4-.27.52-.15,1.25.4,1.54,1.14.6,2.33,1.12,3.62,1.25,1.21.12,2.52-.31,3.3-1.27s1.04-2.14.85-3.34-.9-2.13-1.85-2.81c-1.01-.72-2.39-1.02-3.61-.88-.58.07-1.15.47-1.12,1.12.02.55.5,1.2,1.12,1.12h0Z"/>
    <path class="cls-5" d="M305.94,36.04c1.45,0,1.45-2.25,0-2.25s-1.45,2.25,0,2.25h0Z"/>
  </g>
  <g>
    <path class="cls-2" d="M82.31,23.31c0,8.88-.36,17.76-1.06,26.61-.15,1.93,2.85,1.92,3,0,.7-8.85,1.05-17.73,1.06-26.61,0-1.93-3-1.93-3,0h0Z"/>
    <path class="cls-2" d="M114.23,24.06c.12,8.8-.12,17.6-.74,26.37-.14,1.93,2.86,1.92,3,0,.62-8.78.87-17.57.74-26.37-.03-1.93-3.03-1.93-3,0h0Z"/>
    <path class="cls-2" d="M82.56,51.01c10.78-.11,21.57.12,32.34.69,1.93.1,1.92-2.9,0-3-10.77-.57-21.55-.8-32.34-.69-1.93.02-1.93,3.02,0,3h0Z"/>
    <path class="cls-4" d="M92.46,41.96c.33-3.45-.28-6.95.17-10.39.32-2.43,1.31-5.14,3.53-6.43s6.03-1.28,7.85.58c.69.71,1.17,2.04.43,2.88-.78.89-2.33.86-3.4.91-1.91.07-3.89.29-5.8.19-.68-.04-1.2-.54-1.9-.61-.98-.09-1.65.41-1.99,1.31-.68,1.81,2.22,2.59,2.89.8l.06-.15-.69.9.12-.07-.76.2s.47.24.61.3c.41.18.8.25,1.24.29,1,.1,2.03-.01,3.03-.05,1.9-.06,3.87,0,5.75-.37,1.66-.33,3.18-1.29,3.84-2.89s.35-3.52-.63-4.93c-2.08-3.01-6.59-3.6-9.91-2.78s-5.68,3.68-6.69,6.94c-1.34,4.35-.33,8.92-.76,13.37-.08.81.75,1.5,1.5,1.5.88,0,1.42-.69,1.5-1.5h0Z"/>
    <path class="cls-9" d="M84.53,22.83c5.2-3.74,10.16-7.81,14.84-12.2l-1.82.23c3.12,2,6.28,3.96,9.37,6.02,2.68,1.79,5.31,3.77,7.2,6.42,1.11,1.56,3.72.06,2.59-1.51-2.04-2.86-4.7-5.06-7.59-7.03-3.29-2.25-6.7-4.33-10.05-6.48-.57-.37-1.34-.21-1.82.23-4.49,4.21-9.23,8.13-14.23,11.73-1.55,1.12-.06,3.72,1.51,2.59h0Z"/>
  </g>
</svg>