<?xml version="1.0" encoding="UTF-8"?>
<svg id="_レイヤー_1" data-name="レイヤー 1" xmlns="http://www.w3.org/2000/svg" viewBox="0 0 600 60">
  <defs>
    <style>
      .cls-1 {
        fill: #ed1c24;
      }

      .cls-1, .cls-2, .cls-3, .cls-4, .cls-5, .cls-6, .cls-7 {
        stroke-width: 0px;
      }

      .cls-2 {
        fill: #fbb03b;
      }

      .cls-3 {
        fill: #3fa9f5;
      }

      .cls-4 {
        fill: #7ac943;
      }

      .cls-5 {
        fill: #d9e021;
      }

      .cls-6 {
        fill: red;
      }

      .cls-7 {
        fill: #f29438;
      }
    </style>
  </defs>
  <g>
    <path class="cls-3" d="M392.84,23.25c-2.65,2.1-5.25,4.25-7.82,6.46-1.26,1.08-2.5,2.17-3.74,3.27-.59.53-1.21,1.02-1.33,1.86-.1.72.23,1.36.76,1.83,1.04.91,2.48,1.47,3.63,2.25s2.18,1.77,3.12,2.85,1.93,2.03,3.3,2.58c.8.32,2.02.45,2.41,1.31.8,1.75,3.39.23,2.59-1.51-.56-1.23-1.76-1.8-2.97-2.24-1.27-.46-2.09-.96-2.99-2-.99-1.15-2.01-2.16-3.23-3.07-.65-.48-1.33-.92-2.02-1.34-.3-.18-.6-.36-.9-.53-.2-.12-.4-.23-.6-.34-.33-.25-.39-.24-.17.03l-.15,1.16c.21-.47.89-.88,1.27-1.22.5-.44.99-.88,1.49-1.31,1.05-.91,2.1-1.82,3.17-2.72,2.08-1.75,4.18-3.47,6.31-5.17.64-.51.52-1.59,0-2.12-.62-.63-1.49-.5-2.12,0h0Z"/>
    <path class="cls-3" d="M384.25,37.04c4.95.74,9.94,1.05,14.94.83,2.44-.11,4.88-.34,7.3-.67,2.25-.31,4.59-.61,6.74-1.39,1.91-.69,3.59-1.75,4.8-3.41s1.79-3.65,2.21-5.6c.82-3.78,1.02-8.32-2.43-10.89-1.76-1.31-3.99-1.72-6.14-1.85-2.71-.16-5.42.09-8.09.58-1.9.35-1.09,3.24.8,2.89s3.99-.53,6-.51c1.62.02,3.35.1,4.84.81,3.27,1.55,2.71,5.64,2.04,8.56-.36,1.57-.81,3.22-1.83,4.5-1.07,1.35-2.69,2.01-4.32,2.43-3.85,1.01-7.96,1.38-11.93,1.55-4.72.21-9.47-.03-14.14-.72-1.89-.28-2.7,2.61-.8,2.89h0Z"/>
  </g>
  <g>
    <path class="cls-6" d="M274.37,43.84l.02-10.71c0-1.73-.02-3.46.01-5.18.03-1.48.09-3.14.97-4.4s2.27-1.76,3.68-1.37c1.15.32,2.14,1.27,2.1,2.52-.13,3.58-4.78,2.09-6.94,1.81-1.43-.18-1.42,2.07,0,2.25,2.82.36,6.23,1.46,8.22-1.25,1.58-2.15,1.13-5.11-1.04-6.67s-5.48-1.3-7.35.78c-2.2,2.44-1.89,6.01-1.9,9.06l-.02,13.16c0,1.45,2.25,1.45,2.25,0h0Z"/>
    <path class="cls-4" d="M284.16,22.69c-.38,2.38-.6,4.77-.6,7.18,0,2.09.18,4.36,1.9,5.78,1.52,1.26,4,2.64,5.69.91.73-.74,1.11-1.78,1.45-2.75.36-1.03.62-2.11.79-3.19.4-2.53.43-5.09.42-7.65,0-1.45-2.25-1.45-2.25,0,0,2.35.04,4.73-.34,7.05-.19,1.16-.46,2.31-.87,3.41-.21.56-.55,1.81-1.3,1.7-.48-.07-.99-.45-1.4-.7s-.85-.52-1.15-.92c-.57-.76-.65-1.81-.68-2.73-.08-2.51.12-5.04.51-7.51.1-.6-.15-1.21-.79-1.38-.54-.15-1.29.18-1.38.79h0Z"/>
    <path class="cls-2" d="M297.48,22.7c-1.5,4.91-2.24,10.05-2.2,15.18.01,1.45,2.26,1.45,2.25,0-.04-4.95.67-9.85,2.12-14.58.42-1.39-1.75-1.98-2.17-.6h0Z"/>
    <path class="cls-3" d="M305.37,24.35l-.22,6.11c-.06,1.59-.17,3.47,1.07,4.68.64.63,1.46.82,2.31.96.39.06.74.13,1.09.31.46.24.96.42,1.49.28.84-.22,1.31-1.03,1.46-1.83.18-.99.26-2,.38-3,.29-2.34.59-4.68.88-7.02.08-.6-.57-1.12-1.12-1.12-.67,0-1.05.52-1.12,1.12-.28,2.23-.56,4.46-.84,6.68-.12.95-.16,1.94-.37,2.87-.02.09-.05.18-.08.27,0-.02,0-.03.03-.04.48,0,.63-.05.44-.17-.1-.06-.21-.12-.32-.16-.42-.2-.85-.3-1.31-.37-.66-.11-1.33-.13-1.59-.82s-.18-1.41-.16-2.1c.08-2.22.16-4.44.24-6.66.05-1.45-2.2-1.45-2.25,0h0Z"/>
    <path class="cls-1" d="M316.86,22.75v13.36c0,1.45,2.25,1.45,2.25,0v-.52c0-1.45-2.25-1.45-2.25,0v.52h2.25v-13.36c0-1.45-2.25-1.45-2.25,0h0Z"/>
    <path class="cls-1" d="M318.85,24.38c.21.04.42.08.62.15.09.03.19.07.28.1.12.05.11.04-.03-.01.05.02.1.05.15.07.18.09.35.19.52.3.06.04.16.09.21.15-.18-.21.05.05.1.09.15.13.29.27.42.42.04.04.07.09.11.13.08.1.07.09-.02-.03.06.05.1.15.14.21.06.09.12.19.17.29.02.04.13.31.05.07.03.08.13.27.11.36-.02-.15-.02-.16,0-.03,0,.11,0,.12,0,.03.02-.09.01-.08-.01.03.06-.12.06-.13,0-.03.1-.12.12-.14.04-.05-.09.08-.07.07.05-.03,0,.02-.19.12-.2.12.15-.06.17-.07.05-.02-.05.02-.1.03-.15.05-.18.05-.36.08-.55.11.22-.03-.09,0-.14.01-.15.02-.29.03-.44.04-.51.04-1.03.05-1.54.04-.26,0-.51-.02-.77-.04-.15-.01-.29-.03-.44-.04-.07,0-.15-.02-.22-.03.12.02.11.01-.03,0-.31-.05-.58-.05-.87.11-.23.14-.46.4-.52.67-.12.53.16,1.29.79,1.38,1.05.15,2.09.23,3.15.18.95-.05,2.02-.09,2.87-.56,1.04-.57,1.38-1.81.98-2.89-.32-.85-.89-1.62-1.58-2.2-.79-.65-1.7-1.13-2.71-1.31-.58-.1-1.24.16-1.38.79-.12.55.17,1.27.79,1.38h0Z"/>
    <path class="cls-5" d="M325.83,35.26c1.52-.7,1.63-2.58,1.31-4-.15-.66-.43-1.36-.17-2.03-.02.06.1-.19.13-.24.04-.06.17-.27.15-.24.18-.25.41-.47.63-.69.43-.43.88-.84,1.27-1.31.21-.26.43-.53.6-.82.12-.21.41-.66.43-.88,0,.08-.25-.08-.04.02.19.08.29.24.38.47.29.79.31,1.72.42,2.55.29,2.07.57,4.15.86,6.22.08.6.85.93,1.38.79.65-.18.87-.78.79-1.38-.28-2.01-.55-4.01-.83-6.02-.24-1.73-.29-4.14-2.32-4.75-.9-.27-1.84,0-2.41.75-.41.54-.6,1.22-1.02,1.69-.96,1.08-2.19,1.95-2.63,3.4-.32,1.04-.02,2.08.21,3.1.08.35.13.67.08.94-.03.18-.07.22-.11.34-.09.26-.08.1-.05.07.09-.09-.18.1-.19.1-.55.25-.69,1.05-.4,1.54.33.57.99.66,1.54.4h0Z"/>
    <path class="cls-5" d="M327.62,30.98h5.27c.59,0,1.15-.52,1.12-1.12s-.49-1.12-1.12-1.12h-5.27c-.59,0-1.15.52-1.12,1.12s.49,1.12,1.12,1.12h0Z"/>
    <path class="cls-2" d="M298.72,24.07c.2-.02.41-.04.62-.04.1,0,.19,0,.29.01.03,0,.13,0,.16.02-.15-.02-.18-.03-.09-.01.03,0,.05,0,.08.01.2.04.4.09.6.15.05.02.1.04.16.05.13.04.03.07-.04-.02.05.06.22.1.29.14.1.05.19.11.28.16.04.02.27.2.15.1s.1.09.13.12c.09.08.17.17.25.26.03.03.12.17.04.04s0,0,0,.02c.05.09.11.17.16.26.02.04.04.09.07.13.05.1-.02.05,0,0l-.03-.07s.03.07.04.1c.02.06.04.12.05.18.03.1.04.19.06.29.04.2,0-.25,0,.03,0,.09,0,.17,0,.26,0,.05,0,.1,0,.15,0,.05-.06.24,0,.07.06-.18-.02.09-.03.14-.02.1-.05.19-.08.28,0,.02-.05.14-.05.14,0,0,.1-.21.04-.1-.05.09-.1.19-.15.29-.03.04-.05.08-.08.12-.07.11,0,0,0,0-.01,0,.08-.09-.03.02-.03.03-.07.07-.1.1-.03.03-.05.05-.08.07-.15.15.05-.05.06-.04,0,.03-.29.18-.32.2-.03.01-.09.06-.12.06.13,0,.13-.05.02-.02-.11.03-.22.06-.34.09-.2.05.2,0-.09.01-.13,0-.27.01-.4,0-.06,0-.12,0-.18-.01-.14,0-.05.02.03,0-.11.02-.3-.06-.41-.08-.26-.06-.52-.14-.77-.23-.06-.02-.12-.04-.18-.07-.03-.01-.27-.11-.13-.05.13.05-.06-.03-.09-.04-.07-.03-.15-.07-.22-.1-.26-.12-.51-.25-.76-.38-.52-.27-1.25-.15-1.54.4-.27.52-.15,1.25.4,1.54,1.14.6,2.33,1.12,3.62,1.25,1.21.12,2.52-.31,3.3-1.27s1.04-2.14.85-3.34-.9-2.13-1.85-2.81c-1.01-.72-2.39-1.02-3.61-.88-.58.07-1.15.47-1.12,1.12.02.55.5,1.2,1.12,1.12h0Z"/>
    <path class="cls-3" d="M308.94,36.04c1.45,0,1.45-2.25,0-2.25s-1.45,2.25,0,2.25h0Z"/>
  </g>
  <g>
    <path class="cls-4" d="M202.13,9.69c-2.2.92-3.92,2.51-5.69,4.08-1.94,1.71-3.85,3.47-5.71,5.27-3.68,3.55-7.2,7.26-10.56,11.12-1.26,1.45.85,3.58,2.12,2.12,3.19-3.65,6.51-7.18,9.99-10.56,1.71-1.67,3.46-3.3,5.24-4.89,1.63-1.46,3.36-3.37,5.41-4.23.75-.32,1.27-.99,1.05-1.85-.19-.71-1.1-1.36-1.85-1.05h0Z"/>
    <path class="cls-2" d="M179.67,30.87c-.13,5.49-.54,10.97-.67,16.47-.05,1.93,2.95,1.93,3,0,.13-5.49.54-10.97.67-16.47.05-1.93-2.95-1.93-3,0h0Z"/>
    <path class="cls-2" d="M180.44,49.22c3.46-.28,6.93-.44,10.4-.49,1.63-.02,3.31.13,4.93,0s2.88-1.16,2.53-2.82c-.39-1.89-3.29-1.09-2.89.8l-.04-.09.2-.76c.13-.27.46-.05.09-.12-.22-.04-.58,0-.82,0-.64,0-1.28-.02-1.92-.02-1.39,0-2.78.01-4.16.05-2.78.07-5.55.22-8.32.45-.81.07-1.5.64-1.5,1.5,0,.76.69,1.57,1.5,1.5h0Z"/>
    <path class="cls-4" d="M198.23,47c3.65-2.99,6.91-6.39,10.18-9.79,3.41-3.54,6.81-7.08,10.22-10.63,1.34-1.39-.78-3.52-2.12-2.12-3.41,3.54-6.81,7.09-10.22,10.63s-6.53,6.8-10.18,9.79c-.63.52-.53,1.58,0,2.12.61.63,1.5.51,2.12,0h0Z"/>
    <path class="cls-4" d="M218.74,25.19v-6.72c0-.78-.69-1.54-1.5-1.5s-1.5.66-1.5,1.5v6.72c0,.78.69,1.54,1.5,1.5s1.5-.66,1.5-1.5h0Z"/>
    <path class="cls-4" d="M203.31,12.55l6.71-.33c.78-.04,1.54-.66,1.5-1.5-.03-.78-.66-1.54-1.5-1.5l-6.71.33c-.78.04-1.54.66-1.5,1.5.03.78.66,1.54,1.5,1.5h0Z"/>
    <path class="cls-4" d="M209.96,11.99c.17.08.34.18.5.28.07.04.14.09.2.13.04.03.34.24.11.08s.06.05.1.09c.06.05.12.11.18.16.14.13.27.27.4.41.25.26.47.54.7.83.17.22-.21-.27-.03-.04.05.07.1.13.15.2.12.16.24.32.35.48.99,1.35,2,2.71,3.46,3.59.67.4,1.68.17,2.05-.54s.18-1.62-.54-2.05c-.17-.1-.32-.21-.48-.32-.25-.17.27.23.04.03-.07-.06-.15-.12-.22-.19-.28-.25-.53-.52-.78-.8-.11-.13-.22-.26-.32-.39-.03-.04-.26-.33-.09-.11s-.06-.08-.09-.12c-.22-.29-.44-.59-.65-.89-.98-1.33-2.03-2.68-3.55-3.42-.7-.34-1.65-.22-2.05.54-.36.67-.22,1.69.54,2.05h0Z"/>
    <path class="cls-4" d="M188.16,31.99c-.39,1.11-.59,2.33-.54,3.51.03.78.23,1.54.79,2.11.4.41.92.67,1.43.92,1.07.53,2.21,1.01,3.42,1,1.14-.01,2.4-.44,3.12-1.37.26-.33.44-.63.44-1.06,0-.37-.16-.81-.44-1.06-.54-.49-1.61-.66-2.12,0-.06.07-.11.14-.17.2-.11.12-.26.14.04,0-.08.04-.15.1-.22.14-.04.02-.08.04-.12.06-.1.05-.05.03.15-.06-.06,0-.2.07-.26.09-.09.02-.18.04-.27.06-.26.06.27-.02.08-.01-.09,0-.18.01-.27.01s-.18,0-.27-.01c-.11-.01-.06,0,.15.03-.06,0-.11-.02-.16-.03-.2-.04-.4-.09-.59-.15-.11-.03-.21-.07-.32-.11-.05-.02-.1-.04-.16-.06-.1-.04-.07-.03.1.04-.06.04-.53-.25-.61-.29-.19-.1-.39-.19-.57-.29-.07-.04-.14-.08-.21-.12-.04-.03-.08-.05-.12-.08.16.13.2.16.12.08-.08-.08-.05-.04.08.12-.06-.12-.07-.12-.02,0,.13.24-.05-.09-.02-.12.03.23.03.25.02.09v-.11c0-.11,0-.22,0-.33,0-.23.01-.45.03-.68,0-.06.01-.11.02-.17.01-.11,0-.08-.02.12.03-.04.05-.28.06-.34.08-.45.2-.88.35-1.31.26-.74-.29-1.67-1.05-1.85-.84-.19-1.57.25-1.85,1.05h0Z"/>
    <path class="cls-4" d="M181.3,29.69c-.92,1.62-.44,3.7.89,4.94,1.5,1.4,3.61,1.47,5.39.58.95-.47,1.74-1.25,2.32-2.13.44-.65.15-1.69-.54-2.05-.75-.4-1.59-.16-2.05.54-.03.05-.07.1-.1.15-.09.13-.07.1.07-.09-.06.03-.13.15-.17.2-.14.16-.3.29-.45.44-.21.19.27-.19.02-.01-.07.05-.15.1-.22.15-.16.1-.41.17-.55.29.21-.09.26-.11.15-.07-.04.02-.08.03-.12.05-.1.03-.19.06-.29.09-.09.02-.22.02-.3.06.24-.03.3-.04.18-.02-.04,0-.09,0-.13.01-.1,0-.2,0-.3,0-.14,0-.42-.09,0,.02-.17-.04-.34-.09-.51-.13-.11-.04-.05-.01.18.08-.05-.02-.09-.04-.14-.07-.07-.04-.13-.07-.2-.12-.04-.03-.09-.06-.13-.09l.18.14c-.07-.07-.16-.13-.23-.2-.05-.05-.1-.11-.16-.17-.19-.2.19.28.04.06-.1-.15-.19-.3-.27-.46-.13-.25.11.33.04.08-.03-.1-.06-.19-.08-.29-.03-.14,0-.34,0,.11,0-.07-.01-.15-.02-.22,0-.09.01-.17,0-.26.01-.12,0-.05-.03.22,0-.05.02-.1.03-.14.02-.06.06-.15.06-.21-.11.24-.13.29-.06.15.02-.05.05-.09.07-.13.39-.68.18-1.67-.54-2.05s-1.64-.19-2.05.54h0Z"/>
    <path class="cls-4" d="M190.43,33.55c4.04-1.87,6.16-5.96,9.75-8.38.98-.66,1.99-1.21,2.85-2.05.99-.97,1.9-2.04,2.84-3.06,2.03-2.2,4.06-4.41,6.09-6.61,1.31-1.42-.81-3.55-2.12-2.12-1.94,2.1-3.87,4.2-5.81,6.31-.92,1-1.83,2.01-2.76,2.99-.85.9-1.86,1.42-2.85,2.13-3.43,2.43-5.62,6.41-9.5,8.21-1.75.81-.23,3.4,1.51,2.59h0Z"/>
    <path class="cls-4" d="M196.2,39.22c7.06-6.61,13.99-13.37,20.79-20.26,1.36-1.38-.76-3.5-2.12-2.12-6.8,6.89-13.73,13.64-20.79,20.26-1.41,1.32.71,3.44,2.12,2.12h0Z"/>
    <path class="cls-3" d="M181.42,44.19c.65.15,1.29.3,1.9.55l-.36-.15c.35.15.69.33,1,.56l-.3-.23c.21.16.39.34.56.55l-.23-.3c.16.21.29.43.39.67l-.15-.36c.08.2.14.4.17.61l-.05-.4c.02.19.03.38,0,.57l.05-.4c-.02.15-.06.29-.12.44l.15-.36c-.02.05-.05.1-.07.16-.19.36-.26.76-.15,1.16.1.35.36.73.69.9.69.36,1.67.2,2.05-.54.42-.8.51-1.66.3-2.54-.17-.73-.59-1.43-1.11-1.96-1.03-1.06-2.51-1.48-3.91-1.8-.39-.09-.81-.05-1.16.15-.31.18-.61.54-.69.9-.17.76.23,1.66,1.05,1.85h0Z"/>
    <path class="cls-4" d="M193.15,37.95c-1,1.62-1.93,3.84-.71,5.61,1.05,1.52,2.91,1.94,4.66,1.85.78-.04,1.54-.66,1.5-1.5-.03-.78-.66-1.54-1.5-1.5-.44.02-.87.02-1.3-.04l.4.05c-.26-.04-.52-.09-.77-.17-.06-.02-.11-.04-.16-.06-.17-.06.35.17.14.06-.11-.06-.22-.12-.33-.18-.12-.07-.15-.18.11.1-.04-.04-.09-.07-.13-.11s-.08-.08-.12-.12c-.18-.18.19.31.07.09-.03-.05-.06-.1-.09-.16-.14-.26,0,.08.03.1-.07-.03-.11-.4-.12-.47l.05.4c-.03-.24-.02-.48,0-.73l-.05.4c.03-.22.09-.44.16-.66.03-.08.06-.16.09-.25.06-.15.04-.11-.05.11.02-.05.05-.11.07-.16.19-.4.41-.78.64-1.15.41-.67.17-1.68-.54-2.05s-1.61-.17-2.05.54h0Z"/>
    <path class="cls-3" d="M179.5,42.46c-.32,1.74-.44,3.51-.27,5.27.04.39.14.78.44,1.06.27.25.68.49,1.06.44,1.3-.17,2.62-.21,3.93-.13.78.05,1.53-.72,1.5-1.5-.04-.85-.66-1.45-1.5-1.5-1.31-.08-2.63-.04-3.93.13l1.5,1.5c-.12-1.31-.1-2.64.07-3.94l-.05.4c.04-.31.09-.62.15-.93.08-.4.06-.79-.15-1.16-.18-.31-.54-.61-.9-.69-.74-.17-1.69.22-1.85,1.05h0Z"/>
    <path class="cls-3" d="M182.54,47.4s.02,0,.03.02l-.3-.23s0,0,.01.01l-.23-.3s0,.01,0,.02l-.15-.36s0,.01,0,.02l-.05-.4s0,.02,0,.02l.05-.4s0,.02,0,.03l.15-.36s-.01.03-.02.04l.23-.3s-.03.03-.05.05l.3-.23s-.04.02-.06.03l.36-.15s-.03.01-.05.01l.4-.05s-.03,0-.04,0l.4.05s-.03,0-.04-.01l.36.15s-.02-.01-.03-.02l.3.23s-.04-.04-.06-.06l.23.3s-.04-.07-.06-.1l.15.36c-.03-.09-.05-.18-.08-.27-.1-.32-.25-.63-.51-.85-.09-.08-.22-.17-.32-.25,0,0-.02-.01-.03-.02-.02-.01-.03-.02-.05-.03-.12-.06-.26-.13-.4-.17,0,0-.02,0-.03,0l-.4-.05s0,0-.01,0c-.29-.01-.59.08-.84.22,0,0-.01,0-.02.01-.05.04-.11.08-.16.12-.05.04-.11.08-.16.12,0,0-.01.01-.02.02l-.23.3s0,.01-.01.02c-.11.17-.17.36-.18.56-.04.2-.04.4.03.6.05.2.14.37.27.51.11.16.25.29.42.39l.36.15c.27.07.53.07.8,0l.36-.15c.23-.13.4-.31.54-.54,0,0,0-.01.01-.02l-.23.3s.02-.02.03-.03l-.3.23s.02-.01.03-.02l-.36.15s.02,0,.03,0l-.4.05s.04,0,.06,0l-.4-.05s.05.01.07.02l-.36-.15s.06.03.08.05l-.3-.23s.05.04.07.07l-.23-.3s.03.05.04.07l-.15-.36c.02.06.04.13.06.19.05.18.13.35.21.52.06.13.22.3.28.37.02.02.04.04.06.06.24.2.4.33.71.41.15.04.3.06.45.06.61-.01,1.16-.34,1.48-.86.22-.36.29-.83.17-1.23-.07-.26-.2-.51-.4-.7-.1-.1-.21-.21-.35-.26-.17-.11-.36-.17-.56-.18-.2-.04-.4-.04-.6.03-.2.05-.37.14-.51.27-.16.11-.29.25-.39.42l-.15.36c-.07.27-.07.53,0,.8l.15.36c.13.23.31.4.54.54h0Z"/>
  </g>
  <g>
    <path class="cls-7" d="M494.37,17.38l-.8-4.2c-.07-.35-.39-.72-.69-.9-.32-.19-.8-.27-1.16-.15s-.71.34-.9.69c-.2.37-.23.74-.15,1.16l.8,4.2c.07.35.39.72.69.9.32.19.8.27,1.16.15s.71-.34.9-.69c.2-.37.23-.74.15-1.16h0Z"/>
    <path class="cls-7" d="M500.48,13.34c-.49,1.3-.91,2.62-1.25,3.96-.1.38-.05.81.15,1.16.18.31.54.61.9.69.78.18,1.64-.23,1.85-1.05.34-1.35.75-2.67,1.25-3.96.13-.34.03-.85-.15-1.16s-.54-.61-.9-.69c-.38-.09-.81-.07-1.16.15s-.54.51-.69.9h0Z"/>
    <path class="cls-7" d="M493.32,14.14l5.02-.71.62-.09.35-.05c-.18.02-.22.03-.1.02.29-.02.57-.05.86-.04.09,0,.52.07.14,0,.12.02.28.1.39.1.11.04.07.02-.1-.05.07.03.13.07.19.11-.16-.13-.17-.14-.05-.03-.11-.16-.12-.17-.03-.03.43.66,1.35.99,2.05.54.66-.42,1-1.35.54-2.05-1.09-1.68-3.01-1.68-4.78-1.43-1.97.27-3.94.55-5.91.83-.78.11-1.27,1.14-1.05,1.85.28.86,1.01,1.16,1.85,1.05h0Z"/>
    <path class="cls-7" d="M501.95,19.96c.21,0,.42.02.63.04l-.4-.05c.49.07.97.2,1.42.39l-.36-.15c.43.19.84.43,1.21.71l-.3-.23c.37.29.7.62.99.99l-.23-.3c.18.24.35.5.49.77.36.7,1.39.96,2.05.54.71-.46.93-1.31.54-2.05-1.15-2.21-3.57-3.64-6.05-3.66-.78,0-1.54.7-1.5,1.5s.66,1.49,1.5,1.5h0Z"/>
    <path class="cls-7" d="M509.25,22.43l2.52-3.12c.15-.14.25-.3.31-.48.09-.18.14-.37.13-.58,0-.37-.16-.81-.44-1.06s-.66-.46-1.06-.44c-.37.02-.82.14-1.06.44-.84,1.04-1.68,2.08-2.52,3.12-.15.14-.25.3-.31.48-.09.18-.14.37-.13.58,0,.37.16.81.44,1.06s.66.46,1.06.44c.37-.02.82-.14,1.06-.44h0Z"/>
    <path class="cls-7" d="M509.7,19.23c.46.38.89.78,1.3,1.21.21.22.41.44.61.68.09.11.19.22.28.33,0,.01.15.19.15.19,0,0-.23-.3-.03-.04.72.96,1.32,2,1.81,3.1.14.32.57.6.9.69.36.1.84.05,1.16-.15s.6-.51.69-.9c.1-.42.02-.77-.15-1.16-1.02-2.33-2.62-4.45-4.59-6.07-.31-.26-.64-.44-1.06-.44-.37,0-.81.16-1.06.44-.51.55-.64,1.59,0,2.12h0Z"/>
    <path class="cls-7" d="M515.73,22.59c-.82-.27-1.71-.07-2.45.33-.59.32-1.09.78-1.62,1.19l.3-.23c-.29.22-.59.44-.93.58l.36-.15c-.13.05-.27.09-.41.12l.4-.05c-.11.01-.22.02-.33,0l.4.05c-.12-.02-.23-.05-.34-.09-.33-.14-.86-.02-1.16.15-.31.18-.61.54-.69.9-.09.38-.07.81.15,1.16s.51.53.9.69c.79.33,1.71.11,2.44-.27.6-.31,1.1-.79,1.63-1.2l-.3.23c.29-.23.6-.44.94-.6l-.36.15c.15-.06.3-.11.46-.13l-.4.05c.11-.01.23-.01.34,0l-.4-.05c.09.01.18.03.26.06.75.25,1.67-.29,1.85-1.05.19-.83-.25-1.58-1.05-1.85h0Z"/>
    <path class="cls-7" d="M496.02,31.99c-.14.02-.29-.01-.42,0l.24.03c-.05-.01-.11-.02-.16-.04-.05-.01-.11-.05-.15-.05l.21.09s-.1-.05-.14-.08c-.05-.03-.09-.06-.14-.09-.24-.15.18.2.07.05-.06-.08-.15-.14-.21-.21-.03-.03-.08-.11-.11-.13l.13.16s-.07-.1-.1-.15c-.06-.09-.14-.34-.21-.39.02.01.13.35.05.11-.03-.08-.06-.17-.08-.25-.02-.06-.03-.11-.04-.17-.01-.06-.02-.12-.04-.17l.03.22c.02-.14-.02-.3-.02-.44,0-.09.01-.19.02-.28.01-.19.07.01-.02.12.07-.08.07-.34.1-.45.03-.09.06-.18.09-.27.09-.27-.15.29,0,.02.07-.14.14-.27.22-.4.03-.05.07-.1.1-.15.18-.27-.23.24,0,.01.11-.11.21-.22.32-.32.14-.14.02.07-.09.06.05,0,.22-.14.27-.17.07-.04.14-.07.2-.11.21-.11-.11.06-.14.06.11,0,.26-.08.38-.11.18-.04.27.04-.09,0,.05,0,.11,0,.16-.01.16,0,.31.02.47.02-.39,0-.27-.05-.13-.01.06.02.13.03.19.04.13.03.25.1.38.12-.29-.05-.26-.12-.14-.06.07.04.14.07.21.11.13.07.24.16.37.23.17.09-.29-.26-.08-.06.04.04.08.07.12.11.1.09.18.19.27.29.2.22-.2-.3-.04-.05.03.04.06.09.09.13.04.07.08.14.12.2l.03.07c.06.14.04.09-.06-.14.02.12.09.25.11.38.01.05.01.11.03.16-.12-.38-.03-.22-.02-.06,0,.06,0,.12,0,.17,0,.16-.1.32.02-.05-.05.15-.07.31-.12.46-.07.2-.12.07.04-.08-.05.05-.08.17-.12.23-.04.08-.09.15-.14.22l-.05.07c-.09.13-.07.1.07-.09-.11.05-.27.3-.37.38-.04.04-.09.07-.13.11.28-.29.1-.08-.02,0s-.33.13-.42.23l.2-.08c-.05.02-.11.04-.16.06-.08.03-.17.05-.25.07-.07.02-.14.03-.21.04-.12.02-.06.01.18-.03-.06,0-.12,0-.17.01-.06,0-.12,0-.17,0-.42-.02.23.05-.04,0-.77-.15-1.66.21-1.85,1.05-.17.74.22,1.69,1.05,1.85,2.01.38,4.06-.59,5.07-2.38s.69-3.9-.75-5.29c-1.23-1.2-3.2-1.82-4.86-1.19-1.98.75-3.22,2.72-3.24,4.81-.01,1.16.44,2.26,1.17,3.15.69.84,1.84,1.42,2.94,1.3.41-.05.76-.14,1.06-.44.26-.26.46-.69.44-1.06-.03-.74-.66-1.59-1.5-1.5h0Z"/>
    <path class="cls-7" d="M503.6,43.34c-1.71-.07-3.52.1-4.67,1.53-.49.61-.78,1.36-.77,2.15,0,.42.13.8.29,1.18.11.25.36.59.32.82l.2-.76-.08.06.66-.39c-.7.27-1.5.35-2.24.49-.67.13-1.49.37-2.17.18-1.06-.3-.27-1.44-.05-2.17.41-1.37.3-3.02-1.12-3.73-.59-.3-1.26-.37-1.86-.63s-1.14-.59-1.63-.99c-.81-.66-2.25-.54-2.51.66-.16.74-.43,1.35-.87,1.97h2.59c-.15-.25-.3-.5-.45-.75-.46-.77-1.71-1.06-2.36-.3-1.08,1.27-1.99,2.64-2.67,4.16-.33.74-.21,1.61.54,2.05.64.37,1.72.21,2.05-.54.57-1.28,1.29-2.48,2.2-3.56l-2.36-.3c.15.25.3.5.45.75.61,1.02,1.95.91,2.59,0,.57-.81.96-1.72,1.17-2.69l-2.51.66c.92.76,1.88,1.35,2.99,1.78.22.09.45.16.68.23.18.05.36.1.53.14l-.24-.24c-.2.4-.29.97-.43,1.41-.73,2.2.19,4.44,2.57,4.99,1.27.29,2.56,0,3.82-.24s2.65-.3,3.28-1.51c.28-.53.27-1.15.1-1.72-.07-.24-.57-.89-.52-1.16.13-.81,1.94-.58,2.44-.56,1.93.08,1.93-2.92,0-3h0Z"/>
    <path class="cls-7" d="M486.56,46.9c-.43-.1-.85-.24-1.26-.39.2.08.04.02-.07-.03-.1-.05-.2-.09-.3-.14-.2-.1-.39-.21-.58-.32s-.37-.23-.55-.36c-.03-.02-.31-.23-.17-.12s-.16-.14-.16-.13c-.34-.29-.65-.6-.94-.93-.06-.07-.11-.14-.17-.2.24.28-.1-.11-.06-.11l.11.4-.11.41c.08-.12.08-.14.02-.05-.07.08-.06.07.04-.04.34-.4.68-.8,1.02-1.2.73-.86,1.46-1.72,2.2-2.58.51-.6.63-1.54,0-2.12-.56-.51-1.58-.64-2.12,0-.86,1.01-1.71,2.01-2.57,3.02-.42.49-.94.98-1.21,1.57-.38.82-.28,1.7.27,2.42,1.43,1.9,3.52,3.26,5.84,3.81.76.18,1.66-.24,1.85-1.05s-.23-1.65-1.05-1.85h0Z"/>
    <path class="cls-7" d="M486.47,39.01c-.57-1.99-1.02-4.09-1.74-6.04-.66-1.79-2.06-2.12-3.7-1.42-.45.19-.88.35-1.36.44-.14.02-1.41.05-1.41.05.28.71.38.76.3.16,0-.27,0-.54.01-.81.02-.41.06-.81.13-1.22.08-.49.39-1.1.4-1.58.25-.46.17-.52-.23-.16l.41.1c.41.26,1.15.32,1.62.48.54.18,1.08.38,1.61.6.67.28,1.71.28,2.05-.54.65-1.54,1.47-3.02,2.51-4.33.54-.68.57-1.44,0-2.12-.76-.91-1.52-1.81-2.27-2.72-.28-.34-.57-.68-.85-1.02-.19-.23-.38-.45-.57-.68-.34.72-.33.87.05.45.51-.23,1.12-1.1,1.78-.81.39.16.63.98.8,1.32.59,1.16,1.39,2.3,2.82,2.4.76.05,1.44-.19,2.05-.63.37-.26.66-.58.97-.9.16-.17.73-.56.51-.67,1.72.86,3.25-1.73,1.51-2.59-1.08-.54-2.16-.43-3.16.25-.46.31-.81.72-1.19,1.12-.18.19-.54.4-.34.48-.42-.15-.81-1.48-1.04-1.86-.52-.85-1.23-1.57-2.21-1.84-1.09-.3-2.21.01-3.17.55s-2.18,1.4-2.44,2.5c-.32,1.34,1.03,2.46,1.79,3.37.95,1.13,1.89,2.26,2.84,3.39v-2.12c-1.21,1.53-2.22,3.14-2.98,4.94l2.05-.54c-1.22-.52-2.46-.99-3.75-1.33-1.04-.28-2.12-.5-3.02.25-.85.71-1.15,2-1.37,3.03-.27,1.23-.42,2.55-.3,3.81.27,2.82,3.86,2.54,5.85,1.83.22-.08.54-.16.73-.3.48-.12.49-.22.03-.31-.29-.22-.39-.24-.31-.05-.1.32.39,1.38.5,1.74l1.18,4.12c.53,1.85,3.43,1.07,2.89-.8h0Z"/>
    <path class="cls-7" d="M504.01,45.96c.38.2.6.71.88,1.05.48.59,1.1,1.04,1.9,1.04,1,0,1.65-.72,2.28-1.4.74-.8,1.48-1.6,2.22-2.41.54-.59.6-1.54,0-2.12-1.03-1-2.06-2-3.09-3l.39,1.46c.33-.8.77-2.02,1.7-2.28.41-.12.57.05.9.28.49.35,1.02.57,1.62.55,2.57-.09,2.74-3.77,3.13-5.59.21-.97-.43-1.87-1.45-1.9-1.36-.04-2.71-.08-4.07-.12l1.5,1.5c.25-1.85.49-3.71.74-5.56.11-.8-.77-1.5-1.5-1.5-.9,0-1.39.69-1.5,1.5-.25,1.85-.49,3.71-.74,5.56-.11.82.78,1.48,1.5,1.5,1.36.04,2.71.08,4.07.12l-1.45-1.9c-.14.68-.29,1.37-.43,2.05-.02.11-.41,1.35-.35,1.44-.06-.08,1.18.3.36-.3-.21-.15-.4-.27-.64-.38-.5-.22-1.03-.32-1.58-.3-2.59.12-3.83,2.42-4.7,4.53-.19.47.04,1.12.39,1.46,1.03,1,2.06,2,3.09,3v-2.12c-.49.53-.99,1.07-1.48,1.6-.25.27-.49.53-.74.8-.16.18-.33.36-.49.53.28-.04.53,0,.76.11.01-.07-.44-.63-.56-.78-.32-.41-.67-.77-1.14-1.02-1.71-.9-3.23,1.69-1.51,2.59h0Z"/>
  </g>
  <g>
    <path class="cls-2" d="M91.55,27.55c.73-4.22.74-8.46.05-12.69-.13-.8-1.12-1.25-1.85-1.05-.85.23-1.18,1.04-1.05,1.85.6,3.66.58,7.45-.05,11.1-.14.8.21,1.62,1.05,1.85.72.2,1.71-.25,1.85-1.05h0Z"/>
    <path class="cls-2" d="M90.27,16.33c6.85-.78,13.74-1.12,20.64-1.04,1.93.02,1.93-2.98,0-3-6.89-.08-13.78.26-20.64,1.04-.81.09-1.49.62-1.5,1.5,0,.74.7,1.59,1.5,1.5h0Z"/>
    <path class="cls-2" d="M89.5,42.36v2.65c.02,1.03.96,1.63,1.91,1.45.31-.06.61-.11.92-.16.17-.03.33-.05.5-.07-.27.04.1-.01.17-.02.6-.07,1.19-.12,1.79-.14,1.22-.05,2.45-.02,3.66.1.78.08,1.53-.74,1.5-1.5-.04-.88-.66-1.42-1.5-1.5-2.62-.26-5.26-.1-7.84.4l1.9,1.45v-2.65c-.01-.78-.7-1.54-1.51-1.5s-1.5.66-1.5,1.5h0Z"/>
    <path class="cls-4" d="M80.62,40.75c3.98-2.71,8.26-4.95,12.77-6.64.76-.28,1.28-1.01,1.05-1.85-.2-.73-1.08-1.33-1.85-1.05-4.76,1.78-9.29,4.09-13.49,6.94-.67.45-.97,1.32-.54,2.05.39.66,1.38,1,2.05.54h0Z"/>
    <path class="cls-4" d="M87.02,33.64l7.02.04-1.3-2.26c-1.31,1.78-2.63,3.55-3.94,5.33-.47.63-.13,1.7.54,2.05.78.41,1.55.14,2.05-.54,1.31-1.78,2.63-3.55,3.94-5.33.31-.42.25-1.09,0-1.51-.27-.46-.77-.74-1.3-.74l-7.02-.04c-.78,0-1.54.69-1.5,1.5s.66,1.49,1.5,1.5h0Z"/>
    <path class="cls-6" d="M111.92,12.87c-4.69,1.86-9.19,4.13-13.45,6.84-1.62,1.03-.12,3.63,1.51,2.59,4.03-2.57,8.29-4.77,12.73-6.54.75-.3,1.28-1,1.05-1.85-.2-.72-1.09-1.35-1.85-1.05h0Z"/>
    <path class="cls-6" d="M97.55,21.24c.88,8.96,1.73,17.95,1.1,26.96-.08,1.16,1.33,1.83,2.26,1.3,4.22-2.43,8.61-4.56,13.15-6.35,1.78-.7,1-3.6-.8-2.89-4.78,1.88-9.41,4.09-13.86,6.65l2.26,1.3c.63-9-.23-18-1.1-26.96-.19-1.9-3.19-1.92-3,0h0Z"/>
    <path class="cls-6" d="M111.7,14.76c0,4.39,0,8.8.49,13.17.43,3.83,1.76,8.23.13,11.94-.77,1.75,1.81,3.28,2.59,1.51,1.79-4.07.96-8.24.4-12.49-.62-4.68-.61-9.42-.61-14.14,0-1.93-3-1.93-3,0h0Z"/>
  </g>
</svg>