<?xml version="1.0" encoding="UTF-8"?>
<svg id="_レイヤー_1" data-name="レイヤー 1" xmlns="http://www.w3.org/2000/svg" viewBox="0 0 60 60">
  <defs>
    <style>
      .cls-1 {
        fill: #3fa9f5;
        stroke-width: 0px;
      }
    </style>
  </defs>
  <path class="cls-1" d="M11.17,35.51c4.95.74,9.94,1.05,14.94.83,2.44-.11,4.88-.34,7.3-.67,2.25-.31,4.59-.61,6.74-1.39,1.91-.69,3.59-1.75,4.8-3.41s1.79-3.65,2.21-5.6c.82-3.78,1.02-8.32-2.43-10.89-1.76-1.31-3.99-1.72-6.14-1.85-2.71-.16-5.42.09-8.09.58-1.9.35-1.09,3.24.8,2.89s3.99-.53,6-.51c1.62.02,3.35.1,4.84.81,3.27,1.55,2.71,5.64,2.04,8.56-.36,1.57-.81,3.22-1.83,4.5-1.07,1.35-2.69,2.01-4.32,2.43-3.85,1.01-7.96,1.38-11.93,1.55-4.72.21-9.47-.03-14.14-.72-1.89-.28-2.7,2.61-.8,2.89h0Z"/>
  <path class="cls-1" d="M12.11,34.24c3.01-3.68,6.3-7.13,9.83-10.32.6-.54.55-1.57,0-2.12-.6-.6-1.52-.54-2.12,0-3.53,3.19-6.82,6.64-9.83,10.32-.51.63-.61,1.51,0,2.12.53.53,1.61.63,2.12,0h0Z"/>
  <path class="cls-1" d="M10.06,35.36c3.29,4.14,6.49,8.42,10.44,11.96.6.54,1.53.59,2.12,0,.55-.55.61-1.58,0-2.12-3.95-3.55-7.15-7.82-10.44-11.96-.5-.63-1.59-.53-2.12,0-.63.63-.51,1.48,0,2.12h0Z"/>
</svg>