<?xml version="1.0" encoding="UTF-8"?>
<svg id="_レイヤー_1" data-name="レイヤー 1" xmlns="http://www.w3.org/2000/svg" viewBox="0 0 60 60">
  <defs>
    <style>
      .cls-1 {
        fill: #6bb93f;
      }

      .cls-1, .cls-2, .cls-3, .cls-4 {
        stroke-width: 0px;
      }

      .cls-2 {
        fill: #fbb03b;
      }

      .cls-3 {
        fill: #7ac943;
      }

      .cls-4 {
        fill: red;
      }
    </style>
  </defs>
  <path class="cls-1" d="M11.83,23.74c0,8.88-.36,17.76-1.06,26.61-.15,1.93,2.85,1.92,3,0,.7-8.85,1.05-17.73,1.06-26.61,0-1.93-3-1.93-3,0h0Z"/>
  <path class="cls-3" d="M43.75,24.49c.12,8.8-.12,17.6-.74,26.37-.14,1.93,2.86,1.92,3,0,.62-8.78.87-17.57.74-26.37-.03-1.93-3.03-1.93-3,0h0Z"/>
  <path class="cls-1" d="M12.08,51.44c10.78-.11,21.57.12,32.34.69,1.93.1,1.92-2.9,0-3-10.77-.57-21.55-.8-32.34-.69-1.93.02-1.93,3.02,0,3h0Z"/>
  <path class="cls-4" d="M21.98,42.39c.33-3.45-.28-6.95.17-10.39.32-2.43,1.31-5.14,3.53-6.43s6.03-1.28,7.85.58c.69.71,1.17,2.04.43,2.88-.78.89-2.33.86-3.4.91-1.91.07-3.89.29-5.8.19-.68-.04-1.2-.54-1.9-.61-.98-.09-1.65.41-1.99,1.31-.68,1.81,2.22,2.59,2.89.8l.06-.15-.69.9.12-.07-.76.2s.47.24.61.3c.41.18.8.25,1.24.29,1,.1,2.03-.01,3.03-.05,1.9-.06,3.87,0,5.75-.37,1.66-.33,3.18-1.29,3.84-2.89s.35-3.52-.63-4.93c-2.08-3.01-6.59-3.6-9.91-2.78s-5.68,3.68-6.69,6.94c-1.34,4.35-.33,8.92-.76,13.37-.08.81.75,1.5,1.5,1.5.88,0,1.42-.69,1.5-1.5h0Z"/>
  <path class="cls-2" d="M14.05,23.27c5.2-3.74,10.16-7.81,14.84-12.2l-1.82.23c3.12,2,6.28,3.96,9.37,6.02,2.68,1.79,5.31,3.77,7.2,6.42,1.11,1.56,3.72.06,2.59-1.51-2.04-2.86-4.7-5.06-7.59-7.03-3.29-2.25-6.7-4.33-10.05-6.48-.57-.37-1.34-.21-1.82.23-4.49,4.21-9.23,8.13-14.23,11.73-1.55,1.12-.06,3.72,1.51,2.59h0Z"/>
</svg>