<?xml version="1.0" encoding="UTF-8"?>
<svg id="_レイヤー_1" data-name="レイヤー 1" xmlns="http://www.w3.org/2000/svg" viewBox="0 0 60 60">
  <defs>
    <style>
      .cls-1 {
        fill: #fbb03b;
      }

      .cls-1, .cls-2, .cls-3 {
        stroke-width: 0px;
      }

      .cls-2 {
        fill: #3fa9f5;
      }

      .cls-3 {
        fill: red;
      }
    </style>
  </defs>
  <path class="cls-1" d="M20.41,26.7c.73-4.22.74-8.46.05-12.69-.13-.8-1.12-1.25-1.85-1.05-.85.23-1.18,1.04-1.05,1.85.6,3.66.58,7.45-.05,11.1-.14.8.21,1.62,1.05,1.85.72.2,1.71-.25,1.85-1.05h0Z"/>
  <path class="cls-1" d="M19.13,15.48c6.85-.78,13.74-1.12,20.64-1.04,1.93.02,1.93-2.98,0-3-6.89-.08-13.78.26-20.64,1.04-.81.09-1.49.62-1.5,1.5,0,.74.7,1.59,1.5,1.5h0Z"/>
  <path class="cls-1" d="M18.36,41.52v2.65c.02,1.03.96,1.63,1.91,1.45.31-.06.61-.11.92-.16.17-.03.33-.05.5-.07-.27.04.1-.01.17-.02.6-.07,1.19-.12,1.79-.14,1.22-.05,2.45-.02,3.66.1.78.08,1.53-.74,1.5-1.5-.04-.88-.66-1.42-1.5-1.5-2.62-.26-5.26-.1-7.84.4l1.9,1.45v-2.65c-.01-.78-.7-1.54-1.51-1.5s-1.5.66-1.5,1.5h0Z"/>
  <path class="cls-2" d="M24.05,28.82c-3.9,2.8-8.13,5.18-12.59,6.98-.75.3-1.28,1-1.05,1.85.2.71,1.09,1.35,1.85,1.05,4.71-1.9,9.18-4.31,13.31-7.28.66-.47.97-1.31.54-2.05-.38-.65-1.39-1.01-2.05-.54h0Z"/>
  <path class="cls-2" d="M17.84,36.11l-7.02.14,1.3,2.26c1.27-1.81,2.53-3.62,3.8-5.43.45-.64.14-1.69-.54-2.05-.77-.41-1.57-.15-2.05.54-1.27,1.81-2.53,3.62-3.8,5.43-.66.94.22,2.28,1.3,2.26l7.02-.14c.78-.02,1.54-.68,1.5-1.5s-.66-1.52-1.5-1.5h0Z"/>
  <path class="cls-3" d="M40.78,12.03c-4.69,1.86-9.19,4.13-13.45,6.84-1.62,1.03-.12,3.63,1.51,2.59,4.03-2.57,8.29-4.77,12.73-6.54.75-.3,1.28-1,1.05-1.85-.2-.72-1.09-1.35-1.85-1.05h0Z"/>
  <path class="cls-3" d="M26.42,20.39c.88,8.96,1.73,17.95,1.1,26.96-.08,1.16,1.33,1.83,2.26,1.3,4.22-2.43,8.61-4.56,13.15-6.35,1.78-.7,1-3.6-.8-2.89-4.78,1.88-9.41,4.09-13.86,6.65l2.26,1.3c.63-9-.23-18-1.1-26.96-.19-1.9-3.19-1.92-3,0h0Z"/>
  <path class="cls-3" d="M39.8,13.89l1,13.09c.33,4.33.81,8.69.38,13.03-.19,1.92,2.81,1.91,3,0,.42-4.34-.05-8.7-.38-13.03l-1-13.09c-.15-1.91-3.15-1.93-3,0h0Z"/>
</svg>