<?xml version="1.0" encoding="UTF-8"?>
<svg id="_レイヤー_1" data-name="レイヤー 1" xmlns="http://www.w3.org/2000/svg" viewBox="0 0 60 60">
  <defs>
    <style>
      .cls-1 {
        fill: #fbb03b;
      }

      .cls-1, .cls-2, .cls-3, .cls-4 {
        stroke-width: 0px;
      }

      .cls-2 {
        fill: #3fa9f5;
      }

      .cls-3 {
        fill: #7ac943;
      }

      .cls-4 {
        fill: red;
      }
    </style>
  </defs>
  <path class="cls-3" d="M24.86,19.03c-.21-2.83,1.94-5.39,4.89-5.19,1.31.09,3.07.82,3.58,2.15s-1.25,3.33-1.98,4.37c-.49.69.16,1.72.97,1.69,2.05-.08,3.71,1.07,5.15,2.42s3.06,2.85,3.53,4.82c.23.97.25,1.98.25,2.97,0,.42.02.84-.09,1.24-.11.43-.11.44-.45.22-.8-.52-1.45-1.73-1.95-2.53-.61-.98-1.11-2.02-1.52-3.1-.31-.84-1.19-1.05-1.88-.5-1.06.84-1.6,2.08-1.6,3.42,0,1.45,2.24,1.45,2.25,0,0-.8.32-1.34.94-1.83l-1.88-.5c.56,1.5,1.25,2.94,2.15,4.27.73,1.08,1.63,2.51,2.88,3.03,1.11.46,2.3.01,2.89-1.02.64-1.12.54-2.57.48-3.8-.07-1.47-.29-2.94-.98-4.25-.65-1.24-1.72-2.3-2.69-3.29-2.01-2.06-4.47-3.94-7.49-3.82l.97,1.69c1.26-1.78,3.05-4.05,2.11-6.33-.83-2-2.97-3.23-5.04-3.51-4.31-.58-8.08,3.05-7.75,7.37.11,1.44,2.36,1.45,2.25,0h0Z"/>
  <path class="cls-3" d="M23.09,18.85c-3.74,2.76-6.41,6.88-7.2,11.49-.2,1.15-.49,2.58,0,3.68s1.85,1.77,2.96,1.06c.94-.61,1.76-1.68,2.46-2.54.84-1.02,1.51-2.08,2.01-3.3.23-.56-.25-1.24-.79-1.38-.64-.18-1.15.22-1.38.79-.67,1.65-1.97,2.98-3.2,4.23-.1.11-.2.21-.31.31l.29-.05s-.05-.37-.05-.37c-.02-.45.04-.91.1-1.36.11-.82.29-1.63.53-2.42.96-3.24,2.98-6.18,5.71-8.19.49-.36.73-.98.4-1.54-.28-.48-1.05-.77-1.54-.4h0Z"/>
  <path class="cls-3" d="M21.39,40.39c-1.41,2.15-1.5,4.82-1.46,7.31.01.85.26,1.66,1.16,1.95.57.18,1.27.21,1.86.23,1.29.05,2.64-.25,3.55-1.23.52-.56.85-1.22,1.14-1.91.31-.74.6-1.49.91-2.23.23-.56-.25-1.24-.79-1.38-.64-.18-1.16.22-1.38.79-.15.36-.29.72-.44,1.08-.07.18-.15.36-.22.54-.02.04-.17.43-.13.31-.11.26-.23.52-.37.76-.08.14-.16.28-.26.4.08-.1-.18.18-.22.21-.1.09-.12.1-.05.05-.05.03-.1.06-.15.09-.04.02-.36.16-.2.11-.15.05-.3.08-.45.12-.14.02-.15.03-.05.01-.08,0-.16.02-.24.02-.59.04-1.22,0-1.81-.1.11.02.11.01-.02-.01.18.08.31.21.39.39.02.13.02.12.01,0,0-.08,0-.17,0-.25,0-.3,0-.59,0-.89,0-.64.02-1.27.08-1.91.11-1.1.43-2.32,1.08-3.31.33-.51.1-1.24-.4-1.54-.55-.32-1.21-.11-1.54.4h0Z"/>
  <path class="cls-3" d="M31.91,43.7c-.16,1.63.35,3.36,1.47,4.57s3.11,1.86,4.57.88c.91-.61,1.24-1.65,1.06-2.7-.16-.95-.71-1.79-1.05-2.69-.7-1.84-1.06-3.76-1.08-5.73-.01-1.45-2.26-1.45-2.25,0,.01,1.65.24,3.31.69,4.91.23.81.53,1.6.86,2.38.22.51.7,1.2.63,1.78,0,.04-.1.19-.05.12-.09.11-.04.06-.17.11-.08.03-.33.06-.56.02-.31-.05-.77-.35-1.07-.67-.72-.79-.92-1.92-.81-2.98.06-.61-.56-1.12-1.12-1.12-.66,0-1.07.52-1.12,1.12h0Z"/>
  <path class="cls-2" d="M27.37,17.82c1.93,0,1.93-3,0-3s-1.93,3,0,3h0Z"/>
  <path class="cls-2" d="M30.99,18.72c1.93,0,1.93-3,0-3s-1.93,3,0,3h0Z"/>
  <path class="cls-2" d="M25.29,20.03c.16.75.75,1.43,1.44,1.74.4.18.8.3,1.25.3s.88-.12,1.27-.33c.24-.14.44-.4.52-.67s.04-.63-.11-.87c-.33-.52-.99-.71-1.54-.4-.05.03-.1.05-.15.08l.27-.11c-.11.05-.23.08-.35.09l.3-.04c-.14.02-.28.02-.42,0l.3.04c-.15-.02-.3-.06-.44-.12l.27.11c-.14-.06-.27-.14-.39-.23l.23.18c-.11-.09-.21-.19-.3-.3l.18.23c-.07-.1-.13-.2-.18-.31l.11.27c-.03-.08-.06-.16-.08-.24-.06-.27-.29-.54-.52-.67s-.6-.2-.87-.11-.53.26-.67.52c-.15.28-.18.56-.11.87h0Z"/>
  <path class="cls-1" d="M25.67,28.28c.11.14-.1-.19-.12-.23.09.18-.05-.2-.06-.24-.02-.13-.03-.14-.01-.02,0-.07-.01-.15-.01-.22,0-.04.03-.47,0-.25.08-.52.26-.93.55-1.22.46-.45.86-.73,1.5-1.03.14-.07.43-.17.67-.26.33-.11.66-.21.99-.28.27-.06.52-.11.87-.06-.19-.03.27.09.19.05s.32.19.16.07c.29.2.36.34.52.61.16.25.31.55.42.81.13.3.23.63.28.95,0-.07,0-.03.01.12,0,.09,0,.19,0,.28,0,.08,0,.17-.01.25.02-.12.01-.1-.01.03-.01.04-.14.43-.06.26-.06.13-.13.27-.22.38.11-.15-.15.15-.19.18.15-.12-.19.09-.23.11-.55.26-.69,1.05-.4,1.54.33.56.99.66,1.54.4,1.35-.63,1.98-2.23,1.82-3.65-.17-1.5-.93-3.22-2.2-4.11s-3-.51-4.37,0-2.7,1.27-3.46,2.55c-.86,1.46-.82,3.25.24,4.58.38.47,1.19.4,1.59,0,.47-.47.38-1.12,0-1.59h0Z"/>
  <path class="cls-1" d="M24.45,29.28c-2.27,1.27-5.42,3.32-5.07,6.36.17,1.46,1.41,2.72,2.95,2.17.56-.2.99-.61,1.39-1.03.18-.19.35-.4.54-.57.05-.04.05-.04.16-.12,0,0,.14-.03.05-.02l-1.12-1.12c-.08,2.12-.28,4.27-.24,6.39.02.97.48,1.8,1.47,2.05s2.09.06,3.05.05c.66,0,1.05-.51,1.12-1.12.2-1.68.43-3.36.7-5.03.09-.6-.15-1.21-.79-1.38-.53-.15-1.29.18-1.38.79-.3,1.87-.56,3.75-.78,5.63l1.12-1.12c-.38,0-.76,0-1.13.01-.3,0-.95-.12-1.22.01-.19.09-.02-.06-.02.1,0,.46.1.06.1-.05,0-.43.03-.85.05-1.28.06-1.68.13-3.35.19-5.03.02-.59-.53-1.15-1.12-1.12-1.05.05-1.71.69-2.39,1.41-.13.14-.26.28-.41.4-.05.04-.11.06-.12.06.02-.02.15,0,.16.03,0-.13-.1-.24-.11-.39-.06-.83.64-1.7,1.24-2.26.81-.76,1.79-1.32,2.75-1.85,1.26-.71.13-2.65-1.14-1.94h0Z"/>
  <path class="cls-1" d="M27.04,41.7c.46.99,1.12,1.99,2.22,2.32,1.34.4,2.6-.46,3.32-1.53.62-.92.83-2.07.92-3.16.09-1.22-.02-2.4.33-3.54.17-.56-.21-1.25-.79-1.38-.61-.14-1.2.18-1.38.79-.32,1.04-.34,2.13-.37,3.21,0,.25-.01.51-.03.76,0,.1-.01.19-.02.29,0,0-.04.36-.01.16-.05.42-.16.83-.3,1.22-.06.18,0,0-.04.09-.04.08-.08.17-.13.25-.06.1-.12.19-.18.28.11-.15-.11.11-.11.11-.15.15-.16.17-.35.26.11-.05-.17.05-.19.05.18-.02-.25-.08.04,0-.03,0-.27-.1-.14-.04s-.09-.07-.12-.09c.19.13-.05-.06-.07-.08-.02-.02-.19-.22-.11-.12s-.08-.12-.09-.14c-.06-.09-.11-.18-.16-.27-.1-.18-.19-.37-.28-.56-.25-.55-1.05-.69-1.54-.4-.57.33-.66.99-.4,1.54h0Z"/>
  <path class="cls-1" d="M32.31,31.51c.13-.03.27-.05.4-.08.07-.01.14-.02.2-.03-.13.02-.12.02,0,0,.24-.02.48-.04.72-.03.06,0,.46.06.2,0,.13.03.25.06.37.1-.18-.05,0,0,.08.04.06.03.11.07.16.1-.1-.08-.1-.07,0,.02.09.1.1.11.04.04.04.06.09.13.12.2.06.1.11.21.16.31.15.31.28.63.41.94.23.54.54,1.21.7,1.63.05.13.1.27.12.41,0-.1,0-.08,0,.06,0,.15,0,.16,0,.03-.04.12-.04.13.01.02-.02.05-.04.09-.07.14-.03.04-.23.3-.09.15-.19.22-.41.4-.62.58l-.08.07c.09-.07.08-.06-.03.01.15-.06.31-.07.46-.03.18.09.22.1.12.04.47.3-.26-.17.15.14-.04-.03-.09-.12-.11-.16-.14-.2-.27-.41-.43-.6-.38-.42-1.02-.68-1.57-.45s-.99.76-.79,1.38c.17.52.8,1.03,1.38.79.11-.04.09,0-.15,0-.1,0-.21-.02-.3-.06s-.16-.09-.24-.15c.03.02.05.06.08.08-.1-.11-.12-.17-.03-.03.05.07.1.15.15.22.29.42.64.83,1.16.96.77.19,1.36-.23,1.92-.7.4-.34.8-.74,1.03-1.21.32-.66.39-1.35.19-2.06-.18-.63-.5-1.24-.76-1.84-.48-1.1-.86-2.39-1.99-3s-2.45-.45-3.67-.21c-.58.12-.96.83-.79,1.38.2.61.76.91,1.38.79h0Z"/>
  <path class="cls-3" d="M26.99,28.96c1.45,0,1.45-2.25,0-2.25s-1.45,2.25,0,2.25h0Z"/>
  <path class="cls-3" d="M30.17,28.74c1.45,0,1.45-2.25,0-2.25s-1.45,2.25,0,2.25h0Z"/>
  <path class="cls-3" d="M28.59,30.98c1.45,0,1.45-2.25,0-2.25s-1.45,2.25,0,2.25h0Z"/>
  <path class="cls-2" d="M10.65,20.5c-.01,10.45-.03,20.91-.04,31.36,0,1.93,3,1.93,3,0,.01-10.45.03-20.91.04-31.36,0-1.93-3-1.93-3,0h0Z"/>
  <path class="cls-2" d="M45.23,20.72c-.08,9.92.02,19.84.27,29.75.05,1.93,3.05,1.93,3,0-.26-9.92-.35-19.84-.27-29.75.01-1.93-2.99-1.93-3,0h0Z"/>
  <path class="cls-2" d="M11.73,53.47c2.19,1.22,4.97.77,7.37.73,3.02-.05,6.05-.1,9.07-.16,6.03-.1,12.07-.21,18.1-.31,1.93-.03,1.93-3.03,0-3-5.7.1-11.4.2-17.11.29-2.8.05-5.59.1-8.39.14-1.36.02-2.72.05-4.07.07-1.14.02-2.43.21-3.46-.36-1.69-.94-3.2,1.65-1.51,2.59h0Z"/>
  <path class="cls-4" d="M13.13,20.77c5.06-4.42,10.5-8.36,16.26-11.82,1.65-.99.15-3.59-1.51-2.59-5.97,3.59-11.62,7.71-16.86,12.29-1.46,1.27.67,3.39,2.12,2.12h0Z"/>
  <path class="cls-4" d="M28.46,9.23c3.3.84,6.18,2.72,8.8,4.85,2.93,2.36,5.73,4.88,8.58,7.33,1.46,1.25,3.59-.86,2.12-2.12-3-2.59-5.95-5.26-9.06-7.72-2.9-2.29-6.03-4.31-9.65-5.23-1.87-.48-2.67,2.42-.8,2.89h0Z"/>
</svg>