<?xml version="1.0" encoding="UTF-8"?>
<svg id="_レイヤー_1" data-name="レイヤー 1" xmlns="http://www.w3.org/2000/svg" viewBox="0 0 60 60">
  <defs>
    <style>
      .cls-1 {
        fill: #fbb03b;
      }

      .cls-1, .cls-2, .cls-3 {
        stroke-width: 0px;
      }

      .cls-2 {
        fill: #3fa9f5;
      }

      .cls-3 {
        fill: #7ac943;
      }
    </style>
  </defs>
  <path class="cls-3" d="M34.46,11.32c-2.2.92-3.92,2.51-5.69,4.08-1.94,1.71-3.85,3.47-5.71,5.27-3.68,3.55-7.2,7.26-10.56,11.12-1.26,1.45.85,3.58,2.12,2.12,3.19-3.65,6.51-7.18,9.99-10.56,1.71-1.67,3.46-3.3,5.24-4.89,1.63-1.46,3.36-3.37,5.41-4.23.75-.32,1.27-.99,1.05-1.85-.19-.71-1.1-1.36-1.85-1.05h0Z"/>
  <path class="cls-1" d="M12,32.5c-.13,5.49-.54,10.97-.67,16.47-.05,1.93,2.95,1.93,3,0,.13-5.49.54-10.97.67-16.47.05-1.93-2.95-1.93-3,0h0Z"/>
  <path class="cls-1" d="M12.77,50.85c3.46-.28,6.93-.44,10.4-.49,1.63-.02,3.31.13,4.93,0s2.88-1.16,2.53-2.82c-.39-1.89-3.29-1.09-2.89.8l-.04-.09.2-.76c.13-.27.46-.05.09-.12-.22-.04-.58,0-.82,0-.64,0-1.28-.02-1.92-.02-1.39,0-2.78.01-4.16.05-2.78.07-5.55.22-8.32.45-.81.07-1.5.64-1.5,1.5,0,.76.69,1.57,1.5,1.5h0Z"/>
  <path class="cls-3" d="M30.56,48.63c3.65-2.99,6.91-6.39,10.18-9.79s6.81-7.08,10.22-10.63c1.34-1.39-.78-3.52-2.12-2.12-3.41,3.54-6.81,7.09-10.22,10.63s-6.53,6.8-10.18,9.79c-.63.52-.53,1.58,0,2.12.61.63,1.5.51,2.12,0h0Z"/>
  <path class="cls-3" d="M51.07,26.83v-6.72c0-.78-.69-1.54-1.5-1.5s-1.5.66-1.5,1.5v6.72c0,.78.69,1.54,1.5,1.5s1.5-.66,1.5-1.5h0Z"/>
  <path class="cls-3" d="M35.64,14.19l6.71-.33c.78-.04,1.54-.66,1.5-1.5-.03-.78-.66-1.54-1.5-1.5l-6.71.33c-.78.04-1.54.66-1.5,1.5.03.78.66,1.54,1.5,1.5h0Z"/>
  <path class="cls-3" d="M42.29,13.62c.17.08.34.18.5.28.07.04.14.09.2.13.04.03.34.24.11.08s.06.05.1.09c.06.05.12.11.18.16.14.13.27.27.4.41.25.26.47.54.7.83.17.22-.21-.27-.03-.04.05.07.1.13.15.2.12.16.24.32.35.48.99,1.35,2,2.71,3.46,3.59.67.4,1.68.17,2.05-.54s.18-1.62-.54-2.05c-.17-.1-.32-.21-.48-.32-.25-.17.27.23.04.03-.07-.06-.15-.12-.22-.19-.28-.25-.53-.52-.78-.8-.11-.13-.22-.26-.32-.39-.03-.04-.26-.33-.09-.11s-.06-.08-.09-.12c-.22-.29-.44-.59-.65-.89-.98-1.33-2.03-2.68-3.55-3.42-.7-.34-1.65-.22-2.05.54-.36.67-.22,1.69.54,2.05h0Z"/>
  <path class="cls-3" d="M20.49,33.62c-.39,1.11-.59,2.33-.54,3.51.03.78.23,1.54.79,2.11.4.41.92.67,1.43.92,1.07.53,2.21,1.01,3.42,1,1.14-.01,2.4-.44,3.12-1.37.26-.33.44-.63.44-1.06,0-.37-.16-.81-.44-1.06-.54-.49-1.61-.66-2.12,0-.06.07-.11.14-.17.2-.11.12-.26.14.04,0-.08.04-.15.1-.22.14-.04.02-.08.04-.12.06-.1.05-.05.03.15-.06-.06,0-.2.07-.26.09-.09.02-.18.04-.27.06-.26.06.27-.02.08-.01-.09,0-.18.01-.27.01s-.18,0-.27-.01c-.11-.01-.06,0,.15.03-.06,0-.11-.02-.16-.03-.2-.04-.4-.09-.59-.15-.11-.03-.21-.07-.32-.11-.05-.02-.1-.04-.16-.06-.1-.04-.07-.03.1.04-.06.04-.53-.25-.61-.29-.19-.1-.39-.19-.57-.29-.07-.04-.14-.08-.21-.12-.04-.03-.08-.05-.12-.08.16.13.2.16.12.08-.08-.08-.05-.04.08.12-.06-.12-.07-.12-.02,0,.13.24-.05-.09-.02-.12.03.23.03.25.02.09v-.11c0-.11,0-.22,0-.33,0-.23.01-.45.03-.68,0-.06.01-.11.02-.17.01-.11,0-.08-.02.12.03-.04.05-.28.06-.34.08-.45.2-.88.35-1.31.26-.74-.29-1.67-1.05-1.85-.84-.19-1.57.25-1.85,1.05h0Z"/>
  <path class="cls-3" d="M13.63,31.32c-.92,1.62-.44,3.7.89,4.94,1.5,1.4,3.61,1.47,5.39.58.95-.47,1.74-1.25,2.32-2.13.44-.65.15-1.69-.54-2.05-.75-.4-1.59-.16-2.05.54-.03.05-.07.1-.1.15-.09.13-.07.1.07-.09-.06.03-.13.15-.17.2-.14.16-.3.29-.45.44-.21.19.27-.19.02-.01-.07.05-.15.1-.22.15-.16.1-.41.17-.55.29.21-.09.26-.11.15-.07-.04.02-.08.03-.12.05-.1.03-.19.06-.29.09-.09.02-.22.02-.3.06.24-.03.3-.04.18-.02-.04,0-.09,0-.13.01-.1,0-.2,0-.3,0-.14,0-.42-.09,0,.02-.17-.04-.34-.09-.51-.13-.11-.04-.05-.01.18.08-.05-.02-.09-.04-.14-.07-.07-.04-.13-.07-.2-.12-.04-.03-.09-.06-.13-.09l.18.14c-.07-.07-.16-.13-.23-.2-.05-.05-.1-.11-.16-.17-.19-.2.19.28.04.06-.1-.15-.19-.3-.27-.46-.13-.25.11.33.04.08-.03-.1-.06-.19-.08-.29-.03-.14,0-.34,0,.11,0-.07-.01-.15-.02-.22,0-.09.01-.17,0-.26.01-.12,0-.05-.03.22,0-.05.02-.1.03-.14.02-.06.06-.15.06-.21-.11.24-.13.29-.06.15.02-.05.05-.09.07-.13.39-.68.18-1.67-.54-2.05s-1.64-.19-2.05.54h0Z"/>
  <path class="cls-3" d="M22.76,35.18c4.04-1.87,6.16-5.96,9.75-8.38.98-.66,1.99-1.21,2.85-2.05.99-.97,1.9-2.04,2.84-3.06,2.03-2.2,4.06-4.41,6.09-6.61,1.31-1.42-.81-3.55-2.12-2.12-1.94,2.1-3.87,4.2-5.81,6.31-.92,1-1.83,2.01-2.76,2.99-.85.9-1.86,1.42-2.85,2.13-3.43,2.43-5.62,6.41-9.5,8.21-1.75.81-.23,3.4,1.51,2.59h0Z"/>
  <path class="cls-3" d="M28.53,40.86c7.06-6.61,13.99-13.37,20.79-20.26,1.36-1.38-.76-3.5-2.12-2.12-6.8,6.89-13.73,13.64-20.79,20.26-1.41,1.32.71,3.44,2.12,2.12h0Z"/>
  <path class="cls-2" d="M13.75,45.82c.65.15,1.29.3,1.9.55l-.36-.15c.35.15.69.33,1,.56l-.3-.23c.21.16.39.34.56.55l-.23-.3c.16.21.29.43.39.67l-.15-.36c.08.2.14.4.17.61l-.05-.4c.02.19.03.38,0,.57l.05-.4c-.02.15-.06.29-.12.44l.15-.36c-.02.05-.05.1-.07.16-.19.36-.26.76-.15,1.16.1.35.36.73.69.9.69.36,1.67.2,2.05-.54.42-.8.51-1.66.3-2.54-.17-.73-.59-1.43-1.11-1.96-1.03-1.06-2.51-1.48-3.91-1.8-.39-.09-.81-.05-1.16.15-.31.18-.61.54-.69.9-.17.76.23,1.66,1.05,1.85h0Z"/>
  <path class="cls-3" d="M25.48,39.58c-1,1.62-1.93,3.84-.71,5.61,1.05,1.52,2.91,1.94,4.66,1.85.78-.04,1.54-.66,1.5-1.5-.03-.78-.66-1.54-1.5-1.5-.44.02-.87.02-1.3-.04l.4.05c-.26-.04-.52-.09-.77-.17-.06-.02-.11-.04-.16-.06-.17-.06.35.17.14.06-.11-.06-.22-.12-.33-.18-.12-.07-.15-.18.11.1-.04-.04-.09-.07-.13-.11s-.08-.08-.12-.12c-.18-.18.19.31.07.09-.03-.05-.06-.1-.09-.16-.14-.26,0,.08.03.1-.07-.03-.11-.4-.12-.47l.05.4c-.03-.24-.02-.48,0-.73l-.05.4c.03-.22.09-.44.16-.66.03-.08.06-.16.09-.25.06-.15.04-.11-.05.11.02-.05.05-.11.07-.16.19-.4.41-.78.64-1.15.41-.67.17-1.68-.54-2.05s-1.61-.17-2.05.54h0Z"/>
  <path class="cls-2" d="M11.83,44.09c-.32,1.74-.44,3.51-.27,5.27.04.39.14.78.44,1.06.27.25.68.49,1.06.44,1.3-.17,2.62-.21,3.93-.13.78.05,1.53-.72,1.5-1.5-.04-.85-.66-1.45-1.5-1.5-1.31-.08-2.63-.04-3.93.13l1.5,1.5c-.12-1.31-.1-2.64.07-3.94l-.05.4c.04-.31.09-.62.15-.93.08-.4.06-.79-.15-1.16-.18-.31-.54-.61-.9-.69-.74-.17-1.69.22-1.85,1.05h0Z"/>
  <path class="cls-2" d="M14.87,49.04s.02,0,.03.02l-.3-.23s0,0,.01.01l-.23-.3s0,.01,0,.02l-.15-.36s0,.01,0,.02l-.05-.4s0,.02,0,.02l.05-.4s0,.02,0,.03l.15-.36s-.01.03-.02.04l.23-.3s-.03.03-.05.05l.3-.23s-.04.02-.06.03l.36-.15s-.03.01-.05.01l.4-.05s-.03,0-.04,0l.4.05s-.03,0-.04-.01l.36.15s-.02-.01-.03-.02l.3.23s-.04-.04-.06-.06l.23.3s-.04-.07-.06-.1l.15.36c-.03-.09-.05-.18-.08-.27-.1-.32-.25-.63-.51-.85-.09-.08-.22-.17-.32-.25,0,0-.02-.01-.03-.02-.02-.01-.03-.02-.05-.03-.12-.06-.26-.13-.4-.17,0,0-.02,0-.03,0l-.4-.05s0,0-.01,0c-.29-.01-.59.08-.84.22,0,0-.01,0-.02.01-.05.04-.11.08-.16.12-.05.04-.11.08-.16.12,0,0-.01.01-.02.02l-.23.3s0,.01-.01.02c-.11.17-.17.36-.18.56-.04.2-.04.4.03.6.05.2.14.37.27.51.11.16.25.29.42.39l.36.15c.27.07.53.07.8,0l.36-.15c.23-.13.4-.31.54-.54,0,0,0-.01.01-.02l-.23.3s.02-.02.03-.03l-.3.23s.02-.01.03-.02l-.36.15s.02,0,.03,0l-.4.05s.04,0,.06,0l-.4-.05s.05.01.07.02l-.36-.15s.06.03.08.05l-.3-.23s.05.04.07.07l-.23-.3s.03.05.04.07l-.15-.36c.02.06.04.13.06.19.05.18.13.35.21.52.06.13.22.3.28.37.02.02.04.04.06.06.24.2.4.33.71.41.15.04.3.06.45.06.61-.01,1.16-.34,1.48-.86.22-.36.29-.83.17-1.23-.07-.26-.2-.51-.4-.7-.1-.1-.21-.21-.35-.26-.17-.11-.36-.17-.56-.18-.2-.04-.4-.04-.6.03-.2.05-.37.14-.51.27-.16.11-.29.25-.39.42l-.15.36c-.07.27-.07.53,0,.8l.15.36c.13.23.31.4.54.54h0Z"/>
</svg>