<?xml version="1.0" encoding="UTF-8"?>
<svg id="_レイヤー_1" data-name="レイヤー 1" xmlns="http://www.w3.org/2000/svg" viewBox="0 0 120 60">
  <defs>
    <style>
      .cls-1 {
        fill: #fbb03b;
      }

      .cls-1, .cls-2, .cls-3, .cls-4, .cls-5 {
        stroke-width: 0px;
      }

      .cls-2 {
        fill: #3fa9f5;
      }

      .cls-3 {
        fill: #7ac943;
      }

      .cls-4 {
        fill: #d9e021;
      }

      .cls-5 {
        fill: red;
      }
    </style>
  </defs>
  <path class="cls-5" d="M10.79,51.64l.02-15.25c0-4.66-.27-9.41.14-14.05.33-3.78,2.37-7.98,6.76-7.84,3.13.1,6.05,2.74,5.11,6.02-.44,1.54-1.69,3.02-3.36,3.24-1.38.18-2.91-.21-4.27-.38s-2.85-.37-4.27-.55c-1.91-.25-1.89,2.76,0,3,1.42.18,2.85.37,4.27.55,1.57.2,3.18.54,4.76.32,2.04-.28,3.76-1.59,4.85-3.31,2.36-3.75,1.04-8.53-2.78-10.69-4.11-2.32-9.19-1.04-11.9,2.76-2.99,4.2-2.29,10.18-2.29,15.04l-.03,21.15c0,1.93,3,1.93,3,0h0Z"/>
  <path class="cls-3" d="M28.07,16.09c-.64,3.97-1,7.98-1.01,12,0,3.41.26,7.14,3.09,9.47,2.4,1.97,6.36,4.27,9.03,1.54,1.17-1.2,1.79-2.9,2.34-4.45.61-1.74,1.04-3.55,1.33-5.38.67-4.23.7-8.52.69-12.79,0-1.93-3.01-1.93-3,0,.01,3.99.05,8.04-.58,11.99-.31,1.95-.78,3.89-1.46,5.75-.41,1.12-1.09,3.43-2.63,3.15-.88-.16-1.75-.77-2.5-1.22s-1.48-.92-2.02-1.61c-1.05-1.36-1.21-3.22-1.27-4.88-.13-4.26.21-8.56.88-12.77.3-1.89-2.59-2.7-2.89-.8h0Z"/>
  <path class="cls-1" d="M50.53,16.11c-2.51,8.25-3.76,16.86-3.69,25.49.02,1.93,3.02,1.93,3,0-.07-8.38,1.14-16.67,3.58-24.69.56-1.85-2.33-2.64-2.89-.8h0Z"/>
  <path class="cls-1" d="M52.24,17.91c.34-.04.69-.07,1.04-.06.16,0,.32,0,.49.02.09,0,.18.02.28.03-.29-.02.02,0,.08.02.34.06.68.14,1.01.25.09.03.53.2.29.09.17.07.33.15.5.24s.32.18.47.28c.06.04.11.08.17.11.03.02.26.19.12.09s.08.07.11.1c.05.04.1.09.15.14.15.14.29.29.42.44.03.03.2.25.1.12-.09-.13.04.06.04.07.09.14.18.29.27.44.04.07.18.41.13.27-.07-.18.02.07.03.11.03.1.06.2.09.3.04.16.08.32.11.49,0,.03.02.24,0,.05-.02-.2,0,.06,0,.11,0,.15.01.29.01.44,0,.08,0,.17,0,.25,0,.04-.03.39,0,.17.02-.19-.04.22-.06.29-.04.16-.08.32-.13.48-.03.08-.06.15-.08.23,0-.02.11-.22.03-.08-.09.16-.16.33-.26.48-.04.07-.26.36-.16.25s-.2.21-.25.26c-.08.07-.35.29-.12.12-.17.12-.35.23-.54.33-.07.03-.13.07-.2.1.21-.09-.02,0-.06.01-.19.06-.38.11-.57.15,0,0-.25.05-.09.02.17-.03-.13.01-.17.01-.22.02-.45.02-.67,0-.1,0-.2-.01-.3-.02-.09,0-.22-.03-.06,0-.23-.03-.46-.08-.69-.14-.44-.1-.87-.24-1.3-.39-.77-.28-1.57-.67-2.42-1.12-.69-.37-1.66-.2-2.05.54-.37.69-.2,1.66.54,2.05,1.86.98,3.8,1.84,5.91,2.06,1.94.2,4.03-.47,5.28-2.02s1.62-3.37,1.34-5.25-1.41-3.42-2.93-4.5c-1.66-1.18-3.88-1.67-5.89-1.42-.78.09-1.54.62-1.5,1.5.03.73.67,1.6,1.5,1.5h0Z"/>
  <path class="cls-2" d="M63.85,18.79c-.12,3.43-.25,6.86-.37,10.3-.09,2.56-.32,5.66,1.69,7.62,1.03,1.01,2.36,1.29,3.73,1.51.69.11,1.31.24,1.93.55.69.36,1.41.63,2.2.43,1.28-.32,1.97-1.6,2.19-2.81.29-1.63.42-3.3.63-4.94.5-3.94.99-7.89,1.49-11.83.1-.81-.76-1.5-1.5-1.5-.89,0-1.4.69-1.5,1.5-.47,3.76-.94,7.51-1.42,11.27-.21,1.63-.28,3.34-.64,4.94,0,.03-.18.58-.19.57.49-.02.57-.09.25-.22-.17-.1-.35-.2-.53-.28-.68-.31-1.38-.46-2.11-.58-1.26-.2-2.47-.31-2.96-1.65-.42-1.15-.32-2.45-.28-3.65.13-3.74.27-7.49.4-11.23.07-1.93-2.93-1.93-3,0h0Z"/>
  <path class="cls-5" d="M83.21,16.08v22.52h3v-.88c0-1.93-3-1.93-3,0v.88c0,1.93,3,1.93,3,0v-22.52c0-1.93-3-1.93-3,0h0Z"/>
  <path class="cls-5" d="M86.29,18.44c.35.06.7.14,1.04.25.16.05.32.11.47.17.16.07.18.07.04.01.09.04.17.08.26.12.3.15.59.31.87.5.12.08.24.16.35.25-.22-.16.21.18.25.22.25.22.49.46.71.71.04.04.37.47.21.25.08.12.17.23.24.35.1.16.2.32.29.49,0,0,.2.41.12.21.08.19.14.4.18.6-.06-.32-.02.36,0,.16.02-.1,0-.07-.03.1.06-.11.05-.1-.03.04.3-.32-.35.26.01,0-.11.07-.22.13-.34.2.28-.15-.19.06-.27.08-.7.2-1.26.24-2,.3-1.7.13-3.57.09-5.15-.14-.77-.11-1.65.19-1.85,1.05-.16.71.22,1.72,1.05,1.85,1.73.25,3.46.38,5.21.29,1.53-.07,3.27-.14,4.64-.9,1.61-.88,2.09-2.77,1.46-4.43-.51-1.36-1.45-2.61-2.57-3.53-1.27-1.05-2.76-1.81-4.4-2.1-.77-.14-1.65.21-1.85,1.05-.17.73.22,1.7,1.05,1.85h0Z"/>
  <path class="cls-4" d="M97.75,36.83c2.39-1.1,2.53-4.07,2.03-6.29-.27-1.17-.76-2.45-.29-3.63.34-.84,1-1.52,1.63-2.15.73-.73,1.49-1.42,2.15-2.21.34-.41.67-.84.94-1.31.24-.41.4-1.22.75-1.53.53-.46,1.11.52,1.27.95.48,1.34.52,2.9.71,4.3.48,3.5.96,6.99,1.44,10.49.11.8,1.14,1.24,1.85,1.05.87-.24,1.16-1.04,1.05-1.85-.47-3.38-.93-6.77-1.4-10.15-.38-2.76-.4-6.73-3.64-7.73-1.36-.42-2.79-.03-3.65,1.12-.68.91-.97,2.01-1.74,2.88-1.56,1.76-3.61,3.19-4.32,5.55-.51,1.69-.02,3.36.36,5.02.22.96.43,2.41-.65,2.91-.74.34-.92,1.4-.54,2.05.44.76,1.31.88,2.05.54h0Z"/>
  <path class="cls-4" d="M100.95,29.57h8.89c.78,0,1.54-.69,1.5-1.5s-.66-1.5-1.5-1.5h-8.89c-.78,0-1.54.69-1.5,1.5s.66,1.5,1.5,1.5h0Z"/>
</svg>