<?xml version="1.0" encoding="UTF-8"?>
<svg id="_レイヤー_1" data-name="レイヤー 1" xmlns="http://www.w3.org/2000/svg" viewBox="0 0 60 60">
  <defs>
    <style>
      .cls-1 {
        fill: #3fa9f5;
      }

      .cls-1, .cls-2 {
        stroke-width: 0px;
      }

      .cls-2 {
        fill: red;
      }
    </style>
  </defs>
  <path class="cls-1" d="M13.7,16.34c.28,10.15.55,20.29.83,30.44.05,1.93,3.05,1.93,3,0-.28-10.15-.55-20.29-.83-30.44-.05-1.93-3.05-1.93-3,0h0Z"/>
  <path class="cls-1" d="M15.97,48.41c4.9.17,9.82.33,14.7-.22,1.17-.13,2.34-.38,3.51-.42s2.24.19,3.36.33c2.38.29,4.78.22,7.18.15,1.93-.06,1.93-3.06,0-3-2.31.07-4.64.15-6.95-.12-1.2-.14-2.38-.4-3.59-.36s-2.34.28-3.51.42c-4.88.56-9.8.39-14.7.22-1.93-.07-1.93,2.93,0,3h0Z"/>
  <path class="cls-1" d="M45.97,47.13c1.09-5.02.07-9.96-.5-14.96s-.19-10.15-.06-15.2c.05-1.93-2.95-1.93-3,0-.12,4.89-.51,9.85,0,14.72s1.71,9.79.66,14.64c-.41,1.88,2.48,2.69,2.89.8h0Z"/>
  <path class="cls-1" d="M15.54,17.55l14.2-.09c2.29-.01,4.57-.03,6.86-.04s4.47,0,6.64.67c1.85.58,2.64-2.32.8-2.89-4.36-1.36-9.3-.77-13.8-.74l-14.69.09c-1.93.01-1.93,3.01,0,3h0Z"/>
  <path class="cls-2" d="M39.77,18.52c-4.31,2.21-6.14,7.14-9.19,10.64-3.99,4.57-8.24,8.94-12.36,13.39-1.31,1.42.81,3.54,2.12,2.12,4.02-4.35,8.13-8.64,12.07-13.07,1.6-1.8,2.93-3.76,4.26-5.76,1.24-1.87,2.57-3.68,4.61-4.73,1.72-.88.2-3.47-1.51-2.59h0Z"/>
  <path class="cls-2" d="M17.37,20.03c8.34,7.24,15.71,15.48,22.95,23.8,1.27,1.46,3.38-.67,2.12-2.12-7.23-8.32-14.6-16.56-22.95-23.8-1.45-1.26-3.58.85-2.12,2.12h0Z"/>
</svg>