<?xml version="1.0" encoding="UTF-8"?>
<svg id="_レイヤー_1" data-name="レイヤー 1" xmlns="http://www.w3.org/2000/svg" viewBox="0 0 60 60">
  <defs>
    <style>
      .cls-1 {
        fill: red;
        stroke-width: 0px;
      }
    </style>
  </defs>
  <path class="cls-1" d="M26.08,12.5c-.13,13.35-.25,26.7-.38,40.05-.02,2.35,2.09,4.61,4.5,4.5s4.48-1.98,4.5-4.5c.13-13.35.25-26.7.38-40.05.02-2.35-2.09-4.61-4.5-4.5s-4.48,1.98-4.5,4.5h0Z"/>
  <path class="cls-1" d="M13.63,43.42c-.47-.25-.48-.24-.03.02l-.3-.21c.28.28.55.56.82.86.6.65,1.2,1.3,1.82,1.93,1.13,1.16,2.31,2.27,3.51,3.35,1.5,1.33,3.06,2.59,4.64,3.81,1.36,1.05,2.79,2.32,4.38,2.99s3.16.59,4.67-.17c.99-.5,1.84-1.37,2.67-2.1,1.43-1.24,2.86-2.48,4.29-3.72,2.92-2.53,5.85-5.06,8.77-7.59,1.79-1.55,1.7-4.8,0-6.36-1.9-1.75-4.46-1.65-6.36,0-2.43,2.1-4.85,4.2-7.28,6.3-1.18,1.02-2.36,2.05-3.55,3.07-.62.54-1.24,1.08-1.87,1.62-.25.22-.5.43-.75.65-.19.16-.37.32-.56.48-.28.25-.25.21.08-.12l2.27-.61c1.42.56,1.74.61.97.14l-.36-.25c-.36-.25-.72-.51-1.08-.77s-.71-.52-1.06-.79c-1.15-.87.64.52-.48-.38-1.38-1.11-2.72-2.25-4.02-3.45s-2.55-2.45-3.75-3.74c-1.49-1.59-2.91-2.98-5.06-3.64s-5.01.82-5.54,3.14.73,4.8,3.14,5.54h0Z"/>
</svg>